<svg width="176" height="398" viewBox="0 0 176 398" fill="none" xmlns="http://www.w3.org/2000/svg">
<path d="M76.7984 119.646L46.1011 71.967L59.2725 47.9643L44.332 24.778L59.2725 2H116.83L102.379 24.778L116.83 47.9643L86.4862 95.5479L101.018 118.979" stroke="#25CBFD" stroke-width="3"/>
<path d="M0 234.5L44 164.5H131.5L175 234.5L160.5 258L175.3 281L161.5 304.5H131.5L146 328L131.5 350.5H101.5L116.5 374L101.5 398H73.5L59 374L73.5 350.5H44L29.5 328L44 304.5H15L0.5 281L14.5 257.5L0 234.5Z" fill="#007DA4"/>
<path d="M73.1465 164.513L58.6091 187.856L44.0039 164.513H73.1465Z" fill="#25CBFD"/>
<path d="M87.9238 141.363L73.3864 164.707L58.7812 141.363H87.9238Z" fill="#474747"/>
<path d="M102.623 118.014L88.0856 141.357L73.4805 118.014H102.623Z" fill="#474747"/>
<path d="M117.154 141.363L102.617 164.707L88.0117 141.363H117.154Z" fill="#474747"/>
<path d="M87.7464 187.856L73.1455 164.513L58.6016 187.856H87.7464Z" fill="#007DA4"/>
<path d="M102.442 164.38L88 141.5L73.2969 164.38H102.442Z" fill="#474747"/>
<path d="M116.819 187.87L102.29 164.518L87.7461 187.861L116.819 187.87Z" fill="#007DA4"/>
<path d="M58.5062 187.87L43.9776 164.518L29.4336 187.861L58.5062 187.87Z" fill="#007DA4"/>
<path d="M146.031 187.873L131.426 164.51L116.816 187.873H146.031Z" fill="#007DA4"/>
<path d="M102.301 164.503L87.7007 187.849L73.0977 164.503H102.301Z" fill="#25CBFD"/>
<path d="M131.431 164.51L116.821 187.871L102.277 164.516L131.431 164.51Z" fill="#25CBFD"/>
<path d="M131.421 211.214L116.815 187.87L102.18 211.218L131.421 211.214Z" fill="#007DA4"/>
<path d="M73.112 211.214L58.5069 187.87L43.8711 211.218L73.112 211.214Z" fill="#007DA4"/>
<path d="M102.292 211.214L87.6866 187.87L73.0508 211.218L102.292 211.214Z" fill="#007DA4"/>
<path d="M160.667 211.214L146 187.87L131.426 211.218L160.667 211.214Z" fill="#007DA4"/>
<path d="M43.987 211.214L29.3819 187.87L14.7461 211.218L43.987 211.214Z" fill="#007DA4"/>
<path d="M131.39 211.219L116.802 234.571L102.184 211.219H131.39Z" fill="#25CBFD"/>
<path d="M146.022 187.87L131.422 211.214L116.816 187.87H146.022Z" fill="#007DA4"/>
<path d="M116.815 187.871L102.184 211.219L87.668 187.866L116.815 187.871Z" fill="#007DA4"/>
<path d="M58.5102 187.871L43.8788 211.219L29.3633 187.866L58.5102 187.871Z" fill="#007DA4"/>
<path d="M116.834 234.578L102.163 211.217L87.5664 234.668L116.834 234.578Z" fill="#007DA4"/>
<path d="M116.807 234.572L102.248 257.759L87.5664 234.668L116.807 234.572Z" fill="#007DA4"/>
<path d="M116.931 281.255L102.241 257.758L87.6289 281.191L116.931 281.255Z" fill="#007DA4"/>
<path d="M116.861 281.183L102.276 304.553L87.6289 281.191L116.861 281.183Z" fill="#007DA4"/>
<path d="M175.212 234.558L160.613 257.901L146.008 234.558H175.212Z" fill="#007DA4"/>
<path d="M87.5652 234.667L73.0605 211.214L58.5078 234.564L87.5652 234.667Z" fill="#007DA4"/>
<path d="M29.6326 234.564L14.7 211.214L0.0351562 234.564H29.6326Z" fill="#007DA4"/>
<path d="M87.565 234.667L73.0101 257.871L58.4727 234.529L87.565 234.667Z" fill="#007DA4"/>
<path d="M29.5 234.529L14.55 257.871L0 234.529H29.5Z" fill="#007DA4"/>
<path d="M102.156 211.23L87.5638 234.667L72.9805 211.219L102.156 211.23Z" fill="#25CBFD"/>
<path d="M73.1061 211.219L58.5206 234.571L43.9023 211.219H73.1061Z" fill="#25CBFD"/>
<path d="M58.5445 234.578L43.8738 211.217L29.2773 234.668L58.5445 234.578Z" fill="#007DA4"/>
<path d="M43.8707 211.23L29.2786 234.667L14.6953 211.219L43.8707 211.23Z" fill="#25CBFD"/>
<path d="M102.285 257.764L87.5732 234.654L73.0117 257.871L102.285 257.764Z" fill="#007DA4"/>
<path d="M44 257.872L29.4 234.5L14.543 257.872H44Z" fill="#007DA4"/>
<path d="M58.5269 234.545L43.8474 257.893L29.2422 234.549L58.5269 234.545Z" fill="#007DA4"/>
<path d="M58.4482 281.241L43.8474 304.585L29.2422 281.241H58.4482Z" fill="#007DA4"/>
<path d="M73.0291 257.873L58.4895 234.547L43.7969 257.891L73.0291 257.873Z" fill="#007DA4"/>
<path d="M160.594 211.214L146.044 234.558L131.391 211.214H160.594Z" fill="#25CBFD"/>
<path d="M146.052 234.562L131.394 211.188L116.809 234.558L146.052 234.562Z" fill="#007DA4"/>
<path d="M175.2 234.563L160.599 211.219L146.035 234.558L175.2 234.563Z" fill="#007DA4"/>
<path d="M146.047 234.558L131.414 257.901L116.809 234.558H146.047Z" fill="#007DA4"/>
<path d="M131.389 257.74L116.876 234.405L102.242 257.767L131.389 257.74Z" fill="#007DA4"/>
<path d="M87.653 281.241L73.0129 257.866L58.4492 281.241H87.653Z" fill="#007DA4"/>
<path d="M58.5759 281.241L43.9357 257.866L29.3516 281.241H58.5759Z" fill="#007DA4"/>
<path d="M87.6513 281.241L73.0505 304.583L58.4453 281.239L87.6513 281.241Z" fill="#007DA4"/>
<path d="M73.0503 304.585L58.4517 281.241L43.8203 304.6L73.0503 304.585Z" fill="#007DA4"/>
<path d="M43.9248 304.6L29.2999 281.241L14.5938 304.6H43.9248Z" fill="#007DA4"/>
<path d="M102.28 304.553L87.6352 281.196L73.0234 304.577L102.28 304.553Z" fill="#007DA4"/>
<path d="M102.282 304.55L87.6051 327.925L72.9453 304.526L102.282 304.55Z" fill="#25CBFD"/>
<path d="M58.459 327.922L43.8604 351.266L29.3164 327.922H58.459Z" fill="#007DA4"/>
<path d="M29.31 281.237L14.695 304.583L0.0898438 281.237H29.31Z" fill="#007DA4"/>
<path d="M116.877 327.894L102.279 304.55L87.6016 327.924L116.877 327.894Z" fill="#007DA4"/>
<path d="M146.061 281.185L131.461 304.528L116.855 281.185H146.061Z" fill="#007DA4"/>
<path d="M131.485 304.553L116.878 327.894L102.281 304.553H131.485Z" fill="#25CBFD"/>
<path d="M131.47 304.55L116.854 281.183L102.297 304.544L131.47 304.55Z" fill="#007DA4"/>
<path d="M160.674 304.535L146 281L131.441 304.551L160.674 304.535Z" fill="#007DA4"/>
<path d="M175.235 281.191L160.636 304.535L146.031 281.191H175.235Z" fill="#007DA4"/>
<path d="M146.084 327.899L131.484 304.553L116.773 327.899H146.084Z" fill="#007DA4"/>
<path d="M116.878 327.894L102.254 351.266L87.6484 327.92L116.878 327.894Z" fill="#007DA4"/>
<path d="M87.6647 327.922L73.0661 351.266L58.4609 327.922H87.6647Z" fill="#007DA4"/>
<path d="M102.256 351.267L87.657 327.921L73.0234 351.282L102.256 351.267Z" fill="#007DA4"/>
<path d="M146.087 327.9L131.488 351.244L116.883 327.9H146.087Z" fill="#007DA4"/>
<path d="M131.48 351.237L116.881 327.894L102.25 351.255L131.48 351.237Z" fill="#007DA4"/>
<path d="M160.638 257.887L146.038 234.543L131.406 257.902L160.638 257.887Z" fill="#007DA4"/>
<path d="M29.3853 281.254L14.55 257.87L0.0625 281.254H29.3853Z" fill="#007DA4"/>
<path d="M73.1588 351.309L58.4595 327.922L43.7734 351.309H73.1588Z" fill="#007DA4"/>
<path d="M102.25 257.758L87.6322 281.196L73.0117 257.871L102.25 257.758Z" fill="#25CBFD"/>
<path d="M175.302 281.255L160.612 257.758L146 281.191L175.302 281.255Z" fill="#007DA4"/>
<path d="M146.071 281.185L131.431 257.811L116.867 281.183L146.071 281.185Z" fill="#007DA4"/>
<path d="M160.618 257.758L145.999 281.196L131.379 257.871L160.618 257.758Z" fill="#25CBFD"/>
<path d="M131.454 257.758L116.855 281.134L102.25 257.758H131.454Z" fill="#25CBFD"/>
<path d="M73.0223 257.875L58.452 281.241L43.8359 257.875H73.0223Z" fill="#25CBFD"/>
<path d="M43.9363 257.875L29.3661 281.241L14.5508 257.875H43.9363Z" fill="#25CBFD"/>
<path d="M87.6035 327.926L73.0049 304.582L58.4609 327.926H87.6035Z" fill="#007DA4"/>
<path d="M102.333 351.268L87.7341 374.611L73.1289 351.268H102.333Z" fill="#25CBFD"/>
<path d="M116.963 374.597L102.362 351.253L87.7305 374.612L116.963 374.597Z" fill="#007DA4"/>
<path d="M116.727 374.392L102.039 397.735L87.5234 374.392H116.727Z" fill="#007DA4"/>
<path d="M87.8303 374.612L73.0728 351.253L58.4414 374.612H87.8303Z" fill="#007DA4"/>
<path d="M87.5663 374.392L73.1175 397.832L58.4336 374.392H87.5663Z" fill="#007DA4"/>
<path d="M102.106 397.818L87.5427 374.392L73.1211 397.836L102.106 397.818Z" fill="#007DA4"/>
<path d="M58.459 327.923L43.9 304.5L29.3164 327.923H58.459Z" fill="#007DA4"/>
<path d="M73.0179 304.579L58.4587 327.923L43.8906 304.579H73.0179Z" fill="#25CBFD"/>
<path d="M87.67 187.866L73.0583 211.21L58.4531 187.866H87.67Z" fill="#007DA4"/>
<path d="M103 141.4H73V163.4H103V141.4Z" fill="#474747"/>
</svg>
