<svg width="1341" height="2435" viewBox="0 0 1341 2435" fill="none" xmlns="http://www.w3.org/2000/svg">
<path d="M592.981 2342C590.568 2378.4 558.043 2418.5 550 2435H765.634C777.211 2393 783 2371.5 783 2319.5C783 2261.5 755.5 2203 742.283 2171L560.854 2218C581.115 2270.5 595.997 2296.5 592.981 2342Z" fill="#5B3308"/>
<path d="M385.731 444.679C427.5 437 494.05 415.571 529 357.924C455 373 346 341.314 291.962 285.391C387.962 300.5 576.379 288.994 674.41 0C693.946 77.1156 766.281 221.765 869 265C935.064 292.807 992.5 294 1039 285.391C1001.62 357.924 878.55 372 819.944 357.924C841.433 378.467 889.5 413.864 1000.62 413.864C994 449 944 500.5 885 516C911.639 542.706 1033.5 568 1113.5 562C1093 601.5 968.482 668.061 878.55 643.789C878.55 679.5 955.5 787.5 1199.28 841.95C1174.42 857.911 1081.54 908.32 944.614 871.817C962.196 905.634 1122.14 980.853 1199.28 980.853C1150.8 1036.79 1102 1067.5 1001.62 1098.42C1051.5 1144 1170 1175.5 1285.5 1185C1262.41 1212.02 1199.28 1306 1017.6 1289C1060.23 1327.71 1165.72 1388.08 1317.03 1407.52C1295.36 1429.01 1231.78 1475.4 1150.8 1489.06C1176.37 1517.03 1250.21 1578.09 1341 1598.57C1322 1623.85 1257.35 1676.13 1150.8 1682.95C1169.98 1724.2 1234.87 1817.11 1341 1858.83C1319.33 1874.79 1237 1893 1173.5 1874.5C1199.28 1905.5 1235 1990.2 1341 2006C1316.67 2017.22 1273.5 2031 1215 2011C1222.5 2037 1261.5 2062 1317.03 2083.07C1297 2097.5 1225.8 2143 1150.8 2121.94C1175.3 2146.44 1216 2143 1285.5 2143C1227.5 2269.5 1044 2309 920 2221C911.298 2246.92 885.5 2301 819.944 2322C809 2295.5 777.5 2249 732.5 2202.53C687.569 2236.83 569.006 2308.73 424.091 2322C446.467 2298.77 459 2242.36 459 2202.53C407.498 2242.36 229.5 2259.5 173.153 2202.53C194.286 2195.74 242.094 2170.11 264.257 2121.94C150.03 2137.49 59.3218 2101.44 27 2082C83.5 2014 119 1955 128 1921.5C97 1914 58 1916.5 0 1858.83C61 1858.83 142.5 1843 173.5 1822C125 1829.5 59.5 1822 24.5077 1803.37C103.785 1783.27 206 1700.5 256.5 1598.57C165 1627.5 79.739 1606.78 49.5483 1598.57C210.5 1556.5 259.774 1485.27 309.5 1447.5C239.6 1483.15 132.662 1489.06 49.5483 1444.97C192.865 1407.52 232.946 1326.97 288 1271.5C226 1289 200.5 1289 84.5 1256.5C281.043 1217.03 356.606 1138.24 385.731 1098.42C306.027 1105.25 207 1091.5 153.5 1050C220.5 1050 269.188 1033.99 310.5 1005.5C347.062 980.282 385.731 926.335 385.731 926.335C321.371 944.16 210.5 932 173.153 908.32C307.412 879.497 434.5 764 476 687C334.068 722.65 233.179 673.497 192.865 643.789C295.159 668.061 417.697 633.675 466.18 613.448C371.559 606.621 310.609 557.192 291.962 533.33C396.386 529.158 468.311 472.491 491.221 444.679C458.828 457.953 407.397 450.209 385.731 444.679Z" fill="#00A44D"/>
</svg>
