<svg width="1342" height="2433" viewBox="0 0 1342 2433" fill="none" xmlns="http://www.w3.org/2000/svg">
<rect x="614.746" y="2194.97" width="148.018" height="238.03" fill="#5B3308"/>
<path d="M385.743 443.596C427.514 435.936 494.066 414.559 529.017 357.052C455.015 372.092 346.011 340.484 291.971 284.696C387.975 299.769 576.398 288.29 674.432 0C693.968 76.9279 766.305 221.225 869.028 264.355C935.095 292.094 992.532 293.284 1039.03 284.696C1001.65 357.052 878.578 371.095 819.971 357.052C841.46 377.545 889.529 412.857 1000.65 412.857C994.032 447.907 944.031 499.282 885.029 514.744C911.669 541.385 1033.53 566.617 1113.54 560.632C1093.04 600.036 968.514 666.435 878.578 642.221C878.578 677.846 955.531 785.583 1199.32 839.901C1174.46 855.822 1081.57 906.109 944.645 869.695C962.227 903.429 1122.17 978.466 1199.32 978.466C1150.84 1034.27 1102.04 1064.9 1001.65 1095.75C1051.53 1141.22 1170.04 1172.64 1285.54 1182.12C1262.45 1209.07 1199.32 1302.82 1017.64 1285.86C1060.26 1324.48 1165.75 1384.7 1317.07 1404.09C1295.4 1425.53 1231.82 1471.81 1150.84 1485.43C1176.41 1513.33 1250.26 1574.25 1341.04 1594.68C1322.04 1619.9 1257.4 1672.05 1150.84 1678.86C1170.02 1720 1234.91 1812.69 1341.04 1854.31C1319.38 1870.23 1237.04 1888.39 1173.54 1869.94C1199.32 1900.86 1235.04 1985.36 1341.04 2001.12C1316.71 2012.31 1273.54 2026.06 1215.04 2006.1C1222.54 2032.04 1261.54 2056.98 1317.07 2078C1297.04 2092.39 1225.84 2137.78 1150.84 2116.78C1175.34 2141.22 1216.04 2137.78 1285.54 2137.78C1227.54 2263.98 1044.03 2303.38 920.03 2215.59C911.328 2241.45 885.529 2295.4 819.971 2316.35C809.026 2289.91 777.525 2243.53 732.524 2197.17C687.591 2231.38 569.025 2303.11 424.104 2316.35C446.482 2293.18 459.015 2236.9 459.015 2197.17C407.511 2236.9 229.507 2254 173.158 2197.17C194.292 2190.39 242.102 2164.83 264.266 2116.78C150.035 2132.29 59.3237 2096.32 27.0009 2076.93C83.5027 2009.1 119.004 1950.24 128.004 1916.82C97.0032 1909.34 58.0019 1911.83 0 1854.31C61.002 1854.31 142.505 1838.51 173.506 1817.57C125.004 1825.05 59.5019 1817.57 24.5085 1798.98C103.788 1778.93 206.007 1696.36 256.508 1594.68C165.005 1623.54 79.7416 1602.87 49.5499 1594.68C210.507 1552.71 259.783 1481.65 309.51 1443.98C239.607 1479.54 132.666 1485.43 49.5499 1441.45C192.872 1404.09 232.954 1323.74 288.009 1268.41C226.007 1285.86 200.507 1285.86 84.5027 1253.44C281.052 1214.07 356.617 1135.47 385.743 1095.75C306.037 1102.56 207.007 1088.84 153.505 1047.44C220.507 1047.44 269.197 1031.48 310.51 1003.05C347.073 977.896 385.743 924.08 385.743 924.08C321.382 941.862 210.507 929.731 173.158 906.109C307.422 877.356 434.514 762.14 476.016 685.328C334.079 720.891 233.186 671.858 192.872 642.221C295.168 666.435 417.711 632.133 466.195 611.955C371.571 605.145 310.619 555.835 291.971 532.032C396.399 527.87 468.326 471.341 491.237 443.596C458.843 456.838 407.41 449.114 385.743 443.596Z" fill="#00A44D"/>
</svg>
