<svg width="1219" height="666" viewBox="0 0 1219 666" fill="none" xmlns="http://www.w3.org/2000/svg">
<path d="M208 119L2 451H148L283.5 235.5L401.5 429.5L394 490L577 429.5L623 356H713L742 404.5L890.5 404L995 237L1055.5 331L1114 237.5L1099 213.5H1216.5L1143 96.5L1157 71.5L1114.5 1L1072 71.5H1039L995 1L952.5 71.5L966.5 96.5H283.5L267 119H208Z" fill="#FF6527"/>
<path d="M504 547L623 356.5H593.5L579 333H549.5L458.5 474L504 547Z" fill="#E3E3E3"/>
<path d="M74.5 569.5L0 451.05L148.5 451L74.5 569.5Z" fill="#E3E3E3"/>
<path d="M801.82 665.14V532.017" stroke="#E3E3E3" stroke-width="3"/>
<path d="M859.376 665.174L844.412 641.346L829.523 665.266L859.376 665.174Z" fill="#CEC296"/>
<path d="M844.411 641.359L829.527 665.265L814.652 641.348L844.411 641.359Z" fill="#E3E3E3"/>
<path d="M829.811 665.189L814.921 641.378L800.402 665.189H829.811Z" fill="#CEC296"/>
<path d="M445.339 166.49L430.511 190.301L415.613 166.49H445.339Z" fill="#FF6527"/>
<path d="M579.243 190.301L564.35 166.49L549.516 190.301H579.243Z" fill="#A33001"/>
<path d="M460.232 190.301L445.339 166.49L430.504 190.301H460.232Z" fill="#FF6527"/>
<path d="M608.9 190.314L594.081 166.494L579.246 190.305L608.9 190.314Z" fill="#A33001"/>
<path d="M668.443 190.314L653.624 166.494L638.789 190.305L668.443 190.314Z" fill="#A33001"/>
<path d="M549.43 190.315L534.554 166.7L519.68 190.315H549.43Z" fill="#A33001"/>
<path d="M608.901 142.678L594.011 118.867L579.176 142.678H608.901Z" fill="#A33001"/>
<path d="M638.701 190.316L623.804 166.485L608.902 190.316H638.701Z" fill="#A33001"/>
<path d="M623.808 166.49L608.917 142.68L594.082 166.49H623.808Z" fill="#A33001"/>
<path d="M698.245 285.557L683.354 261.744L668.52 285.557H698.245Z" fill="#A33001"/>
<path d="M728.065 285.557L713.175 261.744L698.34 285.557H728.065Z" fill="#A33001"/>
<path d="M594.097 166.479L579.204 190.292L564.309 166.479H594.097Z" fill="#FF6527"/>
<path d="M623.807 166.485L608.905 190.314L594.07 166.492L623.807 166.485Z" fill="#FF6527"/>
<path d="M653.6 166.485L638.7 190.314L623.863 166.492L653.6 166.485Z" fill="#FF6527"/>
<path d="M534.717 166.493L519.689 190.314L504.852 166.492L534.717 166.493Z" fill="#FF6527"/>
<path d="M623.802 214.125L608.905 190.314L593.977 214.13L623.802 214.125Z" fill="#A33001"/>
<path d="M683.341 214.125L668.444 190.314L653.516 214.13L683.341 214.125Z" fill="#A33001"/>
<path d="M564.322 214.125L549.425 190.314L534.496 214.13L564.322 214.125Z" fill="#A33001"/>
<path d="M579.535 142.84L565.004 119L550.004 143L579.535 142.84Z" fill="#A33001"/>
<path d="M594.088 214.125L579.19 190.314L564.262 214.13L594.088 214.125Z" fill="#A33001"/>
<path d="M475.068 214.125L460.171 190.314L445.242 214.13L475.068 214.125Z" fill="#FF6527"/>
<path d="M653.627 214.125L638.729 190.314L623.801 214.13L653.627 214.125Z" fill="#A33001"/>
<path d="M594.67 119.842L579.604 95.5L564.504 119.2L594.67 119.842Z" fill="#A33001"/>
<path d="M564.592 166.723L550 143L534.555 166.723H564.592Z" fill="#A33001"/>
<path d="M623.771 214.13L608.891 237.95L593.98 214.13H623.771Z" fill="#FF6527"/>
<path d="M638.693 190.314L623.8 214.125L608.902 190.314H638.693Z" fill="#FF6527"/>
<path d="M608.917 142.68L594.085 166.49L579.188 142.68H608.917Z" fill="#FF6527"/>
<path d="M608.902 190.315L593.978 214.13L579.172 190.311L608.902 190.315Z" fill="#FF6527"/>
<path d="M668.445 190.315L653.521 214.13L638.715 190.311L668.445 190.315Z" fill="#FF6527"/>
<path d="M549.425 190.315L534.501 214.13L519.695 190.311L549.425 190.315Z" fill="#FF6527"/>
<path d="M608.919 237.956L593.955 214.127L579.066 238.047L608.919 237.956Z" fill="#A33001"/>
<path d="M608.892 237.949L594.042 261.599L579.066 238.047L608.892 237.949Z" fill="#FF6527"/>
<path d="M609.025 285.566L594.041 261.6L579.137 285.502L609.025 285.566Z" fill="#A33001"/>
<path d="M608.954 285.494L594.076 309.332L579.137 285.503L608.954 285.494Z" fill="#FF6527"/>
<path d="M668.468 237.936L653.577 261.746L638.68 237.936H668.468Z" fill="#FF6527"/>
<path d="M579.068 238.047L564.273 214.125L549.43 237.942L579.068 238.047Z" fill="#A33001"/>
<path d="M579.065 238.047L564.219 261.715L549.391 237.906L579.065 238.047Z" fill="#FF6527"/>
<path d="M593.954 214.141L579.07 238.048L564.195 214.13L593.954 214.141Z" fill="#FF6527"/>
<path d="M564.315 214.129L549.438 237.949L534.527 214.129H564.315Z" fill="#FF6527"/>
<path d="M579.522 142.846L564.645 166.665L550 143L579.522 142.846Z" fill="#FF6527"/>
<path d="M564.476 166.738L549.592 190.645L534.582 166.739L564.476 166.738Z" fill="#FF6527"/>
<path d="M474.857 214.141L459.973 238.048L445.098 214.13L474.857 214.141Z" fill="#FF6527"/>
<path d="M653.557 214.125L638.716 237.936L623.77 214.125H653.557Z" fill="#FF6527"/>
<path d="M638.719 237.94L623.768 214.098L608.891 237.935L638.719 237.94Z" fill="#A33001"/>
<path d="M698.301 237.94L683.35 214.098L668.473 237.935L698.301 237.94Z" fill="#A33001"/>
<path d="M683.341 214.125L668.448 237.936L653.551 214.125H683.341Z" fill="#FF6527"/>
<path d="M668.447 237.94L653.554 214.129L638.699 237.935L668.447 237.94Z" fill="#A33001"/>
<path d="M638.714 237.936L623.788 261.746L608.891 237.936H638.714Z" fill="#FF6527"/>
<path d="M698.296 237.936L683.37 261.746L668.473 237.936H698.296Z" fill="#FF6527"/>
<path d="M683.362 261.744L668.472 285.557L653.574 261.744H683.362Z" fill="#FF6527"/>
<path d="M713.13 261.744L698.237 285.557L683.34 261.744H713.13Z" fill="#FF6527"/>
<path d="M742.939 261.744L728.046 285.557L713.148 261.744H742.939Z" fill="#FF6527"/>
<path d="M668.687 333.143L653.698 309.328L638.863 333.139L668.687 333.143Z" fill="#A33001"/>
<path d="M623.761 261.582L608.958 237.78L594.031 261.609L623.761 261.582Z" fill="#A33001"/>
<path d="M683.343 261.582L668.54 237.78L653.613 261.609L683.343 261.582Z" fill="#A33001"/>
<path d="M594.076 309.329L579.138 285.505L564.234 309.353L594.076 309.329Z" fill="#A33001"/>
<path d="M594.072 309.328L579.101 333.17L564.148 309.304L594.072 309.328Z" fill="#FF6527"/>
<path d="M430.587 190.338L416.011 214.149L401.176 190.338H430.587Z" fill="#FF6527"/>
<path d="M608.967 333.139L594.076 309.328L579.105 333.17L608.967 333.139Z" fill="#A33001"/>
<path d="M713.37 309.326L698.549 333.264L683.328 309.311L713.37 309.326Z" fill="#FF6527"/>
<path d="M698.546 333.264L683.335 309.312L668.391 333.128L698.546 333.264Z" fill="#A33001"/>
<path d="M638.735 285.495L623.843 309.306L608.945 285.495H638.735Z" fill="#FF6527"/>
<path d="M623.866 309.33L608.967 333.139L594.078 309.33H623.866Z" fill="#FF6527"/>
<path d="M653.653 309.33L638.752 333.139L623.863 309.33H653.653Z" fill="#FF6527"/>
<path d="M683.442 309.33L668.541 333.139L653.652 309.33H683.442Z" fill="#FF6527"/>
<path d="M623.85 309.329L608.942 285.494L594.094 309.323L623.85 309.329Z" fill="#A33001"/>
<path d="M653.641 309.311L638.748 285.5L623.824 309.326L653.641 309.311Z" fill="#A33001"/>
<path d="M683.43 309.311L668.537 285.5L653.613 309.326L683.43 309.311Z" fill="#A33001"/>
<path d="M713.243 309.311L698.35 285.5L683.426 309.326L713.243 309.311Z" fill="#A33001"/>
<path d="M668.487 285.5L653.597 309.311L638.699 285.5H668.487Z" fill="#FF6527"/>
<path d="M698.261 285.5L683.37 309.311L668.473 285.5H698.261Z" fill="#FF6527"/>
<path d="M728.073 285.5L713.182 309.311L698.285 285.5H728.073Z" fill="#FF6527"/>
<path d="M638.757 333.143L623.864 309.33L608.859 333.143H638.757Z" fill="#A33001"/>
<path d="M653.606 261.731L638.713 237.92L623.789 261.746L653.606 261.731Z" fill="#A33001"/>
<path d="M713.184 261.731L698.291 237.92L683.367 261.746L713.184 261.731Z" fill="#A33001"/>
<path d="M445.49 214.176L430.599 190.365L415.805 213.868L445.49 214.176Z" fill="#FF6527"/>
<path d="M668.556 285.566L653.572 261.6L638.668 285.502L668.556 285.566Z" fill="#A33001"/>
<path d="M638.737 285.494L623.804 261.652L608.949 285.492L638.737 285.494Z" fill="#A33001"/>
<path d="M653.577 261.6L638.667 285.506L623.754 261.716L653.577 261.6Z" fill="#FF6527"/>
<path d="M623.823 261.6L608.932 285.444L594.035 261.6H623.823Z" fill="#FF6527"/>
<path d="M579.104 333.169L564.214 309.358L549.379 333.169H579.104Z" fill="#A33001"/>
<path d="M445.394 214.16L430.843 237.971L415.945 214.16H445.394Z" fill="#FF6527"/>
<path d="M415.75 166.527L401.198 190.338L386.301 166.527H415.75Z" fill="#FF6527"/>
<path d="M460.257 237.971L445.366 214.16L430.848 237.971H460.257Z" fill="#FF6527"/>
<path d="M430.608 190.338L415.718 166.527L401.199 190.338H430.608Z" fill="#FF6527"/>
<path d="M579.176 190.311L564.272 214.121L549.375 190.311H579.176Z" fill="#FF6527"/>
<path d="M460.157 190.311L445.253 214.121L430.355 190.311H460.157Z" fill="#FF6527"/>
<path d="M608.909 95.0781L594.018 118.889L579.504 95.2L608.909 95.0781Z" fill="#FF6527"/>
<path d="M594.083 166.49L579.19 142.68L564.355 166.49H594.083Z" fill="#A33001"/>
<path d="M624 119L608.905 142.683L594.008 118.872L624 119Z" fill="#FF6527"/>
<path d="M594.19 118.872L579.299 142.683L565 119.2L594.19 118.872Z" fill="#FF6527"/>
<path d="M624 119L608.839 95.0723L594.004 118.883L624 119Z" fill="#A33001"/>
<path d="M415.315 166.49L400.487 190.301L385.59 166.49H415.315Z" fill="#FF6527"/>
<path d="M296.3 166.49L281.472 190.301L266.574 166.49H296.3Z" fill="#FF6527"/>
<path d="M430.2 190.301L415.308 166.49L400.473 190.301H430.2Z" fill="#A33001"/>
<path d="M311.185 190.301L296.292 166.49L281.457 190.301H311.185Z" fill="#A33001"/>
<path d="M459.853 190.314L445.034 166.494L430.199 190.305L459.853 190.314Z" fill="#A33001"/>
<path d="M340.838 190.314L326 166.5L311.184 190.305L340.838 190.314Z" fill="#A33001"/>
<path d="M519.715 190.305L505.004 166.5L489.746 190.305H519.715Z" fill="#A33001"/>
<path d="M400.385 190.314L385.565 166.494L370.73 190.305L400.385 190.314Z" fill="#A33001"/>
<path d="M459.858 142.678L444.968 118.867L430.133 142.678H459.858Z" fill="#FF6527"/>
<path d="M489.658 190.316L474.804 166.485L459.859 190.316H489.658Z" fill="#A33001"/>
<path d="M370.639 190.316L355.742 166.485L340.84 190.316H370.639Z" fill="#A33001"/>
<path d="M474.761 166.49L459.87 142.68L445.035 166.49H474.761Z" fill="#FF6527"/>
<path d="M549.21 285.557L534.319 261.744L519.484 285.557H549.21Z" fill="#A33001"/>
<path d="M579.018 285.557L564.128 261.744L549.293 285.557H579.018Z" fill="#A33001"/>
<path d="M445.054 166.479L430.161 190.292L415.266 166.479H445.054Z" fill="#FF6527"/>
<path d="M326.038 166.479L311.145 190.292L296.25 166.479H326.038Z" fill="#FF6527"/>
<path d="M474.805 166.491L459.858 190.313L445.023 166.491L474.805 166.491Z" fill="#FF6527"/>
<path d="M355.741 166.485L340.839 190.314L326.004 166.492L355.741 166.485Z" fill="#FF6527"/>
<path d="M505.176 166.485L489.654 190.314L474.797 166.485H505.176Z" fill="#FF6527"/>
<path d="M385.541 166.485L370.642 190.314L355.805 166.492L385.541 166.485Z" fill="#FF6527"/>
<path d="M474.755 214.125L459.858 190.314L444.93 214.13L474.755 214.125Z" fill="#A33001"/>
<path d="M355.74 214.125L340.843 190.314L325.914 214.13L355.74 214.125Z" fill="#A33001"/>
<path d="M534.295 214.125L519.5 190L504.469 214.13L534.295 214.125Z" fill="#A33001"/>
<path d="M415.279 214.125L400.382 190.314L385.453 214.13L415.279 214.125Z" fill="#A33001"/>
<path d="M430.49 142.84L415.593 119.029L400.664 142.844L430.49 142.84Z" fill="#FF6527"/>
<path d="M445.041 214.125L430.143 190.314L415.215 214.13L445.041 214.125Z" fill="#A33001"/>
<path d="M326.025 214.125L311.128 190.314L296.199 214.13L326.025 214.125Z" fill="#A33001"/>
<path d="M504.58 214.125L489.682 190.314L474.754 214.13L504.58 214.125Z" fill="#A33001"/>
<path d="M385.564 214.125L370.667 190.314L355.738 214.13L385.564 214.125Z" fill="#A33001"/>
<path d="M445.623 119.842L430.725 96.0312L415.797 119.846L445.623 119.842Z" fill="#FF6527"/>
<path d="M415.548 166.723L400.651 142.912L385.723 166.727L415.548 166.723Z" fill="#FF6527"/>
<path d="M474.724 214.129L459.844 237.949L444.934 214.129H474.724Z" fill="#FF6527"/>
<path d="M489.65 190.314L474.757 214.125L459.859 190.314H489.65Z" fill="#FF6527"/>
<path d="M370.63 190.314L355.737 214.125L340.84 190.314H370.63Z" fill="#FF6527"/>
<path d="M430.685 96.0312L415.792 119.842L400.895 96.0312H430.685Z" fill="#FF6527"/>
<path d="M400.614 142.912L385.722 166.723L370.824 142.912H400.614Z" fill="#FF6527"/>
<path d="M459.874 142.68L445.042 166.49L430.145 142.68H459.874Z" fill="#FF6527"/>
<path d="M459.859 190.315L444.935 214.13L430.129 190.311L459.859 190.315Z" fill="#FF6527"/>
<path d="M340.843 190.315L325.919 214.13L311.113 190.311L340.843 190.315Z" fill="#FF6527"/>
<path d="M519.675 190.311L504.474 214.13L489.668 190.311H519.675Z" fill="#FF6527"/>
<path d="M400.382 190.315L385.458 214.13L370.652 190.311L400.382 190.315Z" fill="#FF6527"/>
<path d="M460.441 96.0328L445.517 119.848L430.711 96.0283L460.441 96.0328Z" fill="#FF6527"/>
<path d="M415.589 119.03L400.665 142.845L385.859 119.025L415.589 119.03Z" fill="#FF6527"/>
<path d="M430.367 142.913L415.443 166.728L400.637 142.908L430.367 142.913Z" fill="#FF6527"/>
<path d="M459.868 237.956L444.904 214.127L430.016 238.047L459.868 237.956Z" fill="#A33001"/>
<path d="M459.841 237.949L444.991 261.599L430.016 238.047L459.841 237.949Z" fill="#FF6527"/>
<path d="M459.974 285.566L444.99 261.6L430.086 285.502L459.974 285.566Z" fill="#A33001"/>
<path d="M459.903 285.494L445.026 309.332L430.086 285.503L459.903 285.494Z" fill="#FF6527"/>
<path d="M519.421 237.936L504.53 261.746L489.633 237.936H519.421Z" fill="#FF6527"/>
<path d="M430.021 238.047L415.227 214.125L400.383 237.942L430.021 238.047Z" fill="#A33001"/>
<path d="M370.381 238.047L355.586 214.125L340.742 237.942L370.381 238.047Z" fill="#A33001"/>
<path d="M430.018 238.047L415.172 261.715L400.344 237.906L430.018 238.047Z" fill="#FF6527"/>
<path d="M370.381 238.047L355.535 261.715L340.707 237.906L370.381 238.047Z" fill="#FF6527"/>
<path d="M444.903 214.14L430.02 238.047L415.145 214.129L444.903 214.14Z" fill="#FF6527"/>
<path d="M415.268 214.129L400.391 237.949L385.48 214.129H415.268Z" fill="#FF6527"/>
<path d="M430.475 142.846L415.598 166.665L400.688 142.846H430.475Z" fill="#FF6527"/>
<path d="M355.624 214.13L340.747 237.95L325.836 214.13H355.624Z" fill="#FF6527"/>
<path d="M400.419 237.956L385.455 214.127L370.566 238.047L400.419 237.956Z" fill="#A33001"/>
<path d="M340.778 237.956L325.814 214.127L310.926 238.047L340.778 237.956Z" fill="#A33001"/>
<path d="M385.454 214.14L370.57 238.047L355.695 214.129L385.454 214.14Z" fill="#FF6527"/>
<path d="M415.431 166.739L400.547 190.645L385.672 166.728L415.431 166.739Z" fill="#FF6527"/>
<path d="M325.814 214.14L310.93 238.047L296.055 214.129L325.814 214.14Z" fill="#FF6527"/>
<path d="M445.031 261.606L430.025 238.034L415.172 261.716L445.031 261.606Z" fill="#A33001"/>
<path d="M385.387 261.606L370.38 238.034L355.527 261.716L385.387 261.606Z" fill="#A33001"/>
<path d="M400.406 237.922L385.432 261.737L370.535 237.926L400.406 237.922Z" fill="#FF6527"/>
<path d="M340.761 237.922L325.788 261.737L310.891 237.926L340.761 237.922Z" fill="#FF6527"/>
<path d="M400.325 285.552L385.432 309.362L370.535 285.552H400.325Z" fill="#FF6527"/>
<path d="M415.188 261.717L400.358 237.924L385.371 261.735L415.188 261.717Z" fill="#A33001"/>
<path d="M355.551 261.717L340.721 237.924L325.734 261.735L355.551 261.717Z" fill="#A33001"/>
<path d="M504.514 214.125L489.673 237.936L474.727 214.125H504.514Z" fill="#FF6527"/>
<path d="M489.676 237.94L474.725 214.098L459.848 237.935L489.676 237.94Z" fill="#A33001"/>
<path d="M549.258 237.94L534.307 214.098L519.43 237.935L549.258 237.94Z" fill="#A33001"/>
<path d="M534.294 214.125L519.401 237.936L504.504 214.125H534.294Z" fill="#FF6527"/>
<path d="M519.404 237.94L504.511 214.129L489.656 237.935L519.404 237.94Z" fill="#A33001"/>
<path d="M489.671 237.936L474.745 261.746L459.848 237.936H489.671Z" fill="#FF6527"/>
<path d="M549.253 237.936L534.327 261.746L519.43 237.936H549.253Z" fill="#FF6527"/>
<path d="M534.315 261.744L519.425 285.557L504.527 261.744H534.315Z" fill="#FF6527"/>
<path d="M564.087 261.744L549.194 285.557L534.297 261.744H564.087Z" fill="#FF6527"/>
<path d="M593.896 261.744L579.003 285.557L564.105 261.744H593.896Z" fill="#FF6527"/>
<path d="M519.64 333.143L504.651 309.328L489.816 333.139L519.64 333.143Z" fill="#A33001"/>
<path d="M474.718 261.582L459.915 237.78L444.988 261.609L474.718 261.582Z" fill="#A33001"/>
<path d="M534.3 261.582L519.497 237.78L504.57 261.609L534.3 261.582Z" fill="#A33001"/>
<path d="M430.108 285.553L415.175 261.711L400.32 285.553H430.108Z" fill="#A33001"/>
<path d="M400.452 285.553L385.519 261.711L370.664 285.553H400.452Z" fill="#A33001"/>
<path d="M430.107 285.552L415.214 309.361L400.316 285.55L430.107 285.552Z" fill="#FF6527"/>
<path d="M415.213 309.362L400.322 285.552L385.398 309.378L415.213 309.362Z" fill="#A33001"/>
<path d="M385.408 309.362L370.518 285.552L355.594 309.378L385.408 309.362Z" fill="#A33001"/>
<path d="M445.029 309.329L430.091 285.505L415.188 309.353L445.029 309.329Z" fill="#A33001"/>
<path d="M445.029 309.328L430.059 333.17L415.105 309.304L445.029 309.328Z" fill="#FF6527"/>
<path d="M340.993 285.438L326.417 309.248L311.582 285.438H340.993Z" fill="#FF6527"/>
<path d="M311.185 237.97L296.608 261.78L281.773 237.97H311.185Z" fill="#FF6527"/>
<path d="M281.54 190.338L266.964 214.149L252.129 190.338H281.54Z" fill="#FF6527"/>
<path d="M370.585 285.549L355.694 309.362L340.797 285.549H370.585Z" fill="#FF6527"/>
<path d="M385.47 309.357L370.604 333.168L355.707 309.357H385.47Z" fill="#FF6527"/>
<path d="M459.92 333.139L445.029 309.328L430.059 333.17L459.92 333.139Z" fill="#A33001"/>
<path d="M564.323 309.326L549.502 333.264L534.281 309.311L564.323 309.326Z" fill="#FF6527"/>
<path d="M549.5 333.264L534.288 309.312L519.344 333.128L549.5 333.264Z" fill="#A33001"/>
<path d="M489.689 285.495L474.796 309.306L459.898 285.495H489.689Z" fill="#FF6527"/>
<path d="M474.823 309.33L459.924 333.139L445.035 309.33H474.823Z" fill="#FF6527"/>
<path d="M504.607 309.33L489.705 333.139L474.816 309.33H504.607Z" fill="#FF6527"/>
<path d="M534.4 309.33L519.498 333.139L504.609 309.33H534.4Z" fill="#FF6527"/>
<path d="M474.804 309.329L459.895 285.494L445.047 309.323L474.804 309.329Z" fill="#A33001"/>
<path d="M504.594 309.313L489.701 285.502L474.777 309.328L504.594 309.313Z" fill="#A33001"/>
<path d="M534.387 309.313L519.494 285.502L504.57 309.328L534.387 309.313Z" fill="#A33001"/>
<path d="M564.196 309.313L549.303 285.502L534.379 309.328L564.196 309.313Z" fill="#A33001"/>
<path d="M519.44 285.502L504.55 309.313L489.652 285.502H519.44Z" fill="#FF6527"/>
<path d="M549.218 285.502L534.327 309.313L519.43 285.502H549.218Z" fill="#FF6527"/>
<path d="M579.026 285.502L564.136 309.313L549.238 285.502H579.026Z" fill="#FF6527"/>
<path d="M489.714 333.143L474.821 309.33L459.816 333.143H489.714Z" fill="#A33001"/>
<path d="M504.567 261.731L489.674 237.92L474.75 261.746L504.567 261.731Z" fill="#A33001"/>
<path d="M564.141 261.731L549.248 237.92L534.324 261.746L564.141 261.731Z" fill="#A33001"/>
<path d="M593.954 261.731L579.061 237.92L564.137 261.746L593.954 261.731Z" fill="#A33001"/>
<path d="M370.579 285.549L355.686 261.738L340.762 285.567L370.579 285.549Z" fill="#A33001"/>
<path d="M355.695 309.37L341.203 285.5L326.48 309.311L355.695 309.37Z" fill="#A33001"/>
<path d="M326.092 261.809L311.201 237.998L296.406 261.501L326.092 261.809Z" fill="#A33001"/>
<path d="M296.445 214.176L281.554 190.365L266.875 214.176H296.445Z" fill="#A33001"/>
<path d="M444.995 261.6L430.085 285.506L415.172 261.716L444.995 261.6Z" fill="#FF6527"/>
<path d="M519.509 285.566L504.525 261.6L489.621 285.502L519.509 285.566Z" fill="#A33001"/>
<path d="M489.694 285.494L474.761 261.652L459.906 285.492L489.694 285.494Z" fill="#A33001"/>
<path d="M504.538 261.6L489.628 285.506L474.715 261.716L504.538 261.6Z" fill="#FF6527"/>
<path d="M474.784 261.6L459.893 285.444L444.996 261.6H474.784Z" fill="#FF6527"/>
<path d="M415.184 261.72L400.323 285.553L385.414 261.72H415.184Z" fill="#FF6527"/>
<path d="M385.512 261.72L370.651 285.553L355.742 261.72H385.512Z" fill="#FF6527"/>
<path d="M355.629 261.72L340.768 285.553L325.859 261.72H355.629Z" fill="#FF6527"/>
<path d="M430.058 333.169L415.167 309.358L400.332 333.169H430.058Z" fill="#A33001"/>
<path d="M400.335 333.168L385.444 309.357L370.609 333.168H400.335Z" fill="#A33001"/>
<path d="M355.742 309.357L341.19 333.168L326.293 309.357H355.742Z" fill="#FF6527"/>
<path d="M326.164 261.626L311.612 285.437L296.715 261.626H326.164Z" fill="#FF6527"/>
<path d="M296.355 214.16L281.804 237.971L266.906 214.16H296.355Z" fill="#FF6527"/>
<path d="M266.711 166.527L252.159 190.338L237.262 166.527H266.711Z" fill="#FF6527"/>
<path d="M370.6 333.168L355.71 309.357L341.191 333.168H370.6Z" fill="#A33001"/>
<path d="M341.022 285.437L326.132 261.626L311.613 285.437H341.022Z" fill="#A33001"/>
<path d="M311.214 237.971L296.323 214.16L281.805 237.971H311.214Z" fill="#A33001"/>
<path d="M281.565 190.337L266.675 166.526L252.156 190.337H281.565Z" fill="#A33001"/>
<path d="M415.183 309.357L400.332 333.168L385.473 309.357H415.183Z" fill="#FF6527"/>
<path d="M430.129 190.311L415.225 214.121L400.328 190.311H430.129Z" fill="#FF6527"/>
<path d="M445.333 119.025L430.429 142.836L415.531 119.025H445.333Z" fill="#FF6527"/>
<path d="M311.114 190.311L296.21 214.121L281.312 190.311H311.114Z" fill="#FF6527"/>
<path d="M459.862 95.0781L444.972 118.889L430.074 95.0781H459.862Z" fill="#FF6527"/>
<path d="M445.044 166.49L430.151 142.68L415.316 166.49H445.044Z" fill="#FF6527"/>
<path d="M474.755 118.872L459.862 142.683L444.965 118.872H474.755Z" fill="#FF6527"/>
<path d="M445.147 118.872L430.257 142.683L415.359 118.872H445.147Z" fill="#FF6527"/>
<path d="M474.689 118.883L459.796 95.0723L444.961 118.883H474.689Z" fill="#FF6527"/>
<path d="M535.12 119.085L520.132 95.2695L505.297 119.08L535.12 119.085Z" fill="#A33001"/>
<path d="M535.2 119.072L520.104 142.883L505.207 119.072H535.2Z" fill="#FF6527"/>
<path d="M565.012 119.17L550.004 143L534.977 119.062L565.012 119.17Z" fill="#FF6527"/>
<path d="M460.51 95.2696L445.539 119.112L430.586 95.2451L460.51 95.2696Z" fill="#FF6527"/>
<path d="M415.811 119.109L400.921 142.92L386.086 119.109H415.811Z" fill="#FF6527"/>
<path d="M386.052 119.109L371.476 142.92L356.641 119.109H386.052Z" fill="#FF6527"/>
<path d="M400.951 95.2988L386.085 119.11L371.188 95.2988H400.951Z" fill="#FF6527"/>
<path d="M475.401 119.08L460.51 95.2695L445.539 119.111L475.401 119.08Z" fill="#A33001"/>
<path d="M579.804 95.2675L564.982 119.205L549.762 95.252L579.804 95.2675Z" fill="#FF6527"/>
<path d="M564.98 119.205L549.768 95.2539L534.824 119.069L564.98 119.205Z" fill="#A33001"/>
<path d="M490.3 95.2725L475.4 119.081L460.512 95.2725H490.3Z" fill="#FF6527"/>
<path d="M520.087 95.2725L505.185 119.081L490.297 95.2725H520.087Z" fill="#FF6527"/>
<path d="M549.88 95.2725L534.978 119.081L520.09 95.2725H549.88Z" fill="#FF6527"/>
<path d="M505.198 119.085L490.305 95.2725L475.301 119.085H505.198Z" fill="#A33001"/>
<path d="M475.401 119.08L460.483 142.92L445.586 119.107L475.401 119.08Z" fill="#FF6527"/>
<path d="M445.6 119.109L430.71 142.92L415.812 119.109H445.6Z" fill="#FF6527"/>
<path d="M460.481 142.92L445.59 119.107L430.664 142.936L460.481 142.92Z" fill="#A33001"/>
<path d="M505.198 119.087L490.307 142.898L475.41 119.087H505.198Z" fill="#FF6527"/>
<path d="M490.287 142.891L475.397 119.08L460.473 142.909L490.287 142.891Z" fill="#A33001"/>
<path d="M550.09 143.066L534.504 166.8L520.102 142.877L550.09 143.066Z" fill="#FF6527"/>
<path d="M520.107 142.882L505.214 166.695L490.316 142.882H520.107Z" fill="#FF6527"/>
<path d="M534.57 166.71L520.106 142.882L505.18 166.71H534.57Z" fill="#A33001"/>
<path d="M505.244 166.695L490.353 142.882L474.801 166.5L505.244 166.695Z" fill="#A33001"/>
<path d="M550.004 143L534.974 119.062L520.105 142.882L550.004 143Z" fill="#A33001"/>
<path d="M520.106 142.883L505.213 119.072L490.289 142.901L520.106 142.883Z" fill="#A33001"/>
<path d="M400.955 142.946L386.064 119.136L371.27 142.639L400.955 142.946Z" fill="#FF6527"/>
<path d="M430.649 142.947L415.812 119.109L400.832 142.965L430.649 142.947Z" fill="#A33001"/>
<path d="M445.538 119.111L430.647 95.2998L415.812 119.111H445.538Z" fill="#A33001"/>
<path d="M490.333 142.889L474.8 166.5L460.543 142.889H490.333Z" fill="#FF6527"/>
<path d="M460.561 142.922L445.671 166.733L430.773 142.922H460.561Z" fill="#FF6527"/>
<path d="M474.803 166.5L460.595 142.906L445.004 166.5H474.803Z" fill="#A33001"/>
<path d="M430.682 142.922L415.792 166.733L400.895 142.922H430.682Z" fill="#FF6527"/>
<path d="M445 166.5L430.72 142.906L415.5 166.8L445 166.5Z" fill="#A33001"/>
<path d="M400.921 142.92L386.204 166.791L371.227 142.574L400.921 142.92Z" fill="#FF6527"/>
<path d="M415.504 166.8L400.917 142.877L385.504 166.5L415.504 166.8Z" fill="#A33001"/>
<path d="M415.811 119.11L400.921 95.2988L386.086 119.11H415.811Z" fill="#FF6527"/>
<path d="M371.222 95.2988L356.671 119.11L341.773 95.2988H371.222Z" fill="#FF6527"/>
<path d="M386.081 119.11L371.19 95.2988L356.672 119.11H386.081Z" fill="#FF6527"/>
<path d="M430.663 95.2988L415.813 119.11L400.953 95.2988H430.663Z" fill="#FF6527"/>
<path d="M386.257 119.156L371.268 95.3408L356.434 119.152L386.257 119.156Z" fill="#A33001"/>
<path d="M386.333 119.144L371.237 142.954L356.34 119.144H386.333Z" fill="#FF6527"/>
<path d="M416.145 119.242L401.007 142.945L386.109 119.135L416.145 119.242Z" fill="#FF6527"/>
<path d="M311.643 95.3419L296.672 119.184L281.719 95.3174L311.643 95.3419Z" fill="#FF6527"/>
<path d="M266.952 119.181L252.061 142.991L237.227 119.181H266.952Z" fill="#FF6527"/>
<path d="M237.188 119.181L222.612 142.991L207.777 119.181H237.188Z" fill="#FF6527"/>
<path d="M326.537 119.152L311.647 95.3408L296.676 119.183L326.537 119.152Z" fill="#A33001"/>
<path d="M430.937 95.3398L416.115 119.278L400.895 95.3242L430.937 95.3398Z" fill="#FF6527"/>
<path d="M416.117 119.277L400.905 95.3262L385.961 119.141L416.117 119.277Z" fill="#A33001"/>
<path d="M341.436 95.3438L326.537 119.152L311.648 95.3438H341.436Z" fill="#FF6527"/>
<path d="M371.224 95.3438L356.322 119.152L341.434 95.3438H371.224Z" fill="#FF6527"/>
<path d="M401.013 95.3438L386.111 119.152L371.223 95.3438H401.013Z" fill="#FF6527"/>
<path d="M356.327 119.157L341.434 95.3438L326.43 119.157H356.327Z" fill="#A33001"/>
<path d="M326.533 119.152L311.616 142.992L296.719 119.179L326.533 119.152Z" fill="#FF6527"/>
<path d="M296.737 119.181L281.847 142.991L266.949 119.181H296.737Z" fill="#FF6527"/>
<path d="M311.618 142.992L296.727 119.179L281.801 143.007L311.618 142.992Z" fill="#A33001"/>
<path d="M356.331 119.159L341.44 142.97L326.543 119.159H356.331Z" fill="#FF6527"/>
<path d="M341.42 142.963L326.53 119.152L311.605 142.981L341.42 142.963Z" fill="#A33001"/>
<path d="M371.243 142.954L356.004 166.5L341.453 142.954H371.243Z" fill="#FF6527"/>
<path d="M385.647 166.5L371.235 142.954L356 166.5H385.647Z" fill="#A33001"/>
<path d="M356 166.5L341.487 142.954L326 166.767L356 166.5Z" fill="#A33001"/>
<path d="M401.008 143.108L386.107 119.135L371.238 142.954L401.008 143.108Z" fill="#A33001"/>
<path d="M371.239 142.954L356.346 119.144L341.422 142.972L371.239 142.954Z" fill="#A33001"/>
<path d="M252.092 143.019L237.201 119.208L222.406 142.711L252.092 143.019Z" fill="#A33001"/>
<path d="M281.782 143.018L266.945 119.181L251.965 143.036L281.782 143.018Z" fill="#A33001"/>
<path d="M296.675 119.184L281.784 95.373L266.949 119.184H296.675Z" fill="#A33001"/>
<path d="M341.466 142.961L326.004 166.8L311.676 142.961H341.466Z" fill="#FF6527"/>
<path d="M311.694 142.995L296.3 166.85L281.906 142.995H311.694Z" fill="#FF6527"/>
<path d="M326.004 166.789L311.73 142.979L296.203 166.789H326.004Z" fill="#A33001"/>
<path d="M281.819 142.995L266.929 166.806L252.031 142.995H281.819Z" fill="#FF6527"/>
<path d="M296.281 166.805L281.858 142.979L266.934 166.805H296.281Z" fill="#A33001"/>
<path d="M252.058 142.992L237.341 166.863L222.363 142.646L252.058 142.992Z" fill="#FF6527"/>
<path d="M266.905 166.846L252.05 142.95L237.34 166.863L266.905 166.846Z" fill="#A33001"/>
<path d="M816.778 95.1592L801.899 118.979L786.988 95.1592H816.778Z" fill="#FF6527"/>
<path d="M801.923 118.986L786.959 95.1572L772.07 119.077L801.923 118.986Z" fill="#A33001"/>
<path d="M801.896 118.979L787.046 142.629L772.07 119.077L801.896 118.979Z" fill="#FF6527"/>
<path d="M802 166.45L787.045 142.628L772.141 166.53L802 166.45Z" fill="#A33001"/>
<path d="M802 166.45L787.08 190.36L772.141 166.532L802 166.45Z" fill="#FF6527"/>
<path d="M772.076 119.076L757.281 95.1543L742.438 118.972L772.076 119.076Z" fill="#A33001"/>
<path d="M712.435 119.076L697.641 95.1543L682.797 118.972L712.435 119.076Z" fill="#A33001"/>
<path d="M772.073 119.076L757.227 142.744L742.398 118.936L772.073 119.076Z" fill="#FF6527"/>
<path d="M712.436 119.076L697.59 142.744L682.762 118.936L712.436 119.076Z" fill="#FF6527"/>
<path d="M786.962 95.1703L772.078 119.077L757.203 95.1592L786.962 95.1703Z" fill="#FF6527"/>
<path d="M757.319 95.1592L742.442 118.979L727.531 95.1592H757.319Z" fill="#FF6527"/>
<path d="M697.675 95.1592L682.797 118.979L667.887 95.1592H697.675Z" fill="#FF6527"/>
<path d="M742.478 118.986L727.513 95.1572L712.625 119.077L742.478 118.986Z" fill="#A33001"/>
<path d="M682.833 118.986L667.869 95.1572L652.98 119.077L682.833 118.986Z" fill="#A33001"/>
<path d="M727.505 95.1703L712.621 119.077L697.746 95.1592L727.505 95.1703Z" fill="#FF6527"/>
<path d="M667.864 95.1703L652.98 119.077L638.105 95.1592L667.864 95.1703Z" fill="#FF6527"/>
<path d="M787.086 142.637L772.079 119.064L757.227 142.746L787.086 142.637Z" fill="#A33001"/>
<path d="M727.441 142.637L712.435 119.064L697.582 142.746L727.441 142.637Z" fill="#A33001"/>
<path d="M742.456 118.951L727.483 142.766L712.586 118.956L742.456 118.951Z" fill="#FF6527"/>
<path d="M682.812 118.951L667.839 142.766L652.941 118.956L682.812 118.951Z" fill="#FF6527"/>
<path d="M742.376 166.583L727.483 190.394L712.586 166.583H742.376Z" fill="#FF6527"/>
<path d="M757.243 142.747L742.412 118.954L727.426 142.765L757.243 142.747Z" fill="#A33001"/>
<path d="M697.6 142.75L682.572 119.025L667.586 142.836L697.6 142.75Z" fill="#A33001"/>
<path d="M639.022 142.818L623.8 119L608.844 142.818H639.022Z" fill="#A33001"/>
<path d="M846.569 95.1543L831.728 118.965L816.781 95.1543H846.569Z" fill="#FF6527"/>
<path d="M831.73 118.969L816.78 95.127L801.902 118.964L831.73 118.969Z" fill="#A33001"/>
<path d="M831.726 118.965L816.8 142.776L801.902 118.965H831.726Z" fill="#FF6527"/>
<path d="M816.769 142.611L801.965 118.81L787.039 142.638L816.769 142.611Z" fill="#A33001"/>
<path d="M772.159 166.583L757.226 142.741L742.371 166.583H772.159Z" fill="#A33001"/>
<path d="M742.507 166.583L727.574 142.741L712.719 166.583H742.507Z" fill="#A33001"/>
<path d="M772.161 166.582L757.268 190.391L742.371 166.58L772.161 166.582Z" fill="#FF6527"/>
<path d="M757.268 190.394L742.377 166.583L727.453 190.409L757.268 190.394Z" fill="#A33001"/>
<path d="M727.459 190.394L712.569 166.583L697.645 190.409L727.459 190.394Z" fill="#A33001"/>
<path d="M787.084 190.359L772.146 166.535L757.242 190.384L787.084 190.359Z" fill="#A33001"/>
<path d="M787.084 190.357L772.113 214.198L757.16 190.332L787.084 190.357Z" fill="#FF6527"/>
<path d="M742.386 214.197L727.495 238.008L712.66 214.197H742.386Z" fill="#FF6527"/>
<path d="M712.63 214.197L698.054 238.008L683.219 214.197H712.63Z" fill="#FF6527"/>
<path d="M683.048 166.467L668.472 190.277L653.637 166.467H683.048Z" fill="#FF6527"/>
<path d="M653.235 119.001L638.659 142.812L623.824 119.001H653.235Z" fill="#FF6527"/>
<path d="M712.639 166.578L697.749 190.391L682.852 166.578H712.639Z" fill="#FF6527"/>
<path d="M727.529 190.387L712.663 214.197L697.766 190.387H727.529Z" fill="#FF6527"/>
<path d="M772.175 214.197L757.284 238.008L742.387 214.197H772.175Z" fill="#FF6527"/>
<path d="M712.633 166.578L697.6 142.768L682.816 166.596L712.633 166.578Z" fill="#A33001"/>
<path d="M654.255 166.578L638.705 142.8L623.809 166.578H654.255Z" fill="#A33001"/>
<path d="M727.529 238.035L712.638 214.225L697.844 237.728L727.529 238.035Z" fill="#A33001"/>
<path d="M697.955 190.305L683.064 166.494L668.5 190.305H697.955Z" fill="#A33001"/>
<path d="M668.142 142.838L653.252 119.027L638.5 143.05L668.142 142.838Z" fill="#A33001"/>
<path d="M757.223 238.035L742.386 214.197L727.406 238.053L757.223 238.035Z" fill="#A33001"/>
<path d="M787.05 142.628L772.139 166.535L757.227 142.744L787.05 142.628Z" fill="#FF6527"/>
<path d="M816.835 142.628L801.944 166.472L787.047 142.628H816.835Z" fill="#FF6527"/>
<path d="M757.235 142.75L742.373 166.583L727.465 142.75H757.235Z" fill="#FF6527"/>
<path d="M727.569 142.75L712.708 166.583L697.586 142.75H727.569Z" fill="#FF6527"/>
<path d="M697.6 142.75L682.494 166.741L667.586 142.908L697.6 142.75Z" fill="#FF6527"/>
<path d="M638.704 142.8L623.854 166.5L609.207 142.909L638.704 142.8Z" fill="#FF6527"/>
<path d="M772.112 214.199L757.222 190.389L742.387 214.199H772.112Z" fill="#A33001"/>
<path d="M757.261 238.01L742.37 261.82L727.473 238.01H757.261Z" fill="#FF6527"/>
<path d="M727.495 238.008L712.778 261.879L697.801 237.662L727.495 238.008Z" fill="#FF6527"/>
<path d="M742.346 261.86L727.491 237.965L712.781 261.878L742.346 261.86Z" fill="#A33001"/>
<path d="M742.386 214.197L727.495 190.387L712.66 214.197H742.386Z" fill="#A33001"/>
<path d="M697.793 190.387L683.241 214.197L668.344 190.387H697.793Z" fill="#FF6527"/>
<path d="M668.219 142.656L653.667 166.467L638.699 142.8L668.219 142.656Z" fill="#FF6527"/>
<path d="M638.406 95.1895L623.854 119L608.957 95.1895H638.406Z" fill="#FF6527"/>
<path d="M712.655 214.197L697.764 190.387L683.246 214.197H712.655Z" fill="#A33001"/>
<path d="M683.077 166.467L668.186 142.656L653.668 166.467H683.077Z" fill="#A33001"/>
<path d="M653.268 119L638.378 95.1895L623.859 119H653.268Z" fill="#A33001"/>
<path d="M757.237 190.387L742.387 214.197L727.527 190.387H757.237Z" fill="#FF6527"/>
<path d="M1114.07 47.6967L1099.1 23.7744L1084.21 47.6321L1114.07 47.6967Z" fill="#A33001"/>
<path d="M1114 47.624L1099.13 71.4172L1084.21 47.6329L1114 47.624Z" fill="#FF6527"/>
<path d="M1128.79 23.7576L1114 0L1099.09 23.7843L1128.79 23.7576Z" fill="#A33001"/>
<path d="M1099.13 71.4175L1084.21 47.6377L1069.32 71.442L1099.13 71.4175Z" fill="#A33001"/>
<path d="M1099.13 71.4151L1084.17 95.2128L1069.23 71.3906L1099.13 71.4151Z" fill="#FF6527"/>
<path d="M1114.01 95.1806L1099.13 71.4141L1084.18 95.2117L1114.01 95.1806Z" fill="#E3E3E3"/>
<path d="M1143.75 47.627L1128.87 71.3935L1113.99 47.627H1143.75Z" fill="#FF6527"/>
<path d="M1128.9 71.417L1114.01 95.1813L1099.14 71.417H1128.9Z" fill="#CEC296"/>
<path d="M1158.66 71.417L1143.77 95.1813L1128.89 71.417H1158.66Z" fill="#FF6527"/>
<path d="M1128.88 71.415L1113.98 47.624L1099.15 71.4083L1128.88 71.415Z" fill="#E3E3E3"/>
<path d="M1158.64 71.3993L1143.76 47.6328L1128.85 71.4149L1158.64 71.3993Z" fill="#A33001"/>
<path d="M1143.78 95.1857L1128.9 71.417L1113.91 95.1857H1143.78Z" fill="#E3E3E3"/>
<path d="M1143.75 47.6267L1128.83 23.8291L1113.99 47.6245L1143.75 47.6267Z" fill="#A33001"/>
<path d="M1128.85 23.7744L1113.98 47.5743L1099.09 23.7744H1128.85Z" fill="#FF6527"/>
<path d="M1084.18 95.2118L1069.3 71.4453L1054.48 95.2118H1084.18Z" fill="#A33001"/>
<path d="M1025 95L1009.92 71L995 94.9955L1025 95Z" fill="#E3E3E3"/>
<path d="M1069.41 71.412L1054.6 95.3054L1039.4 71.3965L1069.41 71.412Z" fill="#FF6527"/>
<path d="M1054.6 95.3051L1039.41 71.3984L1024.48 95.1694L1054.6 95.3051Z" fill="#A33001"/>
<path d="M995 48L980.002 71L965 48H995Z" fill="#FF6527"/>
<path d="M980 71L965.3 95.2L950 71H980Z" fill="#FF6527"/>
<path d="M1010 71L994.993 95L980 71H1010Z" fill="#CEC296"/>
<path d="M1039 71L1024.99 95L1010 71H1039Z" fill="#FF6527"/>
<path d="M980 71L964.97 48L950 70.9935L980 71Z" fill="#A33001"/>
<path d="M1010 70.9849L995.016 48L980 71L1010 70.9849Z" fill="#E3E3E3"/>
<path d="M1039 70.9849L1025 48L1010 71L1039 70.9849Z" fill="#A33001"/>
<path d="M1025 48L1010 71L995 48H1025Z" fill="#FF6527"/>
<path d="M995.003 95L980.059 71L965.266 95.3L995.003 95Z" fill="#E3E3E3"/>
<path d="M1010 23.9843L995.016 0L980 24L1010 23.9843Z" fill="#A33001"/>
<path d="M1025 48L1009.96 24L995 47.9352L1025 48Z" fill="#A33001"/>
<path d="M995 48L979.961 24L965 47.9978L995 48Z" fill="#A33001"/>
<path d="M1010 24L995.001 48L980 24.1164L1010 24Z" fill="#FF6527"/>
<path d="M548.806 665.188L533.842 641.359L518.953 665.279L548.806 665.188Z" fill="#CEC296"/>
<path d="M637.263 665.188L622.299 641.359L607.41 665.279L637.263 665.188Z" fill="#CEC296"/>
<path d="M533.841 641.372L518.957 665.279L504.336 641.372L533.841 641.372Z" fill="#E3E3E3"/>
<path d="M622.298 641.372L607.414 665.279L592.539 641.361L622.298 641.372Z" fill="#E3E3E3"/>
<path d="M74.4416 522.082L59.5629 545.849L44.6797 522.082H74.4416Z" fill="#CEC296"/>
<path d="M104.197 522.083L89.2784 498.285L74.4375 522.083H104.197Z" fill="#E3E3E3"/>
<path d="M74.5683 522.083L59.6495 498.285L44.8086 522.083H74.5683Z" fill="#E3E3E3"/>
<path d="M104.196 522.081L89.3168 545.846L74.4336 522.079L104.196 522.081Z" fill="#CEC296"/>
<path d="M89.3138 545.849L74.4373 522.082L59.5273 545.864L89.3138 545.849Z" fill="#E3E3E3"/>
<path d="M119.073 498.173L104.176 522.035L89.2773 498.289L119.073 498.173Z" fill="#CEC296"/>
<path d="M89.2849 498.294L74.4373 522.083L59.543 498.294H89.2849Z" fill="#CEC296"/>
<path d="M59.6443 498.294L44.7967 522.083L29.9023 498.294H59.6443Z" fill="#CEC296"/>
<path d="M89.2833 545.842L74.4469 569.608L59.6016 545.842H89.2833Z" fill="#CEC296"/>
<path d="M44.8019 474.741L29.9966 450.966L15.1758 474.732L44.8019 474.741Z" fill="#E3E3E3"/>
<path d="M29.9744 450.957L15.089 474.741L0 451.05L29.9744 450.957Z" fill="#CEC296"/>
<path d="M59.6882 498.509L44.805 474.742L29.8906 498.513L59.6882 498.509Z" fill="#E3E3E3"/>
<path d="M44.8034 474.743L29.8934 498.514L15.1016 474.738L44.8034 474.743Z" fill="#CEC296"/>
<path d="M118.668 451.055L103.789 474.821L88.9062 451.055H118.668Z" fill="#CEC296"/>
<path d="M148.424 451.054L133.505 427.257L118.664 451.054H148.424Z" fill="#A33001"/>
<path d="M118.795 451.054L103.876 427.257L89.0352 451.054H118.795Z" fill="#A33001"/>
<path d="M148.422 451.054L133.543 474.818L118.66 451.052L148.422 451.054Z" fill="#CEC296"/>
<path d="M133.544 474.821L118.668 451.055L103.758 474.837L133.544 474.821Z" fill="#E3E3E3"/>
<path d="M846.5 428L831 404L875 333.5H907L980.5 214H1009L875 429L891 452L875.5 475L891 499.5L862 546L832 500L846 475L832 452L846.5 428Z" fill="#E3E3E3"/>
<path d="M103.763 474.821L88.8865 451.055L73.9766 474.837L103.763 474.821Z" fill="#E3E3E3"/>
<path d="M59.395 450.939L44.8 474.75L30.0117 450.939H59.395Z" fill="#CEC296"/>
<path d="M88.9589 451.05L74.0824 474.819L59.1992 451.05H88.9589Z" fill="#CEC296"/>
<path d="M103.829 474.813L88.977 498.58L74.0938 474.813H103.829Z" fill="#CEC296"/>
<path d="M88.9511 451.05L74.0723 427.283L59.5 451.05H88.9511Z" fill="#A33001"/>
<path d="M30.0743 451.068L14.9099 427.283L0 451.068H30.0743Z" fill="#A33001"/>
<path d="M74.2884 474.731L59.4119 450.965L44.8008 474.731H74.2884Z" fill="#E3E3E3"/>
<path d="M163.295 427.145L148.399 451.007L133.5 427.26L163.295 427.145Z" fill="#FF6527"/>
<path d="M133.511 427.266L118.664 451.054L103.77 427.266H133.511Z" fill="#FF6527"/>
<path d="M103.873 427.266L89.0251 451.054L74.0039 427.266H103.873Z" fill="#FF6527"/>
<path d="M74.5019 427L59.5019 451L44.418 427H74.5019Z" fill="#FF6527"/>
<path d="M118.678 498.58L103.801 474.813L88.9805 498.58H118.678Z" fill="#E3E3E3"/>
<path d="M74.129 474.813L59.591 498.58L44.8047 474.75L74.129 474.813Z" fill="#CEC296"/>
<path d="M44.5829 427.172L30.0449 450.938L14.5977 427.172L44.5829 427.172Z" fill="#FF6527"/>
<path d="M88.9748 498.58L74.0983 474.813L59.5938 498.58H88.9748Z" fill="#E3E3E3"/>
<path d="M59.424 450.938L44.5475 427.172L30.043 450.938H59.424Z" fill="#A33001"/>
<path d="M133.514 474.813L118.677 498.58L103.832 474.813H133.514Z" fill="#CEC296"/>
<path d="M965.164 237.856L980.042 261.622L994.863 237.856H965.164Z" fill="#CEC296"/>
<path d="M935.538 237.842L950.343 261.617L965.164 237.851L935.538 237.842Z" fill="#FF6527"/>
<path d="M876.046 237.842L890.851 261.617L905.672 237.851L876.046 237.842Z" fill="#FF6527"/>
<path d="M994.951 237.842L1009.76 261.617L1025 237.851L994.951 237.842Z" fill="#FF6527"/>
<path d="M935.533 285.39L950.41 309.156L965.23 285.39H935.533Z" fill="#CEC296"/>
<path d="M905.76 237.84L920.644 261.627L935.531 237.84H905.76Z" fill="#FF6527"/>
<path d="M920.639 261.622L935.515 285.389L950.336 261.622H920.639Z" fill="#FF6527"/>
<path d="M846.271 142.776L861.148 166.545L875.969 142.776H846.271Z" fill="#FF6527"/>
<path d="M816.482 142.776L831.359 166.545L846.18 142.776H816.482Z" fill="#FF6527"/>
<path d="M950.322 261.633L965.201 237.864L980.082 261.633H950.322Z" fill="#E3E3E3"/>
<path d="M920.643 261.627L935.531 237.843L950.352 261.62L920.643 261.627Z" fill="#A33001"/>
<path d="M890.877 261.627L905.762 237.843L920.641 261.627H890.877Z" fill="#A33001"/>
<path d="M1009.78 261.627L1025 237.843L1039.8 261.62L1009.78 261.627Z" fill="#A33001"/>
<path d="M920.648 214.076L935.531 237.843L950.445 214.072L920.648 214.076Z" fill="#FF6527"/>
<path d="M861.159 214.076L876.043 237.843L890.957 214.072L861.159 214.076Z" fill="#FF6527"/>
<path d="M980.07 214.076L994.953 237.843L1009.87 214.072L980.07 214.076Z" fill="#CEC296"/>
<path d="M950.335 214.076L965.218 237.843L980.133 214.072L950.335 214.076Z" fill="#FF6527"/>
<path d="M890.847 214.076L905.73 237.843L920.645 214.072L890.847 214.076Z" fill="#FF6527"/>
<path d="M920.679 214.07L935.545 190.295L950.441 214.07H920.679Z" fill="#A33001"/>
<path d="M905.769 237.843L920.648 214.076L935.531 237.843H905.769Z" fill="#A33001"/>
<path d="M935.517 285.389L950.336 261.622L965.219 285.389H935.517Z" fill="#E3E3E3"/>
<path d="M935.529 237.841L950.439 214.07L965.23 237.846L935.529 237.841Z" fill="#A33001"/>
<path d="M876.048 237.841L890.958 214.07L905.75 237.846L876.048 237.841Z" fill="#A33001"/>
<path d="M994.953 237.841L1009.86 214.07L1025 237.841L994.953 237.841Z" fill="#A33001"/>
<path d="M935.516 190.288L950.466 214.072L965.34 190.197L935.516 190.288Z" fill="#FF6527"/>
<path d="M935.542 190.295L950.379 166.689L965.34 190.197L935.542 190.295Z" fill="#A33001"/>
<path d="M935.41 142.768L950.38 166.69L965.27 142.833L935.41 142.768Z" fill="#FF6527"/>
<path d="M935.481 142.84L950.344 119.047L965.27 142.831L935.481 142.84Z" fill="#A33001"/>
<path d="M876.022 190.309L890.898 166.542L905.781 190.309H876.022Z" fill="#A33001"/>
<path d="M965.339 190.198L980.119 214.076L994.949 190.303L965.339 190.198Z" fill="#FF6527"/>
<path d="M965.342 190.198L980.174 166.574L994.988 190.338L965.342 190.198Z" fill="#A33001"/>
<path d="M950.468 214.059L965.338 190.197L980.199 214.07L950.468 214.059Z" fill="#A33001"/>
<path d="M980.08 214.07L994.943 190.295L1009.84 214.07H980.08Z" fill="#A33001"/>
<path d="M890.916 214.076L905.744 190.31L920.676 214.076H890.916Z" fill="#A33001"/>
<path d="M905.743 190.305L920.68 214.103L935.543 190.309L905.743 190.305Z" fill="#FF6527"/>
<path d="M846.216 190.305L861.152 214.103L876.016 190.309L846.216 190.305Z" fill="#FF6527"/>
<path d="M861.16 214.076L876.039 190.31L890.922 214.076H861.16Z" fill="#A33001"/>
<path d="M876.042 190.304L890.921 214.07L905.762 190.308L876.042 190.304Z" fill="#FF6527"/>
<path d="M905.748 190.309L920.66 166.542L935.543 190.309H905.748Z" fill="#A33001"/>
<path d="M846.22 190.309L861.132 166.542L876.016 190.309H846.22Z" fill="#A33001"/>
<path d="M861.147 166.544L876.023 142.775L890.906 166.699L861.147 166.544Z" fill="#A33001"/>
<path d="M831.304 166.545L846.281 142.776L861.164 166.545H831.304Z" fill="#A33001"/>
<path d="M801.9 166.45L816.5 142.776L831.383 166.545L801.9 166.45Z" fill="#A33001"/>
<path d="M875.802 95.2789L890.777 119.05L905.598 95.2833L875.802 95.2789Z" fill="#FF6527"/>
<path d="M920.689 166.706L935.478 190.464L950.391 166.68L920.689 166.706Z" fill="#FF6527"/>
<path d="M861.161 166.5L875.951 190.464L890.863 166.68L861.161 166.5Z" fill="#FF6527"/>
<path d="M950.347 119.047L965.27 142.827L980.16 119.023L950.347 119.047Z" fill="#FF6527"/>
<path d="M950.347 119.049L965.303 95.2511L980.242 119.073L950.347 119.049Z" fill="#A33001"/>
<path d="M935.468 95.2833L950.344 119.05L965.301 95.2521L935.468 95.2833Z" fill="#FF6527"/>
<path d="M831.166 119.051L845.974 95.1575L861.18 119.066L831.166 119.051Z" fill="#A33001"/>
<path d="M845.97 95.1588L861.168 119.065L876.098 95.2945L845.97 95.1588Z" fill="#FF6527"/>
<path d="M905.726 142.838L920.605 119.071L935.488 142.838H905.726Z" fill="#A33001"/>
<path d="M920.58 119.047L935.466 95.2826L950.34 119.047H920.58Z" fill="#A33001"/>
<path d="M890.824 119.047L905.712 95.2826L920.586 119.047H890.824Z" fill="#A33001"/>
<path d="M861.058 119.047L875.946 95.2826L890.82 119.047H861.058Z" fill="#A33001"/>
<path d="M920.596 119.049L935.49 142.84L950.324 119.056L920.596 119.049Z" fill="#FF6527"/>
<path d="M890.836 119.065L905.715 142.831L920.625 119.049L890.836 119.065Z" fill="#FF6527"/>
<path d="M861.075 119.065L875.953 142.831L890.863 119.049L861.075 119.065Z" fill="#FF6527"/>
<path d="M831.289 119.065L846.168 142.831L861.078 119.049L831.289 119.065Z" fill="#FF6527"/>
<path d="M876.002 142.831L890.879 119.065L905.762 142.831H876.002Z" fill="#A33001"/>
<path d="M846.256 142.831L861.132 119.065L876.016 142.831H846.256Z" fill="#A33001"/>
<path d="M816.471 142.831L831.347 119.065L846.23 142.831H816.471Z" fill="#A33001"/>
<path d="M905.705 95.2782L920.584 119.047L935.574 95.2782H905.705Z" fill="#FF6527"/>
<path d="M890.868 166.558L905.746 190.324L920.656 166.542L890.868 166.558Z" fill="#FF6527"/>
<path d="M831.348 166.558L846.227 190.324L861.137 166.542L831.348 166.558Z" fill="#FF6527"/>
<path d="M875.933 142.768L890.903 166.69L905.793 142.833L875.933 142.768Z" fill="#FF6527"/>
<path d="M905.721 142.838L920.64 166.636L935.48 142.84L905.721 142.838Z" fill="#FF6527"/>
<path d="M890.896 166.69L905.793 142.828L920.691 166.575L890.896 166.69Z" fill="#A33001"/>
<path d="M920.623 166.69L935.5 142.891L950.383 166.69H920.623Z" fill="#A33001"/>
<path d="M965.303 95.253L980.179 119.02L995 95.253H965.303Z" fill="#FF6527"/>
<path d="M965.235 237.846L980.125 214.079L995.008 237.846H965.235Z" fill="#E3E3E3"/>
<path d="M950.336 261.622L965.214 285.389L980.035 261.622H950.336Z" fill="#CEC296"/>
<path d="M920.6 309L935.527 285.385L950.41 309.151L920.6 309Z" fill="#E3E3E3"/>
<path d="M920.5 309L935.593 332.908L950.414 309.142L920.5 309Z" fill="#CEC296"/>
<path d="M237.54 261.622L252.355 237.856L267.191 261.622H237.54Z" fill="#A33001"/>
<path d="M222.668 237.856L237.546 261.622L252.367 237.856H222.668Z" fill="#FF6527"/>
<path d="M1084.44 237.842L1099.24 261.617L1114.06 237.851L1084.44 237.842Z" fill="#FF6527"/>
<path d="M193.038 237.842L208.3 261.15L222.664 237.851L193.038 237.842Z" fill="#FF6527"/>
<path d="M1024.95 237.842L1039.75 261.617L1054.57 237.851L1024.95 237.842Z" fill="#FF6527"/>
<path d="M1054.66 237.84L1069.55 261.627L1084.43 237.84H1054.66Z" fill="#FF6527"/>
<path d="M995.17 142.776L1010.05 166.545L1024.87 142.776H995.17Z" fill="#FF6527"/>
<path d="M965.392 142.776L980.269 166.545L995.09 142.776H965.392Z" fill="#FF6527"/>
<path d="M208.304 261.1L222.709 237.864L237.59 261.633L208.304 261.1Z" fill="#A33001"/>
<path d="M1069.55 261.627L1084.44 237.843L1099.26 261.62L1069.55 261.627Z" fill="#A33001"/>
<path d="M1039.78 261.627L1054.67 237.843L1069.49 261.62L1039.78 261.627Z" fill="#E3E3E3"/>
<path d="M1069.55 214.076L1084.43 237.843L1099.35 214.072L1069.55 214.076Z" fill="#FF6527"/>
<path d="M1009.86 214.072L1024.94 237.843L1039.86 214.072H1009.86Z" fill="#FF6527"/>
<path d="M207.847 214.076L222.73 237.843L237.645 214.072L207.847 214.076Z" fill="#FF6527"/>
<path d="M1039.75 214.076L1054.64 237.843L1069.55 214.072L1039.75 214.076Z" fill="#FF6527"/>
<path d="M1069.58 214.07L1084.45 190.295L1099.34 214.07H1069.58Z" fill="#A33001"/>
<path d="M1054.67 237.843L1069.55 214.076L1084.43 237.843H1054.67Z" fill="#A33001"/>
<path d="M1084.43 237.841L1099.34 214.07L1114.14 237.846L1084.43 237.841Z" fill="#A33001"/>
<path d="M193.04 237.841L207.95 214.07L222.742 237.846L193.04 237.841Z" fill="#A33001"/>
<path d="M1024.95 237.841L1039.86 214.07L1054.65 237.846L1024.95 237.841Z" fill="#A33001"/>
<path d="M1084.42 190.288L1099.37 214.072L1114.25 190.197L1084.42 190.288Z" fill="#FF6527"/>
<path d="M1084.45 190.295L1099.28 166.689L1114.25 190.197L1084.45 190.295Z" fill="#A33001"/>
<path d="M1084.32 142.768L1099.29 166.69L1114.18 142.833L1084.32 142.768Z" fill="#FF6527"/>
<path d="M1084.39 142.84L1099.25 119.047L1114.18 142.831L1084.39 142.84Z" fill="#A33001"/>
<path d="M1024.93 190.309L1039.8 166.542L1054.69 190.309H1024.93Z" fill="#A33001"/>
<path d="M1114.24 190.198L1129.02 214.076L1143.85 190.303L1114.24 190.198Z" fill="#FF6527"/>
<path d="M1173.83 190.198L1188.61 214.076L1203.44 190.303L1173.83 190.198Z" fill="#FF6527"/>
<path d="M1114.24 190.198L1129.08 166.574L1143.89 190.338L1114.24 190.198Z" fill="#A33001"/>
<path d="M1173.82 190.198L1188.65 166.574L1203.47 190.338L1173.82 190.198Z" fill="#A33001"/>
<path d="M1099.37 214.059L1114.24 190.197L1129.11 214.07L1099.37 214.059Z" fill="#A33001"/>
<path d="M1128.98 214.07L1143.85 190.295L1158.74 214.07H1128.98Z" fill="#A33001"/>
<path d="M1188.57 214.07L1203.43 190.295L1218.33 214.07H1188.57Z" fill="#A33001"/>
<path d="M1143.82 190.288L1158.77 214.072L1173.64 190.197L1143.82 190.288Z" fill="#FF6527"/>
<path d="M193.5 190.5L208.055 214.072L222.93 190.197L193.5 190.5Z" fill="#FF6527"/>
<path d="M1158.77 214.059L1173.64 190.197L1188.5 214.07L1158.77 214.059Z" fill="#A33001"/>
<path d="M208.058 214.059L222.928 190.197L237.789 214.07L208.058 214.059Z" fill="#A33001"/>
<path d="M1099.25 166.682L1114.24 190.21L1129.08 166.573L1099.25 166.682Z" fill="#FF6527"/>
<path d="M1158.83 166.682L1173.83 190.21L1188.66 166.573L1158.83 166.682Z" fill="#FF6527"/>
<path d="M1143.83 190.323L1158.79 166.552L1173.68 190.319L1143.83 190.323Z" fill="#A33001"/>
<path d="M193.504 190.5L207.804 166.5L222.965 190.319L193.504 190.5Z" fill="#A33001"/>
<path d="M1143.91 142.779L1158.79 119.013L1173.68 142.779H1143.91Z" fill="#A33001"/>
<path d="M1129.07 166.572L1143.88 190.32L1158.86 166.554L1129.07 166.572Z" fill="#FF6527"/>
<path d="M1039.82 214.076L1054.65 190.31L1069.58 214.076H1039.82Z" fill="#A33001"/>
<path d="M1054.65 190.305L1069.58 214.103L1084.45 190.309L1054.65 190.305Z" fill="#FF6527"/>
<path d="M995.118 190.305L1009.9 214.103L1024.92 190.309L995.118 190.305Z" fill="#FF6527"/>
<path d="M1009.8 214.076L1024.94 190.31L1039.83 214.076H1009.8Z" fill="#A33001"/>
<path d="M1024.94 190.304L1039.82 214.07L1054.66 190.308L1024.94 190.304Z" fill="#FF6527"/>
<path d="M1054.65 190.309L1069.56 166.542L1084.45 190.309H1054.65Z" fill="#A33001"/>
<path d="M995.123 190.309L1010.03 166.542L1024.92 190.309H995.123Z" fill="#A33001"/>
<path d="M1010.05 166.545L1024.93 142.776L1039.81 166.545H1010.05Z" fill="#A33001"/>
<path d="M980.304 166.545L995.183 142.776L1010.07 166.545H980.304Z" fill="black"/>
<path d="M950.523 166.545L965.402 142.776L980.285 166.545H950.523Z" fill="#A33001"/>
<path d="M1024.71 95.2789L1039.68 119.05L1054.5 95.2833L1024.71 95.2789Z" fill="#FF6527"/>
<path d="M1069.59 166.706L1084.38 190.464L1099.29 166.68L1069.59 166.706Z" fill="#FF6527"/>
<path d="M1010.06 166.706L1024.85 190.464L1039.77 166.68L1010.06 166.706Z" fill="#FF6527"/>
<path d="M1114.16 142.78L1129.08 166.577L1143.92 142.78H1114.16Z" fill="#FF6527"/>
<path d="M1143.79 142.78L1158.71 166.577L1173.55 142.78H1143.79Z" fill="#FF6527"/>
<path d="M1114.16 142.78L1129.03 119.016L1143.92 142.782L1114.16 142.78Z" fill="#A33001"/>
<path d="M1129.04 119.013L1143.92 142.779L1158.83 118.997L1129.04 119.013Z" fill="#FF6527"/>
<path d="M1099.25 119.047L1114.17 142.827L1129.06 119.023L1099.25 119.047Z" fill="#FF6527"/>
<path d="M1099.25 119.049L1114.21 95.2511L1129.15 119.073L1099.25 119.049Z" fill="#A33001"/>
<path d="M193.001 142.816L207.602 119.1L222.453 142.75L193.001 142.816Z" fill="#A33001"/>
<path d="M222.671 190.274L237.234 166.508L252.055 190.274H222.671Z" fill="#A33001"/>
<path d="M252.285 237.817L266.847 214.051L281.668 237.817H252.285Z" fill="#A33001"/>
<path d="M1084.37 95.2833L1099.25 119.05L1114.2 95.2521L1084.37 95.2833Z" fill="#FF6527"/>
<path d="M980.068 119.051L994.876 95.1575L1010.08 119.066L980.068 119.051Z" fill="#A33001"/>
<path d="M994.877 95.1588L1010.07 119.065L1025 95.2945L994.877 95.1588Z" fill="#FF6527"/>
<path d="M1054.63 142.838L1069.51 119.071L1084.39 142.838H1054.63Z" fill="#A33001"/>
<path d="M1069.49 119.047L1084.37 95.2826L1099.25 119.047H1069.49Z" fill="#A33001"/>
<path d="M1039.73 119.047L1054.61 95.2826L1069.49 119.047H1039.73Z" fill="#A33001"/>
<path d="M1009.96 119.047L1024.85 95.2826L1039.72 119.047H1009.96Z" fill="#A33001"/>
<path d="M1069.5 119.049L1084.4 142.84L1099.23 119.056L1069.5 119.049Z" fill="#FF6527"/>
<path d="M1039.74 119.064L1054.62 142.83L1069.53 119.048L1039.74 119.064Z" fill="#FF6527"/>
<path d="M1009.98 119.064L1024.86 142.83L1039.77 119.048L1009.98 119.064Z" fill="#FF6527"/>
<path d="M980.196 119.064L995.074 142.83L1009.98 119.048L980.196 119.064Z" fill="#FF6527"/>
<path d="M1024.91 142.83L1039.78 119.064L1054.67 142.83H1024.91Z" fill="#A33001"/>
<path d="M995.158 142.83L1010.03 119.064L1024.92 142.83H995.158Z" fill="#A33001"/>
<path d="M965.377 142.83L980.253 119.064L995.137 142.83H965.377Z" fill="#A33001"/>
<path d="M1054.61 95.2782L1069.49 119.047L1084.48 95.2782H1054.61Z" fill="#FF6527"/>
<path d="M1039.77 166.558L1054.65 190.324L1069.56 166.542L1039.77 166.558Z" fill="#FF6527"/>
<path d="M980.246 166.558L995.125 190.324L1010.04 166.542L980.246 166.558Z" fill="#FF6527"/>
<path d="M950.465 166.558L965.344 190.324L980.254 166.542L950.465 166.558Z" fill="#FF6527"/>
<path d="M207.654 166.5L222.657 190.246L237.438 166.787L207.654 166.5Z" fill="#FF6527"/>
<path d="M237.396 214.025L252.273 237.791L267.004 214L237.396 214.025Z" fill="#FF6527"/>
<path d="M1099.28 166.69L1114.18 142.828L1129.08 166.575L1099.28 166.69Z" fill="black"/>
<path d="M1024.84 142.768L1039.81 166.69L1054.7 142.833L1024.84 142.768Z" fill="#FF6527"/>
<path d="M1054.63 142.839L1069.55 166.637L1084.39 142.841L1054.63 142.839Z" fill="#FF6527"/>
<path d="M1039.8 166.69L1054.69 142.828L1069.59 166.575L1039.8 166.69Z" fill="#A33001"/>
<path d="M1069.53 166.69L1084.4 142.891L1099.29 166.69H1069.53Z" fill="#A33001"/>
<path d="M1129.07 166.568L1143.92 142.78L1158.81 166.568H1129.07Z" fill="#A33001"/>
<path d="M1158.71 166.568L1173.55 142.78L1188.45 166.568H1158.71Z" fill="#A33001"/>
<path d="M1114.2 95.253L1129.08 119.02L1143.9 95.253H1114.2Z" fill="#FF6527"/>
<path d="M207.7 166.662L222.4 142.7L237.5 166.8L207.7 166.662Z" fill="#A33001"/>
<path d="M237.483 213.91L252.021 190.143L267 214.1L237.483 213.91Z" fill="#A33001"/>
<path d="M193.004 142.8L207.74 166.662L222.402 142.7L193.004 142.8Z" fill="#FF6527"/>
<path d="M222.642 190.274L237.519 214.04L252.023 190.274H222.642Z" fill="#FF6527"/>
<path d="M252.26 237.819L267.136 261.586L281.641 237.819H252.26Z" fill="#FF6527"/>
<path d="M1129.07 119.021L1143.9 95.255L1158.75 119.021H1129.07Z" fill="#A33001"/>
<path d="M222.743 237.846L237.632 214.079L252.516 237.846H222.743Z" fill="#A33001"/>
<path d="M1039.76 309.16L1054.63 332.929L1069.62 309.16H1039.76Z" fill="black"/>
<path d="M1039.76 309.157L1054.63 285.391L1069.5 309.157H1039.76Z" fill="#E3E3E3"/>
<path d="M1054.64 285.398L1069.51 309.164L1084.42 285.38L1054.64 285.398Z" fill="#CEC296"/>
<path d="M1024.87 285.406L1039.74 261.638L1054.62 285.406H1024.87Z" fill="#E3E3E3"/>
<path d="M1009.8 261.638L1024.87 285.406L1039.78 261.622L1009.8 261.638Z" fill="#FF6527"/>
<path d="M1039.71 261.638L1054.58 285.406L1069.49 261.622L1039.71 261.638Z" fill="#CEC296"/>
<path d="M1024.87 285.407L1039.74 309.174L1054.64 285.39L1024.87 285.407Z" fill="#CEC296"/>
<path d="M1054.59 285.4L1069.42 261.616L1084.34 285.4H1054.59Z" fill="#E3E3E3"/>
<path d="M1069.43 261.616L1084.3 285.383L1099.2 261.601L1069.43 261.616Z" fill="#FF6527"/>
<path d="M178.002 166.767L193 142.8L207.75 166.65L178.002 166.767Z" fill="#A33001"/>
<path d="M207.3 308.7L222.207 332.64L237.164 308.842L207.3 308.7Z" fill="#FF6527"/>
<path d="M192.451 332.637L207.404 308.7L222.211 332.637H192.451Z" fill="#A33001"/>
<path d="M207.3 308.7L222.234 285.076L237.117 308.845L207.3 308.7Z" fill="#A33001"/>
<path d="M222.239 285.077L237.115 308.846L252.027 285.061L222.239 285.077Z" fill="#FF6527"/>
<path d="M192.46 285.106L207.336 308.872L222.246 285.088L192.46 285.106Z" fill="#FF6527"/>
<path d="M192.418 285.108L208.304 261L222.18 285.108H192.418Z" fill="#A33001"/>
<path d="M222.162 285.074L237.039 261.308L251.922 285.074H222.162Z" fill="#A33001"/>
<path d="M208.304 261.1L222.125 285.09L237.035 261.308L208.304 261.1Z" fill="#FF6527"/>
<path d="M237.091 261.323L251.97 285.09L267.203 261.5L237.091 261.323Z" fill="#FF6527"/>
<path d="M178 166.75L193.5 190.5L207.77 166.65L178 166.75Z" fill="#FF6527"/>
<path d="M163.002 190.767L178 166.75L193.5 190.5L163.002 190.767Z" fill="#A33001"/>
<path d="M728 333L742.717 309.045L757.613 332.82L728 333Z" fill="#A33001"/>
<path d="M742.691 309.038L757.641 332.822L772.516 308.947L742.691 309.038Z" fill="#FF6527"/>
<path d="M742.718 309.044L757.554 285.438L772.516 308.946L742.718 309.044Z" fill="#A33001"/>
<path d="M742.589 261.515L757.559 285.438L772.449 261.58L742.589 261.515Z" fill="#FF6527"/>
<path d="M742.661 261.591L757.524 237.798L772.449 261.582L742.661 261.591Z" fill="#A33001"/>
<path d="M772.515 308.946L787.295 332.824L802.125 309.051L772.515 308.946Z" fill="#FF6527"/>
<path d="M832.097 308.946L846.75 332.824L861.707 309.051L832.097 308.946Z" fill="#FF6527"/>
<path d="M772.514 308.947L787.346 285.323L802.16 309.087L772.514 308.947Z" fill="#A33001"/>
<path d="M832.096 308.947L846.864 285.323L861.742 309.087L832.096 308.947Z" fill="#A33001"/>
<path d="M757.644 332.809L772.514 308.947L787.375 332.82L757.644 332.809Z" fill="#A33001"/>
<path d="M787.252 332.82L802.115 309.045L817.012 332.82H787.252Z" fill="#A33001"/>
<path d="M846.756 332.82L861.705 309.045L876.602 332.82H846.756Z" fill="#A33001"/>
<path d="M802.086 309.038L817.036 332.822L831.91 308.947L802.086 309.038Z" fill="#FF6527"/>
<path d="M861.676 309.038L876.626 332.822L891.5 308.947L861.676 309.038Z" fill="#FF6527"/>
<path d="M817.039 332.809L831.909 308.947L846.77 332.82L817.039 332.809Z" fill="#A33001"/>
<path d="M876.629 332.809L891.498 308.947L906.359 332.82L876.629 332.809Z" fill="#A33001"/>
<path d="M757.517 285.434L772.509 308.962L787.348 285.324L757.517 285.434Z" fill="#FF6527"/>
<path d="M817.101 285.434L832.094 308.962L846.863 285.324L817.101 285.434Z" fill="#FF6527"/>
<path d="M802.103 309.072L817.062 285.301L831.945 309.068L802.103 309.072Z" fill="#A33001"/>
<path d="M861.689 309.072L876.5 285L891.531 309.068L861.689 309.072Z" fill="#A33001"/>
<path d="M802.183 261.529L817.062 237.763L831.945 261.529H802.183Z" fill="#A33001"/>
<path d="M787.332 285.32L802.149 309.068L817.121 285.302L787.332 285.32Z" fill="#FF6527"/>
<path d="M846.852 285.301L861.702 309.101L876.262 285.301H846.852Z" fill="#FF6527"/>
<path d="M905.499 285.231L920.629 308.997L935.512 285.4L905.499 285.231Z" fill="#FF6527"/>
<path d="M698 333L712.947 309L728 333H698Z" fill="#A33001"/>
<path d="M712.919 309.053L728.004 333L742.719 309.057L712.919 309.053Z" fill="#FF6527"/>
<path d="M712.923 309.059L727.836 285.292L742.719 309.059H712.923Z" fill="#A33001"/>
<path d="M727.865 285.456L742.654 309.214L757.566 285.43L727.865 285.456Z" fill="#FF6527"/>
<path d="M772.424 261.53L787.343 285.328L802.184 261.53H772.424Z" fill="#FF6527"/>
<path d="M802.053 261.53L816.972 285.328L831.812 261.53H802.053Z" fill="#FF6527"/>
<path d="M772.426 261.53L787.304 237.766L802.188 261.532L772.426 261.53Z" fill="#A33001"/>
<path d="M787.307 237.763L802.184 261.529L817.094 237.747L787.307 237.763Z" fill="#FF6527"/>
<path d="M817.085 237.763L831.961 261.529L846.871 237.747L817.085 237.763Z" fill="#FF6527"/>
<path d="M757.519 237.797L772.442 261.577L787.332 237.773L757.519 237.797Z" fill="#FF6527"/>
<path d="M757.522 237.799L772.3 214.001L787.418 237.823L757.522 237.799Z" fill="#A33001"/>
<path d="M802.174 214.003L817.05 190.236L831.871 214.003H802.174Z" fill="#A33001"/>
<path d="M831.902 214.003L846.464 190.236L861.285 214.003H831.902Z" fill="#A33001"/>
<path d="M861.43 261.645L876.019 237.878L890.84 261.645H861.43Z" fill="#A33001"/>
<path d="M891.238 309.023L905.5 285L920.621 309.023H891.238Z" fill="#A33001"/>
<path d="M831.892 261.534L846.768 237.766L861.5 261.7L831.892 261.534Z" fill="#A33001"/>
<path d="M817.015 237.77L831.867 214.003L846.75 237.77H817.015Z" fill="#A33001"/>
<path d="M772.004 214.2L787.104 190.237L802.172 214.003L772.004 214.2Z" fill="#A33001"/>
<path d="M831.898 261.533L846.87 285.3L861.449 261.65L831.898 261.533Z" fill="#FF6527"/>
<path d="M890.223 261.534L905.504 285.101L920.641 261.534H890.223Z" fill="#FF6527"/>
<path d="M817.019 190.21L831.895 213.977L846.676 190.517L817.019 190.21Z" fill="#FF6527"/>
<path d="M846.565 237.852L861.442 261.618L876.223 237.5L846.565 237.852Z" fill="#FF6527"/>
<path d="M876.348 285.23L891.224 308.996L905.5 285.23H876.348Z" fill="#FF6527"/>
<path d="M787.1 190.21L802.175 214.003L817.141 190.192L787.1 190.21Z" fill="#FF6527"/>
<path d="M757.552 285.438L772.449 261.575L787.348 285.322L757.552 285.438Z" fill="#A33001"/>
<path d="M727.799 285.438L742.675 261.638L757.559 285.438H727.799Z" fill="#A33001"/>
<path d="M787.336 285.317L802.184 261.529L817.078 285.317H787.336Z" fill="#A33001"/>
<path d="M816.974 285.317L831.822 261.529L846.887 285.317H816.974Z" fill="#A33001"/>
<path d="M846.851 285.319L861.451 261.6L876.5 285.5L846.851 285.319Z" fill="#A33001"/>
<path d="M905.486 285.161L920.601 261.6L935.52 285.4L905.486 285.161Z" fill="#A33001"/>
<path d="M772.204 214.2L787.351 237.768L802.172 214.001L772.204 214.2Z" fill="#FF6527"/>
<path d="M787.1 190.234L802 166.468L817.07 190.234H787.1Z" fill="#A33001"/>
<path d="M817.053 190.237L831.304 166.5L846.719 190.582L817.053 190.237Z" fill="#A33001"/>
<path d="M801.902 166.428L817.056 190.279L831.367 166.55L801.902 166.428Z" fill="#FF6527"/>
<path d="M802.174 214.003L817.05 237.77L831.871 214.003H802.174Z" fill="#FF6527"/>
<path d="M846.723 237.77L861.261 214.003L876.145 237.77H846.723Z" fill="#A33001"/>
<path d="M876.272 285.41L890.81 261.644L905.602 285.2L876.272 285.41Z" fill="#A33001"/>
<path d="M906.055 332.788L920.593 309.022L935.477 332.788H906.055Z" fill="#E3E3E3"/>
<path d="M831.877 214.003L846.753 237.77L861.258 214.003H831.877Z" fill="#FF6527"/>
<path d="M861.428 261.644L876.304 285.41L890.809 261.644H861.428Z" fill="#FF6527"/>
<path d="M891.213 309.022L906.089 332.788L920.594 309.022H891.213Z" fill="#FF6527"/>
<path d="M787.338 237.77L802.174 214.003L817.02 237.77H787.338Z" fill="#A33001"/>
<path d="M816.705 428.061L801.886 404.241L787.051 428.052L816.705 428.061Z" fill="#A33001"/>
<path d="M757.163 380.424L742.272 356.613L727.438 380.424H757.163Z" fill="#A33001"/>
<path d="M786.963 428.063L772.066 404.232L757.164 428.063H786.963Z" fill="#A33001"/>
<path d="M772.069 404.237L757.179 380.427L742.344 404.237H772.069Z" fill="#A33001"/>
<path d="M876.323 523.305L861 499.5L846.598 523.305H876.323Z" fill="#E3E3E3"/>
<path d="M772.069 404.232L757.167 428.061L742.332 404.239L772.069 404.232Z" fill="#FF6527"/>
<path d="M801.862 404.232L786.962 428.061L772.125 404.239L801.862 404.232Z" fill="#FF6527"/>
<path d="M831.599 451.872L816.702 428.062L801.773 451.877L831.599 451.872Z" fill="#A33001"/>
<path d="M801.888 451.872L786.991 428.062L772.062 451.877L801.888 451.872Z" fill="#A33001"/>
<path d="M742.927 357.59L728 333L713 357L742.927 357.59Z" fill="#A33001"/>
<path d="M786.954 428.062L772.061 451.872L757.164 428.062H786.954Z" fill="#FF6527"/>
<path d="M757.179 380.427L742.347 404.237L727.449 380.427H757.179Z" fill="#FF6527"/>
<path d="M816.703 428.062L801.779 451.877L786.973 428.058L816.703 428.062Z" fill="#FF6527"/>
<path d="M816.725 475.683L801.835 499.493L786.938 475.683H816.725Z" fill="#FF6527"/>
<path d="M801.819 451.872L786.978 475.683L772.031 451.872H801.819Z" fill="#FF6527"/>
<path d="M831.599 451.872L816.706 475.683L801.809 451.872H831.599Z" fill="#FF6527"/>
<path d="M816.709 475.687L801.816 451.876L786.961 475.682L816.709 475.687Z" fill="#A33001"/>
<path d="M831.62 499.492L816.729 523.305L801.832 499.492H831.62Z" fill="#FF6527"/>
<path d="M861 499.492L846.6 523.3L831.602 499.492H861Z" fill="#CEC296"/>
<path d="M891.003 499.6L876.311 523.305L861.105 499.6L891.003 499.6Z" fill="#CEC296"/>
<path d="M831.6 499.5L816.801 475.527L801.875 499.356L831.6 499.5Z" fill="#A33001"/>
<path d="M801.872 499.478L786.979 475.667L772.055 499.493L801.872 499.478Z" fill="#A33001"/>
<path d="M861.446 499.478L846.004 475.5L831.629 499.493L861.446 499.478Z" fill="#E3E3E3"/>
<path d="M816.818 523.312L801.834 499.346L786.93 523.248L816.818 523.312Z" fill="#A33001"/>
<path d="M801.843 499.346L786.932 523.252L772.02 499.462L801.843 499.346Z" fill="#FF6527"/>
<path d="M757.6 332.825L742.276 356.636L728 333L757.6 332.825Z" fill="#FF6527"/>
<path d="M772.06 356.62L757.167 380.431L742.27 356.62H772.06Z" fill="#FF6527"/>
<path d="M742.3 356.601L727.557 380.431L713 357.001L742.3 356.601Z" fill="#FF6527"/>
<path d="M771.997 356.63L757.604 332.8L742.27 356.63H771.997Z" fill="#A33001"/>
<path d="M444.558 404.237L429.729 428.048L414.832 404.237H444.558Z" fill="#FF6527"/>
<path d="M578.466 428.048L563.573 404.237L548.738 428.048H578.466Z" fill="#E3E3E3"/>
<path d="M459.446 428.048L444.554 404.237L429.719 428.048H459.446Z" fill="#A33001"/>
<path d="M489.103 428.061L474.284 404.241L459.449 428.052L489.103 428.061Z" fill="#A33001"/>
<path d="M548.642 428.061L533.823 404.241L518.988 428.052L548.642 428.061Z" fill="#E3E3E3"/>
<path d="M518.897 428.063L503.999 404.232L489.098 428.063H518.897Z" fill="#E3E3E3"/>
<path d="M474.296 404.227L459.403 428.04L444.508 404.227H474.296Z" fill="#FF6527"/>
<path d="M504.002 404.232L489.1 428.061L474.266 404.239L504.002 404.232Z" fill="#FF6527"/>
<path d="M533.799 404.232L518.9 428.061L504 404.232H533.799Z" fill="#CEC296"/>
<path d="M503.998 451.872L489.1 428.062L474.172 451.877L503.998 451.872Z" fill="#E3E3E3"/>
<path d="M563.541 451.872L548.643 428.062L533.715 451.877L563.541 451.872Z" fill="#E3E3E3"/>
<path d="M474.283 451.872L459.386 428.062L444.457 451.877L474.283 451.872Z" fill="#A33001"/>
<path d="M533.83 451.872L518.932 428.062L504.004 451.877L533.83 451.872Z" fill="#E3E3E3"/>
<path d="M518.888 428.062L503.995 451.872L489.098 428.062H518.888Z" fill="#CEC296"/>
<path d="M489.101 428.062L474.177 451.877L459.371 428.058L489.101 428.062Z" fill="#FF6527"/>
<path d="M548.644 428.062L533.72 451.877L518.914 428.058L548.644 428.062Z" fill="#CEC296"/>
<path d="M518.804 475.794L503.904 451.872L489.004 475.689L518.804 475.794Z" fill="#E3E3E3"/>
<path d="M518.851 475.653L503.797 499.462L488.969 475.653H518.851Z" fill="#CEC296"/>
<path d="M563.53 451.876L548.653 475.696L533.742 451.876H563.53Z" fill="#CEC296"/>
<path d="M503.886 451.877L489.008 475.697L474.098 451.877H503.886Z" fill="#CEC296"/>
<path d="M548.681 475.703L533.717 451.874L518.828 475.794L548.681 475.703Z" fill="#E3E3E3"/>
<path d="M489.036 475.703L474.072 451.874L459.184 475.794L489.036 475.703Z" fill="#E3E3E3"/>
<path d="M533.712 451.887L518.828 475.794L503.953 451.876L533.712 451.887Z" fill="#CEC296"/>
<path d="M563.696 404.487L548.813 428.393L533.938 404.476L563.696 404.487Z" fill="#CEC296"/>
<path d="M474.071 451.887L459.188 475.794L444.312 451.876L474.071 451.887Z" fill="#FF6527"/>
<path d="M533.693 499.463L518.804 475.781L503.793 499.463H533.693Z" fill="#E3E3E3"/>
<path d="M548.663 475.669L533.69 499.484L518.793 475.673L548.663 475.669Z" fill="#CEC296"/>
<path d="M489.019 475.669L474.046 499.484L459.148 475.673L489.019 475.669Z" fill="#CEC296"/>
<path d="M503.809 499.465L488.979 475.672L473.992 499.483L503.809 499.465Z" fill="#E3E3E3"/>
<path d="M459.442 475.718L444.5 499L430.031 475.718H459.442Z" fill="#FF6527"/>
<path d="M429.802 428.085L415.226 451.896L400.391 428.085H429.802Z" fill="#FF6527"/>
<path d="M518.84 523.295L503.947 499.484L489.023 523.313L518.84 523.295Z" fill="#E3E3E3"/>
<path d="M444.705 451.923L429.814 428.112L415.02 451.615L444.705 451.923Z" fill="#A33001"/>
<path d="M533.683 499.467L518.916 523.3L504.008 499.467H533.683Z" fill="#CEC296"/>
<path d="M503.891 499.467L489.03 523.3L474.121 499.467H503.891Z" fill="#CEC296"/>
<path d="M444.613 451.908L430.061 475.719L415.164 451.908H444.613Z" fill="#FF6527"/>
<path d="M414.969 404.201L400.417 428.012L385.52 404.201H414.969Z" fill="#FF6527"/>
<path d="M459.471 475.719L444.581 451.908L430.062 475.719H459.471Z" fill="#A33001"/>
<path d="M429.827 428.085L414.936 404.274L400.418 428.085H429.827Z" fill="#A33001"/>
<path d="M578.391 428.058L563.487 451.868L548.59 428.058H578.391Z" fill="#CEC296"/>
<path d="M593.254 404.201L578.35 428.012L563.453 404.201H593.254Z" fill="#CEC296"/>
<path d="M459.375 428.058L444.472 451.868L429.574 428.058H459.375Z" fill="#FF6527"/>
<path d="M683.382 356.831L668.393 333.016L653.559 356.826L683.382 356.831Z" fill="#A33001"/>
<path d="M623.658 356.826L608.768 333.016L593.797 356.858L623.658 356.826Z" fill="#A33001"/>
<path d="M728 333.016L713.199 357L698 333L728 333.016Z" fill="#FF6527"/>
<path d="M713.242 356.952L698.03 333.001L683.086 356.816L713.242 356.952Z" fill="#A33001"/>
<path d="M653.456 356.832L638.563 333.02L623.559 356.832H653.456Z" fill="#A33001"/>
<path d="M623.658 356.827L608.741 380.667L593.844 356.854L623.658 356.827Z" fill="#CEC296"/>
<path d="M593.862 356.857L578.972 380.668L564.074 356.857H593.862Z" fill="#CEC296"/>
<path d="M608.743 380.666L593.852 356.854L578.926 380.682L608.743 380.666Z" fill="#E3E3E3"/>
<path d="M578.911 380.695L564.074 356.857L549.094 380.713L578.911 380.695Z" fill="#E3E3E3"/>
<path d="M593.8 356.859L578.909 333.048L564.074 356.859H593.8Z" fill="#E3E3E3"/>
<path d="M608.819 380.669L593 404.5L579.031 380.669H608.819Z" fill="#CEC296"/>
<path d="M578.948 380.669L563.704 404.5L549.16 380.669H578.948Z" fill="#CEC296"/>
<path d="M593.001 404.48L578.98 380.653L563.715 404.48H593.001Z" fill="#E3E3E3"/>
<path d="M563.716 404.538L549.175 380.625L533.688 404.538H563.716Z" fill="#E3E3E3"/>
<path d="M534.515 356.903L519.526 333.088L504.691 356.899L534.515 356.903Z" fill="#A33001"/>
<path d="M534.599 356.891L519.503 380.701L504.605 356.891H534.599Z" fill="#FF6527"/>
<path d="M564.406 356.989L549.268 380.693L534.371 356.882L564.406 356.989Z" fill="#CEC296"/>
<path d="M459.904 333.089L444.934 356.931L429.98 333.064L459.904 333.089Z" fill="#FF6527"/>
<path d="M415.21 356.929L400.319 380.739L385.484 356.929H415.21Z" fill="#FF6527"/>
<path d="M385.45 356.929L370.874 380.739L356.039 356.929H385.45Z" fill="#FF6527"/>
<path d="M400.345 333.117L385.479 356.928L370.582 333.117H400.345Z" fill="#FF6527"/>
<path d="M474.795 356.899L459.904 333.088L444.934 356.93L474.795 356.899Z" fill="#A33001"/>
<path d="M579.198 333.086L564.377 357.024L549.156 333.07L579.198 333.086Z" fill="#CEC296"/>
<path d="M564.375 357.023L549.163 333.072L534.219 356.887L564.375 357.023Z" fill="#E3E3E3"/>
<path d="M489.694 333.091L474.795 356.899L459.906 333.091H489.694Z" fill="#FF6527"/>
<path d="M519.485 333.091L504.584 356.899L489.695 333.091H519.485Z" fill="#FF6527"/>
<path d="M549.275 333.091L534.373 356.899L519.484 333.091H549.275Z" fill="#FF6527"/>
<path d="M504.589 356.904L489.696 333.091L474.691 356.904H504.589Z" fill="#A33001"/>
<path d="M474.795 356.899L459.878 380.739L444.98 356.926L474.795 356.899Z" fill="#FF6527"/>
<path d="M444.995 356.929L430.104 380.739L415.207 356.929H444.995Z" fill="#FF6527"/>
<path d="M459.876 380.739L444.985 356.926L430.059 380.754L459.876 380.739Z" fill="#A33001"/>
<path d="M504.589 356.906L489.698 380.717L474.801 356.906H504.589Z" fill="#FF6527"/>
<path d="M489.686 380.71L474.795 356.899L459.871 380.728L489.686 380.71Z" fill="#A33001"/>
<path d="M549.485 380.887L533.704 404.5L519.496 380.697L549.485 380.887Z" fill="#CEC296"/>
<path d="M519.501 380.701L504 404.5L489.711 380.701H519.501Z" fill="#FF6527"/>
<path d="M533.791 404.514L519.497 380.701L504 404.514H533.791Z" fill="#E3E3E3"/>
<path d="M504 404.514L489.747 380.701L474.5 404.514H504Z" fill="#A33001"/>
<path d="M549.27 380.855L534.368 356.882L519.5 380.701L549.27 380.855Z" fill="#E3E3E3"/>
<path d="M519.497 380.701L504.604 356.891L489.68 380.719L519.497 380.701Z" fill="#A33001"/>
<path d="M400.349 380.766L385.459 356.955L370.664 380.458L400.349 380.766Z" fill="#A33001"/>
<path d="M430.043 380.766L415.206 356.929L400.227 380.784L430.043 380.766Z" fill="#A33001"/>
<path d="M444.933 356.932L430.042 333.121L415.207 356.932H444.933Z" fill="#A33001"/>
<path d="M489.728 380.707L474.5 404.5L459.938 380.707H489.728Z" fill="#FF6527"/>
<path d="M459.956 380.742L444.504 404.5L430.168 380.742H459.956Z" fill="#FF6527"/>
<path d="M474.5 404.5L459.99 380.726L444.5 404.5H474.5Z" fill="#A33001"/>
<path d="M430.081 380.742L415.19 404.553L400.293 380.742H430.081Z" fill="#FF6527"/>
<path d="M444.5 404.552L430.115 380.726L415.191 404.552H444.5Z" fill="#A33001"/>
<path d="M400.315 380.74L385.599 404.611L370.621 380.395L400.315 380.74Z" fill="#FF6527"/>
<path d="M415.167 404.593L400.312 380.697L385.602 404.611L415.167 404.593Z" fill="#A33001"/>
<path d="M415.21 356.928L400.319 333.117L385.484 356.928H415.21Z" fill="#A33001"/>
<path d="M370.617 333.117L356.065 356.928L341.168 333.117H370.617Z" fill="#FF6527"/>
<path d="M385.475 356.928L370.585 333.117L356.066 356.928H385.475Z" fill="#A33001"/>
<path d="M430.058 333.117L415.207 356.928L400.348 333.117H430.058Z" fill="#FF6527"/>
<path d="M920.338 356.825L905.543 332.902L890.699 356.72L920.338 356.825Z" fill="#E3E3E3"/>
<path d="M860.697 356.824L846.754 332.8L831.059 356.72L860.697 356.824Z" fill="#A33001"/>
<path d="M920.334 356.824L905.488 380.492L890.66 356.684L920.334 356.824Z" fill="#CEC296"/>
<path d="M860.698 356.824L846.004 380.5L831.023 356.684L860.698 356.824Z" fill="#FF6527"/>
<path d="M935.22 332.917L920.336 356.824L905.461 332.906L935.22 332.917Z" fill="#CEC296"/>
<path d="M905.8 333L890.7 356.65L876.648 332.8L905.8 333Z" fill="#CEC296"/>
<path d="M846.754 332.8L831.063 356.726L817.004 332.906L846.754 332.8Z" fill="#FF6527"/>
<path d="M890.735 356.733L876.649 332.8L860.699 356.824L890.735 356.733Z" fill="#E3E3E3"/>
<path d="M831.091 356.733L817 333L801.238 356.824L831.091 356.733Z" fill="#A33001"/>
<path d="M876.621 332.8L860.7 356.824L846.75 332.8H876.621Z" fill="#FF6527"/>
<path d="M817.004 332.8L801.244 356.824L787.301 332.8H817.004Z" fill="#FF6527"/>
<path d="M875.702 380.383L860.695 356.811L846 380.5L875.702 380.383Z" fill="#E3E3E3"/>
<path d="M890.72 356.699L875.747 380.514L860.652 356.8L890.72 356.699Z" fill="#CEC296"/>
<path d="M831.074 356.699L816.1 380.514L801.203 356.704L831.074 356.699Z" fill="#FF6527"/>
<path d="M890.638 404.33L875.745 428.141L860.848 404.33H890.638Z" fill="#CEC296"/>
<path d="M905.5 380.495L890.67 356.702L875.684 380.513L905.5 380.495Z" fill="#E3E3E3"/>
<path d="M846 380.5L831 356.5L815.844 380.583L846 380.5Z" fill="#A33001"/>
<path d="M787 380.583L771.986 356.772L757 380.583H787Z" fill="#A33001"/>
<path d="M890.768 404.33L875.835 380.488L860.98 404.33H890.768Z" fill="#E3E3E3"/>
<path d="M875.725 428.141L860.834 404.33L845.91 428.156L875.725 428.141Z" fill="#E3E3E3"/>
<path d="M890.651 451.944L875.761 475.755L860.926 451.944H890.651Z" fill="#CEC296"/>
<path d="M860.892 451.944L846.315 475.755L831.48 451.944H860.892Z" fill="#CEC296"/>
<path d="M831.264 404.214L816.733 428.025L801.898 404.214H831.264Z" fill="#FF6527"/>
<path d="M801.497 356.748L786.921 380.559L772.086 356.748H801.497Z" fill="#FF6527"/>
<path d="M860.898 404.326L846.007 428.139L831.207 404.326H860.898Z" fill="#CEC296"/>
<path d="M875.787 428.134L860.921 451.945L846.023 428.134H875.787Z" fill="#CEC296"/>
<path d="M860.892 404.325L845.999 380.515L831.191 404.325H860.892Z" fill="#E3E3E3"/>
<path d="M802.514 404.325L787.002 380.5L772.004 404.325H802.514Z" fill="#A33001"/>
<path d="M875.791 475.781L860.9 451.971L846.105 475.474L875.791 475.781Z" fill="#E3E3E3"/>
<path d="M816.406 380.585L801.515 356.774L786.848 380.585H816.406Z" fill="#A33001"/>
<path d="M905.497 380.496L890.635 404.329L875.727 380.496H905.497Z" fill="#CEC296"/>
<path d="M875.829 380.496L860.967 404.329L846.004 380.496H875.829Z" fill="#CEC296"/>
<path d="M846 380.5L831.2 404.35L816 380.4L846 380.5Z" fill="#FF6527"/>
<path d="M787 380.5L772 404.3L757.465 380.655L787 380.5Z" fill="#FF6527"/>
<path d="M875.757 475.756L861.04 499.627L846.062 475.41L875.757 475.756Z" fill="#CEC296"/>
<path d="M891 499.625L875.749 475.712L861.039 499.625H891Z" fill="#E3E3E3"/>
<path d="M890.651 451.945L875.761 428.134L860.926 451.945H890.651Z" fill="#E3E3E3"/>
<path d="M816.351 380.403L801.8 404.214L787.004 380.5L816.351 380.403Z" fill="#FF6527"/>
<path d="M787.307 332.779L772.113 356.748L757.633 332.779H787.307Z" fill="#FF6527"/>
<path d="M860.913 451.945L846.022 428.134L831.504 451.945H860.913Z" fill="#E3E3E3"/>
<path d="M831.171 404.311L816.28 380.5L801.762 404.311H831.171Z" fill="#A33001"/>
<path d="M801.526 356.748L787.3 332.8L772.117 356.748H801.526Z" fill="#A33001"/>
<path d="M385.803 499.369L400.617 475.603L415.5 499.369H385.803Z" fill="#A33001"/>
<path d="M163.57 332.398L178.004 356L193.504 332.398H163.57Z" fill="#FF6527"/>
<path d="M74.234 332.398L89.1128 356.164L103.934 332.398H74.234Z" fill="#FF6527"/>
<path d="M370.929 475.603L385.808 499.369L400.629 475.603H370.929Z" fill="#FF6527"/>
<path d="M133.948 332.384L148.753 356.159L163.574 332.393L133.948 332.384Z" fill="#FF6527"/>
<path d="M104.171 332.382L119 356L133.941 332.382H104.171Z" fill="#FF6527"/>
<path d="M148.736 356.174L163.615 332.405L178.496 356.174H148.736Z" fill="#A33001"/>
<path d="M59.3965 356.174L74.2753 332.405L89.1562 356.174H59.3965Z" fill="#A33001"/>
<path d="M118.867 356.163L133.945 332.385L148.766 356.163L118.867 356.163Z" fill="#A33001"/>
<path d="M119.058 308.617L133.941 332.384L148.855 308.613L119.058 308.617Z" fill="#FF6527"/>
<path d="M178.484 308.617L193.368 332.384L207.453 308.7L178.484 308.617Z" fill="#FF6527"/>
<path d="M89.1438 308.617L104.027 332.384L118.941 308.613L89.1438 308.617Z" fill="#FF6527"/>
<path d="M148.745 308.617L163.629 332.384L178.543 308.613L148.745 308.617Z" fill="#FF6527"/>
<path d="M119.09 308.613L133.955 284.838L148.852 308.613H119.09Z" fill="#A33001"/>
<path d="M104.179 332.384L119.058 308.617L133.941 332.384H104.179Z" fill="#A33001"/>
<path d="M133.943 332.383L148.853 308.612L163.645 332.388L133.943 332.383Z" fill="#A33001"/>
<path d="M133.934 284.831L148.884 308.615L163.758 284.74L133.934 284.831Z" fill="#FF6527"/>
<path d="M133.96 284.836L148.797 261.23L163.758 284.738L133.96 284.836Z" fill="#A33001"/>
<path d="M133.828 237.309L148.798 261.231L163.688 237.374L133.828 237.309Z" fill="#FF6527"/>
<path d="M133.899 237.382L148.762 213.589L163.688 237.373L133.899 237.382Z" fill="#A33001"/>
<path d="M163.753 284.74L178.534 308.618L193.363 284.845L163.753 284.74Z" fill="#FF6527"/>
<path d="M163.756 284.741L178.588 261.117L193.402 284.881L163.756 284.741Z" fill="#A33001"/>
<path d="M148.883 308.602L163.752 284.74L178.613 308.613L148.883 308.602Z" fill="#A33001"/>
<path d="M178.489 308.613L193.352 284.838L207.398 308.7L178.489 308.613Z" fill="#A33001"/>
<path d="M89.1543 308.613L104.017 284.838L118.914 308.613H89.1543Z" fill="#A33001"/>
<path d="M178 355.916L193.5 332.5L207.5 355.915L178 355.916Z" fill="#A33001"/>
<path d="M88.9863 355.916L103.856 332.054L119 355.916L88.9863 355.916Z" fill="#A33001"/>
<path d="M148.755 261.224L163.747 284.752L178.586 261.115L148.755 261.224Z" fill="#FF6527"/>
<path d="M178.571 261.114L193.387 284.862L208.32 261.096L178.571 261.114Z" fill="#FF6527"/>
<path d="M104.153 284.847L119.09 308.645L133.953 284.851L104.153 284.847Z" fill="#FF6527"/>
<path d="M104.158 284.851L119.07 261.084L133.953 284.851H104.158Z" fill="#A33001"/>
<path d="M119.099 261.248L133.889 285.006L148.801 261.222L119.099 261.248Z" fill="#FF6527"/>
<path d="M163.666 237.321L178.585 261.119L193.426 237.321H163.666Z" fill="#FF6527"/>
<path d="M163.668 237.322L178.546 213.558L193.43 237.324L163.668 237.322Z" fill="#A33001"/>
<path d="M178.549 213.555L193.426 237.321L208.336 213.539L178.549 213.555Z" fill="#FF6527"/>
<path d="M148.757 213.588L163.68 237.368L178.57 213.564L148.757 213.588Z" fill="#FF6527"/>
<path d="M148.757 213.592L163.713 189.794L178.652 213.616L148.757 213.592Z" fill="#A33001"/>
<path d="M400.546 475.565L415.109 451.799L429.93 475.565H400.546Z" fill="#A33001"/>
<path d="M193.502 332.5L207.502 356L222.102 332.5H193.502Z" fill="#FF6527"/>
<path d="M385.654 451.773L400.531 475.539L415.57 451.773H385.654Z" fill="#FF6527"/>
<path d="M148.791 261.231L163.687 237.369L178.586 261.116L148.791 261.231Z" fill="#A33001"/>
<path d="M119.033 261.231L133.91 237.432L148.793 261.231H119.033Z" fill="#A33001"/>
<path d="M178.578 261.11L193.426 237.322L208.32 261.11H178.578Z" fill="#A33001"/>
<path d="M163.001 190.5L178.588 213.561L193.5 190.5H163.001Z" fill="#FF6527"/>
<path d="M385.747 451.787L400.285 428.021L415.168 451.787H385.747Z" fill="#A33001"/>
<path d="M415.364 499.333L429.902 475.566L444.5 499L415.364 499.333Z" fill="#A33001"/>
<path d="M400.521 475.566L415.398 499.333L429.902 475.566H400.521Z" fill="#FF6527"/>
<path d="M178.576 213.562L193.5 190.5L208.258 213.562H178.576Z" fill="#A33001"/>
<path d="M163.645 332.388L178.535 308.621L193.418 332.388H163.645Z" fill="#A33001"/>
<path d="M74.3089 332.388L89.1988 308.621L104.082 332.388H74.3089Z" fill="#A33001"/>
<path d="M371 475.594L385.89 451.827L400.773 475.594H371Z" fill="#A33001"/>
<path d="M133.296 427.25L148.253 403.452L163.191 427.274L133.296 427.25Z" fill="#A33001"/>
<path d="M44.6059 427.25L59.5626 403.452L74.2695 427.25L44.6059 427.25Z" fill="#A33001"/>
<path d="M118.417 403.484L133.293 427.251L148.25 403.453L118.417 403.484Z" fill="#FF6527"/>
<path d="M29.7 403.484L44.6 427.251L59.5 403.484H29.7Z" fill="#FF6527"/>
<path d="M103.525 427.249L118.411 403.485L133.285 427.249H103.525Z" fill="#A33001"/>
<path d="M15.039 427.249L29.9245 403.485L44.5938 427.249H15.039Z" fill="#A33001"/>
<path d="M148.248 403.454L163.124 427.221L177.945 403.454H148.248Z" fill="#FF6527"/>
<path d="M59.6034 403.454L74.2 427.221L89.3008 403.454H59.6034Z" fill="#FF6527"/>
<path d="M118.879 403.485L133.705 379.69L148.512 403.459L118.879 403.485Z" fill="#A33001"/>
<path d="M30.0002 403.485L44.8265 379.69L59.6328 403.459L30.0002 403.485Z" fill="#A33001"/>
<path d="M148.496 403.457L163.295 379.691L178.102 403.457H148.496Z" fill="#A33001"/>
<path d="M59.6167 403.457L74.4163 379.691L89.0039 403.457H59.6167Z" fill="#A33001"/>
<path d="M133.705 379.689L148.505 403.458L163.34 379.674L133.705 379.689Z" fill="#FF6527"/>
<path d="M44.8261 379.689L59.6258 403.458L74.4609 379.674L44.8261 379.689Z" fill="#FF6527"/>
<path d="M104.082 379.719L118.882 403.485L133.715 379.701L104.082 379.719Z" fill="#FF6527"/>
<path d="M163.357 379.664L178.104 403.457L192.992 379.646L163.357 379.664Z" fill="#FF6527"/>
<path d="M74.4785 379.664L89.0039 403.5L104.113 379.646L74.4785 379.664Z" fill="#FF6527"/>
<path d="M104.032 379.721L119.004 356L133.641 379.721H104.032Z" fill="#A33001"/>
<path d="M133.624 379.688L148.424 355.921L163.23 379.688H133.624Z" fill="#A33001"/>
<path d="M44.7456 379.688L59.5452 355.921L74.3516 379.688H44.7456Z" fill="#A33001"/>
<path d="M119 355.921L133.589 379.703L148.422 355.921H119Z" fill="#FF6527"/>
<path d="M163.316 379.688L178.116 355.921L192.922 379.688H163.316Z" fill="#A33001"/>
<path d="M74.4409 379.688L89.2406 355.921L104.047 379.688H74.4409Z" fill="#A33001"/>
<path d="M148.482 355.937L163.284 379.703L178.117 355.921L148.482 355.937Z" fill="#FF6527"/>
<path d="M59.6074 355.937L74.4093 379.703L89.2422 355.921L59.6074 355.937Z" fill="#FF6527"/>
<path d="M178.139 355.882L192.903 379.733L207.523 355.865L178.139 355.882Z" fill="#FF6527"/>
<path d="M89.2628 355.882L104.027 379.733L119.105 355.882H89.2628Z" fill="#FF6527"/>
<path d="M89 403.5L103.94 379.665L118.746 403.432L89 403.5Z" fill="#A33001"/>
<path d="M74.2142 427.3L89 403.5L104.012 427.199L74.2142 427.3Z" fill="#A33001"/>
<path d="M89 403.5L104.07 427.195L119 403.424L89 403.5Z" fill="#FF6527"/>
<path d="M400.264 522.82L415.14 499.054L430.023 522.82H400.264Z" fill="#A33001"/>
<path d="M385.348 499.069L400.227 522.836L415.137 499.054L385.348 499.069Z" fill="#FF6527"/>
<path d="M415.168 499.015L430.009 522.866L444.5 499L415.168 499.015Z" fill="#FF6527"/>
<path d="M490.919 664.255L410.426 535.997" stroke="#E3E3E3" stroke-width="3"/>
<path d="M579.372 664.255L498.879 535.997" stroke="#E3E3E3" stroke-width="3"/>
<path d="M861.191 665.14V532.017" stroke="#E3E3E3" stroke-width="3"/>
<path d="M400.301 522.798L415.124 546.591L430.09 522.78L400.301 522.798Z" fill="#FF6527"/>
<path d="M816.745 523.247L801.854 547.058L786.957 523.247H816.745Z" fill="#FF6527"/>
<path d="M519.241 665.203L504.35 641.393L489.832 665.203H519.241Z" fill="#CEC296"/>
<path d="M607.698 665.203L592.807 641.393L578.289 665.203H607.698Z" fill="#CEC296"/>
<path d="M918.747 665.174L903.783 641.346L888.895 665.266L918.747 665.174Z" fill="#CEC296"/>
<path d="M903.782 641.359L888.898 665.265L874.023 641.348L903.782 641.359Z" fill="#E3E3E3"/>
<path d="M889.182 665.189L874.292 641.378L859.773 665.189H889.182Z" fill="#CEC296"/>
<path d="M876.331 523.247L861.44 547.058L846.543 523.247H876.331Z" fill="#CEC296"/>
<path d="M608.768 333.017L593.797 356.859L578.844 332.992L608.768 333.017Z" fill="#FF6527"/>
<path d="M638.561 333.02L623.662 356.828L608.773 333.02H638.561Z" fill="#FF6527"/>
<path d="M698.138 333.02L683.236 356.828L668.348 333.02H698.138Z" fill="#FF6527"/>
<path d="M668.427 333.02L653.525 356.828L638.637 333.02H668.427Z" fill="#FF6527"/>
<path d="M518.847 523.296L503.956 547.109L489.059 523.296H518.847Z" fill="#CEC296"/>
</svg>
