<svg width="450" height="184" viewBox="0 0 450 184" fill="none" xmlns="http://www.w3.org/2000/svg">
<mask id="mask0_334_15" style="mask-type:alpha" maskUnits="userSpaceOnUse" x="0" y="0" width="450" height="184">
<path d="M0 182H134L152.5 154H353L448 1.5" stroke="#4FDB15" stroke-width="3" stroke-dasharray="15 10"/>
</mask>
<g mask="url(#mask0_334_15)">
<path d="M-74.2693 -84.3214C-32.5 -92 34.0498 -113.429 69 -171.076C-5 -156 -114 -187.686 -168.038 -243.609C-72.0381 -228.5 116.379 -240.006 214.41 -529C233.946 -451.884 306.281 -307.235 409 -264C475.064 -236.193 532.5 -235 579 -243.609C541.621 -171.076 418.55 -157 359.944 -171.076C381.433 -150.533 429.5 -115.136 540.621 -115.136C534 -80 484 -28.5 425 -13C451.639 13.706 573.5 39 653.5 33C633 72.5 508.482 139.061 418.55 114.789C418.55 150.5 495.5 258.5 739.281 312.95C714.418 328.911 621.538 379.32 484.614 342.817C502.196 376.634 662.135 451.853 739.281 451.853C690.799 507.793 642 538.5 541.621 569.423C591.5 615 710 646.5 825.5 656C802.413 683.022 739.281 777 557.604 759.999C600.227 798.715 705.716 859.08 857.025 878.517C835.359 900.008 771.781 946.404 690.799 960.057C716.372 988.027 790.215 1049.09 881 1069.57C861.998 1094.85 797.354 1147.13 690.799 1153.95C709.979 1195.2 774.871 1288.11 881 1329.83C859.334 1345.79 777 1364 713.5 1345.5C739.281 1376.5 775 1461.2 881 1477C856.67 1488.22 813.5 1502 755 1482C762.5 1508 801.5 1533 857.025 1554.07C837 1568.5 765.802 1614 690.799 1592.94C715.299 1617.44 756 1614 825.5 1614C767.5 1740.5 584 1780 460 1692C451.298 1717.92 425.5 1772 359.944 1793C349 1766.5 317.5 1720 272.5 1673.53C227.569 1707.83 109.006 1779.73 -35.9094 1793C-13.5327 1769.77 -1 1713.36 -1 1673.53C-52.5018 1713.36 -230.5 1730.5 -286.847 1673.53C-265.714 1666.74 -217.906 1641.11 -195.743 1592.94C-309.97 1608.49 -400.678 1572.44 -433 1553C-376.5 1485 -341 1426 -332 1392.5C-363 1385 -402 1387.5 -460 1329.83C-399 1329.83 -317.5 1314 -286.5 1293C-335 1300.5 -400.5 1293 -435.492 1274.37C-356.215 1254.27 -254 1171.5 -203.5 1069.57C-295 1098.5 -380.261 1077.78 -410.452 1069.57C-249.5 1027.5 -200.226 956.268 -150.5 918.5C-220.4 954.15 -327.338 960.057 -410.452 915.969C-267.135 878.517 -227.054 797.966 -172 742.5C-234 759.999 -259.5 759.999 -375.5 727.5C-178.957 688.03 -103.394 609.245 -74.2693 569.423C-153.973 576.249 -253 562.5 -306.5 521C-239.5 521 -190.812 504.994 -149.5 476.5C-112.938 451.282 -74.2693 397.335 -74.2693 397.335C-138.629 415.16 -249.5 403 -286.847 379.32C-152.588 350.497 -25.5 235 16 158C-125.932 193.65 -226.821 144.497 -267.135 114.789C-164.841 139.061 -42.3027 104.675 6.18002 84.4479C-88.4412 77.6213 -149.391 28.1915 -168.038 4.32996C-63.6138 0.158138 8.31109 -56.5092 31.2205 -84.3214C-1.17234 -71.0474 -52.6031 -78.7905 -74.2693 -84.3214Z" fill="white"/>
</g>
</svg>
