<svg width="819" height="307" viewBox="0 0 819 307" fill="none" xmlns="http://www.w3.org/2000/svg">
<mask id="mask0_228_32" style="mask-type:alpha" maskUnits="userSpaceOnUse" x="0" y="0" width="819" height="307">
<path fill-rule="evenodd" clip-rule="evenodd" d="M4.49141 7.93332L0.722656 1.78332L3.28057 0.21582L7.04932 6.36582L4.49141 7.93332ZM17.0539 28.4333L9.51641 16.1333L12.0743 14.5658L19.6118 26.8658L17.0539 28.4333ZM29.6164 48.9333L22.0789 36.6333L24.6368 35.0658L32.1743 47.3658L29.6164 48.9333ZM42.1789 69.4333L34.6414 57.1333L37.1993 55.5658L44.7368 67.8658L42.1789 69.4333ZM54.7414 89.9333L47.2039 77.6333L49.7618 76.0658L57.2993 88.3658L54.7414 89.9333ZM67.3039 110.433L59.7664 98.1333L62.3243 96.5658L69.8618 108.866L67.3039 110.433ZM79.8664 130.933L72.3289 118.633L74.8868 117.066L82.4243 129.366L79.8664 130.933ZM92.4289 151.433L84.8914 139.133L87.4493 137.566L94.9868 149.866L92.4289 151.433ZM97.4539 159.633L100.012 158.066L103.342 163.5H110.452V166.5H101.662L97.4539 159.633ZM136.952 166.5H121.052V163.5H136.952V166.5ZM163.452 166.5H147.552V163.5H163.452V166.5ZM189.952 166.5H174.052V163.5H189.952V166.5ZM216.452 166.5H200.552V163.5H216.452V166.5ZM242.952 166.5H227.052V163.5H242.952V166.5ZM269.452 166.5H253.552V163.5H269.452V166.5ZM287.146 166.5H280.052V163.5H288.858L292.85 170.258L290.267 171.784L287.146 166.5ZM302.124 191.855L295.01 179.813L297.593 178.287L304.707 190.329L302.124 191.855ZM313.982 211.927L306.867 199.884L309.45 198.358L316.565 210.401L313.982 211.927ZM325.839 231.998L318.724 219.955L321.307 218.429L328.422 230.472L325.839 231.998ZM738.682 219H747.452V222H740.322L736.677 227.684L734.151 226.065L738.682 219ZM773.952 222H758.052V219H773.952V222ZM800.452 222H784.552V219H800.452V222ZM819.002 222H811.052V219H819.002V222ZM731.227 236.184L723.052 248.934L720.526 247.315L728.701 234.565L731.227 236.184ZM337.696 252.07L330.582 240.027L333.165 238.501L340.279 250.544L337.696 252.07ZM717.602 257.434L709.427 270.184L706.901 268.565L715.076 255.815L717.602 257.434ZM349.553 272.141L342.439 260.098L345.022 258.572L352.136 270.615L349.553 272.141ZM703.977 278.684L695.802 291.434L693.276 289.815L701.451 277.065L703.977 278.684ZM361.41 292.213L354.296 280.17L356.879 278.644L363.993 290.687L361.41 292.213ZM690.352 299.934L685.822 307H677.755V304H684.181L687.826 298.315L690.352 299.934ZM366.153 300.241L368.736 298.715L371.858 304H378.248V307H370.146L366.153 300.241ZM402.402 307H387.909V304H402.402V307ZM426.555 307H412.063V304H426.555V307ZM450.709 307H436.217V304H450.709V307ZM474.863 307H460.371V304H474.863V307ZM499.017 307H484.525V304H499.017V307ZM523.171 307H508.679V304H523.171V307ZM547.325 307H532.832V304H547.325V307ZM571.479 307H556.986V304H571.479V307ZM595.632 307H581.14V304H595.632V307ZM619.786 307H605.294V304H619.786V307ZM643.94 307H629.448V304H643.94V307ZM668.094 307H653.602V304H668.094V307Z" fill="#4FDB15"/>
</mask>
<g mask="url(#mask0_228_32)">
<path d="M47.7307 -701.321C89.5 -709 156.05 -730.429 191 -788.076C117 -773 8 -804.686 -46.0381 -860.609C49.9619 -845.5 238.379 -857.006 336.41 -1146C355.946 -1068.88 428.281 -924.235 531 -881C597.064 -853.193 654.5 -852 701 -860.609C663.621 -788.076 540.55 -774 481.944 -788.076C503.433 -767.533 551.5 -732.136 662.621 -732.136C656 -697 606 -645.5 547 -630C573.639 -603.294 695.5 -578 775.5 -584C755 -544.5 630.482 -477.939 540.55 -502.211C540.55 -466.5 617.5 -358.5 861.281 -304.05C836.418 -288.089 743.538 -237.68 606.614 -274.183C624.196 -240.366 784.135 -165.147 861.281 -165.147C812.799 -109.207 764 -78.5 663.621 -47.5774C713.5 -2 832 29.5 947.5 39C924.413 66.0221 861.281 160 679.604 142.999C722.227 181.715 827.716 242.08 979.025 261.517C957.359 283.008 893.781 329.404 812.799 343.057C838.372 371.027 912.215 432.088 1003 452.568C983.998 477.851 919.354 530.126 812.799 536.952C831.979 578.196 896.871 671.114 1003 712.833C981.334 728.793 899 747 835.5 728.5C861.281 759.5 897 844.202 1003 860C978.67 871.22 935.5 885 877 865C884.5 891 923.5 916 979.025 937.068C959 951.5 887.802 997 812.799 975.942C837.299 1000.44 878 997 947.5 997C889.5 1123.5 706 1163 582 1075C573.298 1100.92 547.5 1155 481.944 1176C471 1149.5 439.5 1103 394.5 1056.53C349.569 1090.83 231.006 1162.73 86.0906 1176C108.467 1152.77 121 1096.36 121 1056.53C69.4982 1096.36 -108.5 1113.5 -164.847 1056.53C-143.714 1049.74 -95.9061 1024.11 -73.7425 975.942C-187.97 991.492 -278.678 955.437 -311 936C-254.5 868 -219 809 -210 775.5C-241 768 -280 770.5 -338 712.833C-277 712.833 -195.5 697 -164.5 676C-213 683.5 -278.5 676 -313.492 657.366C-234.215 637.266 -132 554.5 -81.5 452.568C-173 481.5 -258.261 460.785 -288.452 452.568C-127.5 410.5 -78.2259 339.268 -28.5 301.5C-98.4004 337.15 -205.338 343.057 -288.452 298.969C-145.135 261.517 -105.054 180.966 -50 125.5C-112 142.999 -137.5 142.999 -253.5 110.5C-56.9571 71.0302 18.6055 -7.75537 47.7307 -47.5774C-31.9728 -40.7507 -131 -54.5 -184.5 -96C-117.5 -96 -68.8116 -112.006 -27.5 -140.5C9.06198 -165.718 47.7307 -219.665 47.7307 -219.665C-16.6288 -201.84 -127.5 -214 -164.847 -237.68C-30.5876 -266.503 96.5 -382 138 -459C-3.93182 -423.35 -104.821 -472.503 -145.135 -502.211C-42.8414 -477.939 79.6973 -512.325 128.18 -532.552C33.5588 -539.379 -27.3909 -588.808 -46.0381 -612.67C58.3862 -616.842 130.311 -673.509 153.221 -701.321C120.828 -688.047 69.3969 -695.791 47.7307 -701.321Z" fill="#4FDB15"/>
</g>
</svg>
