<svg width="487" height="196" viewBox="0 0 487 196" fill="none" xmlns="http://www.w3.org/2000/svg">
<mask id="mask0_210_7" style="mask-type:alpha" maskUnits="userSpaceOnUse" x="0" y="0" width="487" height="196">
<path fill-rule="evenodd" clip-rule="evenodd" d="M4.27656 8.2935L0.226562 1.79351L2.77276 0.207031L6.82276 6.70703L4.27656 8.2935ZM17.7766 29.9602L9.67656 16.9602L12.2228 15.3737L20.3228 28.3737L17.7766 29.9602ZM31.2766 51.6268L23.1766 38.6268L25.7228 37.0404L33.8228 50.0404L31.2766 51.6268ZM36.6766 60.2935L39.2228 58.707L42.8324 64.5003H49.9197V67.5003H41.1669L36.6766 60.2935ZM76.3197 67.5003H60.4797V64.5003H76.3197V67.5003ZM102.72 67.5003H86.8797V64.5003H102.72V67.5003ZM129.12 67.5003H113.28V64.5003H129.12V67.5003ZM155.52 67.5003H139.68V64.5003H155.52V67.5003ZM173.197 67.5003H166.08V64.5003H174.802L180.048 72.3682L177.552 74.0323L173.197 67.5003ZM193.552 98.0323L183.952 83.6323L186.448 81.9682L196.048 96.3682L193.552 98.0323ZM199.952 107.632L202.448 105.968L206.802 112.5H215.6V115.5H205.197L199.952 107.632ZM237.15 115.5H228.4V112.5H238.849L242.886 119.229L240.313 120.772L237.15 115.5ZM252.313 140.772L245.113 128.772L247.686 127.229L254.886 139.229L252.313 140.772ZM264.313 160.772L257.113 148.772L259.686 147.229L266.886 159.229L264.313 160.772ZM276.313 180.772L269.113 168.772L271.686 167.229L278.886 179.229L276.313 180.772ZM281.113 188.772L283.686 187.229L286.849 192.5H293.518V195.5H285.15L281.113 188.772ZM318.581 195.5H303.543V192.5H318.581V195.5ZM343.643 195.5H328.606V192.5H343.643V195.5ZM368.706 195.5H353.668V192.5H368.706V195.5ZM393.768 195.5H378.731V192.5H393.768V195.5ZM418.831 195.5H403.793V192.5H418.831V195.5ZM443.893 195.5H428.856V192.5H443.893V195.5ZM468.956 195.5H453.918V192.5H468.956V195.5ZM486.5 195.5H478.981V192.5H486.5V195.5Z" fill="#4FDB15"/>
</mask>
<g mask="url(#mask0_210_7)">
<path d="M-120.269 203.679C-78.5 196 -11.9502 174.571 23 116.924C-51 132 -160 100.314 -214.038 44.3908C-118.038 59.5 70.3795 47.9937 168.41 -241C187.946 -163.884 260.281 -19.2353 363 24C429.064 51.8069 486.5 53 533 44.3908C495.621 116.924 372.55 131 313.944 116.924C335.433 137.467 383.5 172.864 494.621 172.864C488 208 438 259.5 379 275C405.639 301.706 527.5 327 607.5 321C587 360.5 462.482 427.061 372.55 402.789C372.55 438.5 449.5 546.5 693.281 600.95C668.418 616.911 575.538 667.32 438.614 630.817C456.196 664.634 616.135 739.853 693.281 739.853C644.799 795.793 596 826.5 495.621 857.423C545.5 903 664 934.5 779.5 944C756.413 971.022 693.281 1065 511.604 1048C554.227 1086.71 659.716 1147.08 811.025 1166.52C789.359 1188.01 725.781 1234.4 644.799 1248.06C670.372 1276.03 744.215 1337.09 835 1357.57C815.998 1382.85 751.354 1435.13 644.799 1441.95C663.979 1483.2 728.871 1576.11 835 1617.83C813.334 1633.79 731 1652 667.5 1633.5C693.281 1664.5 729 1749.2 835 1765C810.67 1776.22 767.5 1790 709 1770C716.5 1796 755.5 1821 811.025 1842.07C791 1856.5 719.802 1902 644.799 1880.94C669.299 1905.44 710 1902 779.5 1902C721.5 2028.5 538 2068 414 1980C405.298 2005.92 379.5 2060 313.944 2081C303 2054.5 271.5 2008 226.5 1961.53C181.569 1995.83 63.006 2067.73 -81.9094 2081C-59.5327 2057.77 -47 2001.36 -47 1961.53C-98.5018 2001.36 -276.5 2018.5 -332.847 1961.53C-311.714 1954.74 -263.906 1929.11 -241.743 1880.94C-355.97 1896.49 -446.678 1860.44 -479 1841C-422.5 1773 -387 1714 -378 1680.5C-409 1673 -448 1675.5 -506 1617.83C-445 1617.83 -363.5 1602 -332.5 1581C-381 1588.5 -446.5 1581 -481.492 1562.37C-402.215 1542.27 -300 1459.5 -249.5 1357.57C-341 1386.5 -426.261 1365.78 -456.452 1357.57C-295.5 1315.5 -246.226 1244.27 -196.5 1206.5C-266.4 1242.15 -373.338 1248.06 -456.452 1203.97C-313.135 1166.52 -273.054 1085.97 -218 1030.5C-280 1048 -305.5 1048 -421.5 1015.5C-224.957 976.03 -149.394 897.245 -120.269 857.423C-199.973 864.249 -299 850.5 -352.5 809C-285.5 809 -236.812 792.994 -195.5 764.5C-158.938 739.282 -120.269 685.335 -120.269 685.335C-184.629 703.16 -295.5 691 -332.847 667.32C-198.588 638.497 -71.5 523 -30 446C-171.932 481.65 -272.821 432.497 -313.135 402.789C-210.841 427.061 -88.3027 392.675 -39.82 372.448C-134.441 365.621 -195.391 316.192 -214.038 292.33C-109.614 288.158 -37.6889 231.491 -14.7795 203.679C-47.1723 216.953 -98.6031 209.209 -120.269 203.679Z" fill="#4FDB15"/>
</g>
</svg>
