<svg width="228" height="89" viewBox="0 0 228 89" fill="none" xmlns="http://www.w3.org/2000/svg">
<mask id="mask0_334_35" style="mask-type:alpha" maskUnits="userSpaceOnUse" x="0" y="0" width="228" height="89">
<path fill-rule="evenodd" clip-rule="evenodd" d="M147.18 0.5H155.95V3.5H148.82L145.175 9.18464L142.65 7.56537L147.18 0.5ZM182.45 3.5H166.55V0.5H182.45V3.5ZM208.95 3.5H193.05V0.5H208.95V3.5ZM227.5 3.5H219.55V0.5H227.5V3.5ZM139.725 17.6846L131.55 30.4346L129.025 28.8154L137.2 16.0654L139.725 17.6846ZM126.1 38.9346L117.925 51.6846L115.4 50.0654L123.575 37.3154L126.1 38.9346ZM112.475 60.1846L104.3 72.9346L101.775 71.3154L109.95 58.5654L112.475 60.1846ZM98.8502 81.4346L94.3201 88.5H86.4875V85.5H92.6799L96.3248 79.8154L98.8502 81.4346ZM7.0125 88.5H0V85.5H7.0125V88.5ZM30.3875 88.5H16.3625V85.5H30.3875V88.5ZM53.7625 88.5H39.7375V85.5H53.7625V88.5ZM77.1375 88.5H63.1125V85.5H77.1375V88.5Z" fill="#4FDB15"/>
</mask>
<g mask="url(#mask0_334_35)">
<path d="M321.731 -1501.32C363.5 -1509 430.05 -1530.43 465 -1588.08C391 -1573 282 -1604.69 227.962 -1660.61C323.962 -1645.5 512.379 -1657.01 610.41 -1946C629.946 -1868.88 702.281 -1724.24 805 -1681C871.064 -1653.19 928.5 -1652 975 -1660.61C937.621 -1588.08 814.55 -1574 755.944 -1588.08C777.433 -1567.53 825.5 -1532.14 936.621 -1532.14C930 -1497 880 -1445.5 821 -1430C847.639 -1403.29 969.5 -1378 1049.5 -1384C1029 -1344.5 904.482 -1277.94 814.55 -1302.21C814.55 -1266.5 891.5 -1158.5 1135.28 -1104.05C1110.42 -1088.09 1017.54 -1037.68 880.614 -1074.18C898.196 -1040.37 1058.14 -965.147 1135.28 -965.147C1086.8 -909.207 1038 -878.5 937.621 -847.577C987.5 -802 1106 -770.5 1221.5 -761C1198.41 -733.978 1135.28 -640 953.604 -657.001C996.227 -618.285 1101.72 -557.92 1253.03 -538.483C1231.36 -516.992 1167.78 -470.596 1086.8 -456.943C1112.37 -428.973 1186.21 -367.912 1277 -347.432C1258 -322.149 1193.35 -269.874 1086.8 -263.048C1105.98 -221.804 1170.87 -128.886 1277 -87.1674C1255.33 -71.2069 1173 -53 1109.5 -71.5C1135.28 -40.5 1171 44.2015 1277 60C1252.67 71.2197 1209.5 85 1151 65C1158.5 91 1197.5 116 1253.03 137.068C1233 151.5 1161.8 197 1086.8 175.942C1111.3 200.442 1152 197 1221.5 197C1163.5 323.5 980 363 856 275C847.298 300.916 821.5 355 755.944 376C745 349.5 713.5 303 668.5 256.534C623.569 290.825 505.006 362.726 360.091 376C382.467 352.771 395 296.356 395 256.534C343.498 296.356 165.5 313.5 109.153 256.534C130.286 249.739 178.094 224.108 200.257 175.942C86.0301 191.492 -4.67818 155.437 -37 136C19.5 68 55 9 64 -24.5C33 -32 -6 -29.5 -64 -87.1674C-3 -87.1674 78.5 -103 109.5 -124C61 -116.5 -4.5 -124 -39.4923 -142.634C39.785 -162.734 142 -245.5 192.5 -347.432C101 -318.5 15.739 -339.215 -14.4517 -347.432C146.5 -389.5 195.774 -460.732 245.5 -498.5C175.6 -462.85 68.6615 -456.943 -14.4517 -501.031C128.865 -538.483 168.946 -619.034 224 -674.5C162 -657.001 136.5 -657.001 20.5 -689.5C217.043 -728.97 292.606 -807.755 321.731 -847.577C242.027 -840.751 143 -854.5 89.5 -896C156.5 -896 205.188 -912.006 246.5 -940.5C283.062 -965.718 321.731 -1019.67 321.731 -1019.67C257.371 -1001.84 146.5 -1014 109.153 -1037.68C243.412 -1066.5 370.5 -1182 412 -1259C270.068 -1223.35 169.179 -1272.5 128.865 -1302.21C231.159 -1277.94 353.697 -1312.33 402.18 -1332.55C307.559 -1339.38 246.609 -1388.81 227.962 -1412.67C332.386 -1416.84 404.311 -1473.51 427.221 -1501.32C394.828 -1488.05 343.397 -1495.79 321.731 -1501.32Z" fill="white"/>
</g>
</svg>
