<svg width="707" height="154" viewBox="0 0 707 154" fill="none" xmlns="http://www.w3.org/2000/svg">
<g clip-path="url(#clip0_334_20)">
<mask id="mask0_334_20" style="mask-type:alpha" maskUnits="userSpaceOnUse" x="0" y="0" width="707" height="154">
<path fill-rule="evenodd" clip-rule="evenodd" d="M4.73371 8.76074L0.726562 2.28932L3.27718 0.709961L7.28432 7.18139L4.73371 8.76074ZM18.0908 30.3322L10.0766 17.3893L12.6272 15.81L20.6415 28.7528L18.0908 30.3322ZM31.448 51.9036L23.4337 38.9607L25.9843 37.3814L33.9986 50.3242L31.448 51.9036ZM44.8051 73.475L36.7908 60.5322L39.3415 58.9528L47.3557 71.8957L44.8051 73.475ZM58.1623 95.0464L50.148 82.1036L52.6986 80.5242L60.7129 93.4671L58.1623 95.0464ZM71.5194 116.618L63.5051 103.675L66.0557 102.096L74.07 115.039L71.5194 116.618ZM84.8766 138.189L76.8623 125.246L79.4129 123.667L87.4272 136.61L84.8766 138.189ZM706.614 127.007L699.414 134.957L697.19 132.943L704.39 124.993L706.614 127.007ZM293.274 125H301.982V128H294.729L289.03 135.228L286.674 133.371L293.274 125ZM328.582 128H312.622V125H328.582V128ZM355.182 128H339.222V125H355.182V128ZM381.782 128H365.822V125H381.782V128ZM408.382 128H392.422V125H408.382V128ZM426.263 128H419.022V125H427.74L434.191 133.385L431.813 135.214L426.263 128ZM689.814 145.557L682.167 154H673.685V151H680.837L687.59 143.543L689.814 145.557ZM280.83 145.628L274.229 154H265.873V151H272.774L278.474 143.771L280.83 145.628ZM439.813 145.614L442.191 143.785L447.74 151H454.819V154H446.263L439.813 145.614ZM90.2194 146.818L92.77 145.239L96.3373 151H103.13V154H94.6664L90.2194 146.818ZM128.559 154H113.302V151H128.559V154ZM153.988 154H138.73V151H153.988V154ZM179.416 154H164.159V151H179.416V154ZM204.845 154H189.588V151H204.845V154ZM230.273 154H215.016V151H230.273V154ZM255.702 154H240.445V151H255.702V154ZM480.874 154H465.241V151H480.874V154ZM506.93 154H491.296V151H506.93V154ZM532.985 154H517.352V151H532.985V154ZM559.041 154H543.407V151H559.041V154ZM585.096 154H569.463V151H585.096V154ZM611.152 154H595.519V151H611.152V154ZM637.207 154H621.574V151H637.207V154ZM663.263 154H647.63V151H663.263V154Z" fill="#4FDB15"/>
</mask>
<g mask="url(#mask0_334_20)">
<path d="M32.7307 -371.321C74.5 -379 141.05 -400.429 176 -458.076C102 -443 -6.99998 -474.686 -61.0381 -530.609C34.9619 -515.5 223.379 -527.006 321.41 -816C340.946 -738.884 413.281 -594.235 516 -551C582.064 -523.193 639.5 -522 686 -530.609C648.621 -458.076 525.55 -444 466.944 -458.076C488.433 -437.533 536.5 -402.136 647.621 -402.136C641 -367 591 -315.5 532 -300C558.639 -273.294 680.5 -248 760.5 -254C740 -214.5 615.482 -147.939 525.55 -172.211C525.55 -136.5 602.5 -28.5 846.281 25.9502C821.418 41.9106 728.538 92.3201 591.614 55.8167C609.196 89.6337 769.135 164.853 846.281 164.853C797.799 220.793 749 251.5 648.621 282.423C698.5 328 817 359.5 932.5 369C909.413 396.022 846.281 490 664.604 472.999C707.227 511.715 812.716 572.08 964.025 591.517C942.359 613.008 878.781 659.404 797.799 673.057C823.372 701.027 897.215 762.088 988 782.568C968.998 807.851 904.354 860.126 797.799 866.952C816.979 908.196 881.871 1001.11 988 1042.83C966.334 1058.79 884 1077 820.5 1058.5C846.281 1089.5 882 1174.2 988 1190C963.67 1201.22 920.5 1215 862 1195C869.5 1221 908.5 1246 964.025 1267.07C944 1281.5 872.802 1327 797.799 1305.94C822.299 1330.44 863 1327 932.5 1327C874.5 1453.5 691 1493 567 1405C558.298 1430.92 532.5 1485 466.944 1506C456 1479.5 424.5 1433 379.5 1386.53C334.569 1420.83 216.006 1492.73 71.0906 1506C93.4673 1482.77 106 1426.36 106 1386.53C54.4982 1426.36 -123.5 1443.5 -179.847 1386.53C-158.714 1379.74 -110.906 1354.11 -88.7425 1305.94C-202.97 1321.49 -293.678 1285.44 -326 1266C-269.5 1198 -234 1139 -225 1105.5C-256 1098 -295 1100.5 -353 1042.83C-292 1042.83 -210.5 1027 -179.5 1006C-228 1013.5 -293.5 1006 -328.492 987.366C-249.215 967.266 -147 884.5 -96.5 782.568C-188 811.5 -273.261 790.785 -303.452 782.568C-142.5 740.5 -93.2259 669.268 -43.5 631.5C-113.4 667.15 -220.338 673.057 -303.452 628.969C-160.135 591.517 -120.054 510.966 -65 455.5C-127 472.999 -152.5 472.999 -268.5 440.5C-71.9571 401.03 3.60554 322.245 32.7307 282.423C-46.9728 289.249 -146 275.5 -199.5 234C-132.5 234 -83.8116 217.994 -42.5 189.5C-5.93802 164.282 32.7307 110.335 32.7307 110.335C-31.6288 128.16 -142.5 116 -179.847 92.3201C-45.5876 63.4966 81.5 -52 123 -129C-18.9318 -93.3499 -119.821 -142.503 -160.135 -172.211C-57.8414 -147.939 64.6973 -182.325 113.18 -202.552C18.5588 -209.379 -42.3909 -258.808 -61.0381 -282.67C43.3862 -286.842 115.311 -343.509 138.221 -371.321C105.828 -358.047 54.3969 -365.791 32.7307 -371.321Z" fill="white"/>
</g>
</g>
<defs>
<clipPath id="clip0_334_20">
<rect width="707" height="154" fill="white"/>
</clipPath>
</defs>
</svg>
