<svg width="894" height="158" viewBox="0 0 894 158" fill="none" xmlns="http://www.w3.org/2000/svg">
<mask id="mask0_270_6" style="mask-type:alpha" maskUnits="userSpaceOnUse" x="0" y="0" width="894" height="158">
<path fill-rule="evenodd" clip-rule="evenodd" d="M7.60625 3H0.5V0H7.60625V3ZM31.2937 3H17.0812V0H31.2937V3ZM54.9813 3H40.7687V0H54.9813V3ZM78.6687 3H64.4562V0H78.6687V3ZM102.356 3H88.1437V0H102.356V3ZM126.044 3H111.831V0H126.044V3ZM149.731 3H135.519V0H149.731V3ZM173.419 3H159.206V0H173.419V3ZM182.894 3V0H197.95V3H182.894ZM224.45 3H208.55V0H224.45V3ZM250.95 3H235.05V0H250.95V3ZM277.45 3H261.55V0H277.45V3ZM303.95 3H288.05V0H303.95V3ZM330.45 3H314.55V0H330.45V3ZM356.95 3H341.05V0H356.95V3ZM374.534 3H367.55V0H376.466L379.887 7.52182L377.156 8.76389L374.534 3ZM387.227 30.9067L381.185 17.621L383.915 16.379L389.958 29.6647L387.227 30.9067ZM397.299 53.0496L391.256 39.7639L393.987 38.5218L400.03 51.8075L397.299 53.0496ZM407.37 75.1925L401.327 61.9067L404.058 60.6647L410.101 73.9504L407.37 75.1925ZM813.68 70H822.45V73H815.32L811.675 78.6846L809.15 77.0654L813.68 70ZM848.95 73H833.05V70H848.95V73ZM875.45 73H859.55V70H875.45V73ZM894 73H886.05V70H894V73ZM417.442 97.3353L411.399 84.0496L414.13 82.8075L420.173 96.0932L417.442 97.3353ZM806.225 87.1846L798.05 99.9346L795.525 98.3154L803.7 85.5654L806.225 87.1846ZM427.513 119.478L421.47 106.192L424.201 104.95L430.244 118.236L427.513 119.478ZM792.6 108.435L784.425 121.185L781.9 119.565L790.075 106.815L792.6 108.435ZM437.585 141.621L431.542 128.335L434.273 127.093L440.315 140.379L437.585 141.621ZM778.975 129.685L770.8 142.435L768.275 140.815L776.45 128.065L778.975 129.685ZM441.613 150.478L444.344 149.236L446.966 155H453.246V158H445.034L441.613 150.478ZM765.35 150.935L760.82 158H752.754V155H759.18L762.825 149.315L765.35 150.935ZM477.4 158H462.908V155H477.4V158ZM501.554 158H487.062V155H501.554V158ZM525.708 158H511.215V155H525.708V158ZM549.862 158H535.369V155H549.862V158ZM574.015 158H559.523V155H574.015V158ZM598.169 158H583.677V155H598.169V158ZM622.323 158H607.831V155H622.323V158ZM646.477 158H631.985V155H646.477V158ZM670.631 158H656.138V155H670.631V158ZM694.785 158H680.292V155H694.785V158ZM718.939 158H704.446V155H718.939V158ZM743.092 158H728.6V155H743.092V158Z" fill="#4FDB15"/>
</mask>
<g mask="url(#mask0_270_6)">
<path d="M122.731 -850.321C164.5 -858 231.05 -879.429 266 -937.076C192 -922 83 -953.686 28.9619 -1009.61C124.962 -994.5 313.379 -1006.01 411.41 -1295C430.946 -1217.88 503.281 -1073.24 606 -1030C672.064 -1002.19 729.5 -1001 776 -1009.61C738.621 -937.076 615.55 -923 556.944 -937.076C578.433 -916.533 626.5 -881.136 737.621 -881.136C731 -846 681 -794.5 622 -779C648.639 -752.294 770.5 -727 850.5 -733C830 -693.5 705.482 -626.939 615.55 -651.211C615.55 -615.5 692.5 -507.5 936.281 -453.05C911.418 -437.089 818.538 -386.68 681.614 -423.183C699.196 -389.366 859.135 -314.147 936.281 -314.147C887.799 -258.207 839 -227.5 738.621 -196.577C788.5 -151 907 -119.5 1022.5 -110C999.413 -82.9779 936.281 11 754.604 -6.00085C797.227 32.715 902.716 93.0801 1054.03 112.517C1032.36 134.008 968.781 180.404 887.799 194.057C913.372 222.027 987.215 283.088 1078 303.568C1059 328.851 994.354 381.126 887.799 387.952C906.979 429.196 971.871 522.114 1078 563.833C1056.33 579.793 974 598 910.5 579.5C936.281 610.5 972 695.202 1078 711C1053.67 722.22 1010.5 736 952 716C959.5 742 998.5 767 1054.03 788.068C1034 802.5 962.802 848 887.799 826.942C912.299 851.442 953 848 1022.5 848C964.5 974.5 781 1014 657 926C648.298 951.916 622.5 1006 556.944 1027C546 1000.5 514.5 954 469.5 907.534C424.569 941.825 306.006 1013.73 161.091 1027C183.467 1003.77 196 947.356 196 907.534C144.498 947.356 -33.5 964.5 -89.8474 907.534C-68.7139 900.739 -20.9061 875.108 1.25748 826.942C-112.97 842.492 -203.678 806.437 -236 787C-179.5 719 -144 660 -135 626.5C-166 619 -205 621.5 -263 563.833C-202 563.833 -120.5 548 -89.5 527C-138 534.5 -203.5 527 -238.492 508.366C-159.215 488.266 -57 405.5 -6.5 303.568C-98 332.5 -183.261 311.785 -213.452 303.568C-52.5 261.5 -3.22586 190.268 46.5 152.5C-23.4004 188.15 -130.338 194.057 -213.452 149.969C-70.1347 112.517 -30.0536 31.9663 25 -23.5C-37 -6.00085 -62.5 -6.00085 -178.5 -38.5C18.0429 -77.9698 93.6055 -156.755 122.731 -196.577C43.0272 -189.751 -56 -203.5 -109.5 -245C-42.5 -245 6.18839 -261.006 47.5 -289.5C84.062 -314.718 122.731 -368.665 122.731 -368.665C58.3712 -350.84 -52.5 -363 -89.8474 -386.68C44.4124 -415.503 171.5 -531 213 -608C71.0682 -572.35 -29.8212 -621.503 -70.1347 -651.211C32.1586 -626.939 154.697 -661.325 203.18 -681.552C108.559 -688.379 47.6091 -737.808 28.9619 -761.67C133.386 -765.842 205.311 -822.509 228.221 -850.321C195.828 -837.047 144.397 -844.791 122.731 -850.321Z" fill="#4FDB15"/>
</g>
</svg>
