<svg width="928" height="476" viewBox="0 0 928 476" fill="none" xmlns="http://www.w3.org/2000/svg">
<mask id="mask0_232_7" style="mask-type:alpha" maskUnits="userSpaceOnUse" x="0" y="0" width="928" height="476">
<path fill-rule="evenodd" clip-rule="evenodd" d="M4.51719 7.61813L0.742188 1.81813L3.25653 0.181641L7.03153 5.98164L4.51719 7.61813ZM17.1005 26.9515L9.55052 15.3515L12.0649 13.715L19.6149 25.315L17.1005 26.9515ZM29.6839 46.2848L22.1339 34.6848L24.6482 33.0483L32.1982 44.6483L29.6839 46.2848ZM42.2672 65.6181L34.7172 54.0181L37.2315 52.3816L44.7815 63.9816L42.2672 65.6181ZM54.8505 84.9515L47.3005 73.3515L49.8149 71.715L57.3649 83.315L54.8505 84.9515ZM67.4339 104.285L59.8839 92.6848L62.3982 91.0483L69.9482 102.648L67.4339 104.285ZM75.7238 117.022L72.4672 112.018L74.9815 110.382L79.2749 116.978L74.9662 123.967L72.4125 122.393L75.7238 117.022ZM59.7125 142.993L67.3325 130.633L69.8862 132.207L62.2662 144.567L59.7125 142.993ZM47.0125 163.593L54.6325 151.233L57.1862 152.807L49.5662 165.167L47.0125 163.593ZM34.3125 184.193L41.9325 171.833L44.4862 173.407L36.8662 185.767L34.3125 184.193ZM21.6125 204.793L29.2325 192.433L31.7862 194.007L24.1662 206.367L21.6125 204.793ZM16.5325 213.033L19.0862 214.607L15.7601 220.002L19.1782 225.578L16.6205 227.146L12.2386 219.998L16.5325 213.033ZM29.6205 248.355L21.8205 235.63L24.3782 234.062L32.1782 246.787L29.6205 248.355ZM42.6205 269.563L34.8205 256.838L37.3782 255.27L45.1782 267.995L42.6205 269.563ZM784.291 265.5H792.149V268.5H785.707L779.857 275.603L777.541 273.696L784.291 265.5ZM815.983 268.5H801.683V265.5H815.983V268.5ZM839.816 268.5H825.516V265.5H839.816V268.5ZM863.649 268.5H849.349V265.5H863.649V268.5ZM887.483 268.5H873.183V265.5H887.483V268.5ZM911.316 268.5H897.016V265.5H911.316V268.5ZM927.999 268.5H920.849V265.5H927.999V268.5ZM55.6205 290.771L47.8205 278.046L50.3782 276.478L58.1782 289.203L55.6205 290.771ZM771.457 285.803L764.707 294H756.109V291H763.291L769.141 283.896L771.457 285.803ZM631.829 291H640.389V294H633.17L628.727 298.961L626.492 296.959L631.829 291ZM666.689 294H650.909V291H666.689V294ZM692.989 294H677.209V291H692.989V294ZM719.289 294H703.509V291H719.289V294ZM745.589 294H729.809V291H745.589V294ZM68.6205 311.98L60.8205 299.255L63.3782 297.687L71.1782 310.412L68.6205 311.98ZM622.207 306.241L612.427 317.161L610.192 315.159L619.972 304.239L622.207 306.241ZM81.6205 333.188L73.8205 320.463L76.3782 318.895L84.1782 331.62L81.6205 333.188ZM605.907 324.441L596.127 335.361L593.892 333.359L603.672 322.439L605.907 324.441ZM94.6205 354.396L86.8205 341.671L89.3782 340.103L97.1782 352.828L94.6205 354.396ZM589.607 342.641L579.827 353.561L577.592 351.559L587.372 340.639L589.607 342.641ZM573.307 360.841L563.527 371.761L561.292 369.759L571.072 358.839L573.307 360.841ZM107.621 375.605L99.8205 362.88L102.378 361.312L110.178 374.037L107.621 375.605ZM557.007 379.041L547.227 389.961L544.992 387.959L554.772 377.039L557.007 379.041ZM120.62 396.813L112.821 384.088L115.378 382.52L123.178 395.245L120.62 396.813ZM540.707 397.241L530.927 408.161L528.692 406.159L538.472 395.239L540.707 397.241ZM133.621 418.021L125.821 405.296L128.378 403.728L136.178 416.453L133.621 418.021ZM524.407 415.441L514.627 426.361L512.392 424.359L522.172 413.439L524.407 415.441ZM146.62 439.23L138.821 426.505L141.378 424.937L149.178 437.662L146.62 439.23ZM508.107 433.641L498.327 444.561L496.092 442.559L505.872 431.639L508.107 433.641ZM159.62 460.438L151.821 447.713L154.378 446.145L162.178 458.87L159.62 460.438ZM491.807 451.841L482.027 462.761L479.792 460.759L489.572 449.839L491.807 451.841ZM164.821 468.921L167.378 467.353L170.839 473H177.487V476H169.159L164.821 468.921ZM475.507 470.041L470.17 476H462.012V473H468.829L473.272 468.039L475.507 470.041ZM202.445 476H187.47V473H202.445V476ZM227.404 476H212.429V473H227.404V476ZM252.362 476H237.387V473H252.362V476ZM277.32 476H262.345V473H277.32V476ZM302.279 476H287.303V473H302.279V476ZM327.237 476H312.262V473H327.237V476ZM352.195 476H337.22V473H352.195V476ZM377.154 476H362.179V473H377.154V476ZM402.112 476H387.137V473H402.112V476ZM427.07 476H412.095V473H427.07V476ZM452.029 476H437.054V473H452.029V476Z" fill="#4FDB15"/>
</mask>
<g mask="url(#mask0_232_7)">
<path d="M118.731 -1037.32C160.5 -1045 227.05 -1066.43 262 -1124.08C188 -1109 79 -1140.69 24.9619 -1196.61C120.962 -1181.5 309.379 -1193.01 407.41 -1482C426.946 -1404.88 499.281 -1260.24 602 -1217C668.064 -1189.19 725.5 -1188 772 -1196.61C734.621 -1124.08 611.55 -1110 552.944 -1124.08C574.433 -1103.53 622.5 -1068.14 733.621 -1068.14C727 -1033 677 -981.5 618 -966C644.639 -939.294 766.5 -914 846.5 -920C826 -880.5 701.482 -813.939 611.55 -838.211C611.55 -802.5 688.5 -694.5 932.281 -640.05C907.418 -624.089 814.538 -573.68 677.614 -610.183C695.196 -576.366 855.135 -501.147 932.281 -501.147C883.799 -445.207 835 -414.5 734.621 -383.577C784.5 -338 903 -306.5 1018.5 -297C995.413 -269.978 932.281 -176 750.604 -193.001C793.227 -154.285 898.716 -93.9199 1050.03 -74.483C1028.36 -52.9918 964.781 -6.59607 883.799 7.05713C909.372 35.0273 983.215 96.0878 1074 116.568C1055 141.851 990.354 194.126 883.799 200.952C902.979 242.196 967.871 335.114 1074 376.833C1052.33 392.793 970 411 906.5 392.5C932.281 423.5 968 508.202 1074 524C1049.67 535.22 1006.5 549 948 529C955.5 555 994.5 580 1050.03 601.068C1030 615.5 958.802 661 883.799 639.942C908.299 664.442 949 661 1018.5 661C960.5 787.5 777 827 653 739C644.298 764.916 618.5 819 552.944 840C542 813.5 510.5 767 465.5 720.534C420.569 754.825 302.006 826.726 157.091 840C179.467 816.771 192 760.356 192 720.534C140.498 760.356 -37.5 777.5 -93.8474 720.534C-72.7139 713.739 -24.9061 688.108 -2.74252 639.942C-116.97 655.492 -207.678 619.437 -240 600C-183.5 532 -148 473 -139 439.5C-170 432 -209 434.5 -267 376.833C-206 376.833 -124.5 361 -93.5 340C-142 347.5 -207.5 340 -242.492 321.366C-163.215 301.266 -61 218.5 -10.5 116.568C-102 145.5 -187.261 124.785 -217.452 116.568C-56.5 74.5 -7.22586 3.2677 42.5 -34.5C-27.4004 1.15015 -134.338 7.05725 -217.452 -37.0314C-74.1347 -74.483 -34.0536 -155.034 21 -210.5C-41 -193.001 -66.5 -193.001 -182.5 -225.5C14.0429 -264.97 89.6055 -343.755 118.731 -383.577C39.0272 -376.751 -60 -390.5 -113.5 -432C-46.5 -432 2.18839 -448.006 43.5 -476.5C80.062 -501.718 118.731 -555.665 118.731 -555.665C54.3712 -537.84 -56.5 -550 -93.8474 -573.68C40.4124 -602.503 167.5 -718 209 -795C67.0682 -759.35 -33.8212 -808.503 -74.1347 -838.211C28.1586 -813.939 150.697 -848.325 199.18 -868.552C104.559 -875.379 43.6091 -924.808 24.9619 -948.67C129.386 -952.842 201.311 -1009.51 224.221 -1037.32C191.828 -1024.05 140.397 -1031.79 118.731 -1037.32Z" fill="#4FDB15"/>
</g>
</svg>
