<svg width="1440" height="10" viewBox="0 0 1440 10" fill="none" xmlns="http://www.w3.org/2000/svg">
<g clip-path="url(#clip0_193_170)">
<path fill-rule="evenodd" clip-rule="evenodd" d="M-10.4924 6.5H-18V3.5H-10.4924V6.5ZM14.5331 6.5H-0.482204V3.5H14.5331V6.5ZM39.5585 6.5H24.5432V3.5H39.5585V6.5ZM64.5839 6.5H49.5686V3.5H64.5839V6.5ZM89.6093 6.5H74.5941V3.5H89.6093V6.5ZM114.635 6.5H99.6195V3.5H114.635V6.5ZM139.66 6.5H124.645V3.5H139.66V6.5ZM164.686 6.5H149.67V3.5H164.686V6.5ZM189.711 6.5H174.696V3.5H189.711V6.5ZM214.736 6.5H199.721V3.5H214.736V6.5ZM239.762 6.5H224.747V3.5H239.762V6.5ZM264.787 6.5H249.772V3.5H264.787V6.5ZM289.813 6.5H274.797V3.5H289.813V6.5ZM314.838 6.5H299.823V3.5H314.838V6.5ZM339.864 6.5H324.848V3.5H339.864V6.5ZM364.889 6.5H349.874V3.5H364.889V6.5ZM389.914 6.5H374.899V3.5H389.914V6.5ZM414.94 6.5H399.924V3.5H414.94V6.5ZM439.965 6.5H424.95V3.5H439.965V6.5ZM464.991 6.5H449.975V3.5H464.991V6.5ZM490.016 6.5H475.001V3.5H490.016V6.5ZM515.042 6.5H500.026V3.5H515.042V6.5ZM540.067 6.5H525.052V3.5H540.067V6.5ZM565.092 6.5H550.077V3.5H565.092V6.5ZM590.118 6.5H575.103V3.5H590.118V6.5ZM615.143 6.5H600.128V3.5H615.143V6.5ZM640.169 6.5H625.154V3.5H640.169V6.5ZM665.194 6.5H650.179V3.5H665.194V6.5ZM690.22 6.5H675.204V3.5H690.22V6.5ZM715.245 6.5H700.23V3.5H715.245V6.5ZM740.271 6.5H725.255V3.5H740.271V6.5ZM765.296 6.5H750.281V3.5H765.296V6.5ZM790.321 6.5H775.306V3.5H790.321V6.5ZM815.347 6.5H800.332V3.5H815.347V6.5ZM840.372 6.5H825.357V3.5H840.372V6.5ZM865.398 6.5H850.383V3.5H865.398V6.5ZM890.423 6.5H875.408V3.5H890.423V6.5ZM915.449 6.5H900.433V3.5H915.449V6.5ZM940.474 6.5H925.459V3.5H940.474V6.5ZM965.5 6.5H950.484V3.5H965.5V6.5ZM990.525 6.5H975.51V3.5H990.525V6.5ZM1015.55 6.5H1000.54V3.5H1015.55V6.5ZM1040.58 6.5H1025.56V3.5H1040.58V6.5ZM1065.6 6.5H1050.59V3.5H1065.6V6.5ZM1090.63 6.5H1075.61V3.5H1090.63V6.5ZM1115.65 6.5H1100.64V3.5H1115.65V6.5ZM1140.68 6.5H1125.66V3.5H1140.68V6.5ZM1165.7 6.5H1150.69V3.5H1165.7V6.5ZM1190.73 6.5H1175.71V3.5H1190.73V6.5ZM1215.75 6.5H1200.74V3.5H1215.75V6.5ZM1240.78 6.5H1225.76V3.5H1240.78V6.5ZM1265.8 6.5H1250.79V3.5H1265.8V6.5ZM1290.83 6.5H1275.81V3.5H1290.83V6.5ZM1315.86 6.5H1300.84V3.5H1315.86V6.5ZM1340.88 6.5H1325.87V3.5H1340.88V6.5ZM1365.91 6.5H1350.89V3.5H1365.91V6.5ZM1390.93 6.5H1375.92V3.5H1390.93V6.5ZM1415.96 6.5H1400.94V3.5H1415.96V6.5ZM1440.98 6.5H1425.97V3.5H1440.98V6.5ZM1458.5 6.5H1450.99V3.5H1458.5V6.5Z" fill="white"/>
</g>
<defs>
<clipPath id="clip0_193_170">
<rect width="1440" height="10" fill="white"/>
</clipPath>
</defs>
</svg>
