<svg width="156" height="138" viewBox="0 0 156 138" fill="none" xmlns="http://www.w3.org/2000/svg">
<g clip-path="url(#clip0_148_445)">
<path d="M87.7425 67.7734L70.8726 94.7384H67.4574L76.0325 80.8L62.7843 94.7027L51.0781 94.663L67.9247 67.8924H71.3555L56.5963 91.7255L61.5459 91.7335L84.4792 67.7734H87.7425Z" fill="white"/>
<path d="M117.907 68.023L101.274 95.0672H97.8356L107.941 78.4371L89.8991 95.5785L94.0621 76.4114L82.169 94.8927H78.707L95.5458 67.9873H98.891L94.5995 87.5549L114.643 68.023H117.907Z" fill="white"/>
<path d="M49.344 81.8096V82.0684H49.1836L49.344 81.8096Z" fill="white"/>
<path d="M49.344 81.8096V82.0684H49.1836L49.344 81.8096Z" fill="white"/>
<path d="M57.0772 67.9562L49.5924 79.9203L36.6557 79.8965L44.1249 67.9562H40.6551L33.1898 79.8886L33.1392 79.9719L23.793 94.8815H27.2589L34.8059 82.842L47.7465 82.8618L40.2345 94.8735H43.7004L60.5431 67.9482L57.0772 67.9562ZM49.3432 81.8113V82.0491H49.1835L49.3432 81.8113Z" fill="white"/>
<path d="M49.344 81.8096V82.0684H49.1836L49.344 81.8096Z" fill="white"/>
<path d="M33.1406 79.8877H33.1924L33.1406 79.9726V79.8877Z" fill="white"/>
<path d="M49.344 81.8096V82.0684H49.1836L49.344 81.8096Z" fill="white"/>
<path d="M73.4695 28.1025H64.8749L52.1406 48.4154L56.6658 55.6225L65.0228 55.5868L77.5078 34.8735L73.4695 28.1025ZM58.1534 52.8633L55.3339 48.4194L66.3624 30.8498H71.9702L74.3067 34.8537L63.508 52.8396L58.1534 52.8633Z" fill="white"/>
<path d="M47.721 120.28L51.3621 113.763L47.5301 107.233L38.8771 107.265L26.875 126.448L31.0029 133.271H47.2186L51.4556 126.607L47.721 120.28ZM32.9228 130.095L30.7225 126.385L33.908 121.295L44.8119 121.457L47.9274 126.551L45.5908 130.175L32.9228 130.095ZM45.8634 110.274L47.8923 113.715L45.2209 118.357L35.7851 118.203L40.7113 110.298L45.8634 110.274Z" fill="white"/>
<path d="M69.1679 110.559L64.0003 118.86L70.7179 118.832L68.8253 121.893L62.0921 121.92L56.9088 130.245L69.791 130.436L67.8478 133.476L51.4062 133.27L67.5051 107.514L84.227 107.336L82.3656 110.396L69.1679 110.559Z" fill="white"/>
<path d="M156 107.392L139.838 133.667H136.267L145.664 118.207L128.635 134.381L132.591 116.169L121.438 133.501H117.84L134.2 107.361H136.174L136.349 107.083L136.291 107.361H137.623L133.541 125.977L152.612 107.392H156Z" fill="white"/>
<path d="M119.636 107.107H111.31L99.1758 126.449L103.572 133.45L111.676 133.418L123.569 113.672L119.636 107.107ZM105.2 130.445L102.673 126.481L112.938 110.132H118.001L120.088 113.7L110.029 130.413L105.2 130.445Z" fill="white"/>
<path d="M107.575 107.499L105.788 110.563L105.784 110.571L97.851 110.575L83.4929 133.532H79.9219L94.2644 110.575H86.3396L87.9947 107.499L96.1843 107.503H96.8074L107.575 107.499Z" fill="white"/>
<path d="M105.823 110.575H97.8516L105.784 110.571L105.788 110.563L105.823 110.575Z" fill="white"/>
<path d="M18.4899 130.187L32.6338 107.297H29.0744L14.9227 130.194L5.43632 130.175L19.5063 107.297H15.9469L-0.0195312 133.227L15.9119 133.267H16.5661L21.1458 133.239L24.1093 137.996H27.6764L22.8164 130.163L18.4899 130.187ZM15.9197 130.187H15.9469L15.9197 130.23V130.187Z" fill="white"/>
<path d="M15.9444 130.203L15.918 130.245V130.203H15.9444Z" fill="white"/>
<path d="M15.9444 130.203L15.918 130.245V130.203H15.9444Z" fill="white"/>
<path d="M16.5839 133.267L15.9297 133.271V133.267H16.5839Z" fill="white"/>
<path d="M83.2046 0L72.2656 17.2287L94.1397 17.2366L83.2046 0Z" fill="white"/>
<path d="M101.452 28.6934H98.8698L82.2725 46.37L73.0781 46.6317L77.7863 55.353L80.7265 55.2698L77.7668 49.145H83.1565H86.3264H90.0298H90.4621L96.2762 49.1093L92.5377 55.2936H95.6531L101.027 46.3383L91.0579 46.3978L101.452 28.6934ZM83.1487 46.37H83.2616L83.1487 46.4889V46.37ZM88.0009 46.37H86.0538L91.35 40.82L88.0009 46.37Z" fill="white"/>
<path d="M86.3261 49.1164L90.0335 49.0926L86.3261 49.1164ZM83.1484 46.3691V46.4881L83.2614 46.3691H83.1484Z" fill="white"/>
<path d="M83.2609 46.3691L83.1484 46.4887V46.3691H83.2609Z" fill="white"/>
</g>
<defs>
<clipPath id="clip0_148_445">
<rect width="156" height="138" fill="white"/>
</clipPath>
</defs>
</svg>
