<svg width="337" height="133" viewBox="0 0 337 133" fill="none" xmlns="http://www.w3.org/2000/svg">
<g clip-path="url(#clip0_148_422)">
<path d="M16.6624 1.04883V27.0754H9.92896V1.04883H0V65.9448H9.92896V37.4179H16.6624V65.9448H26.4772V1.04883H16.6624Z" fill="white"/>
<path d="M43.3695 66.6266H41.4294C33.5547 66.6266 29.332 62.3078 29.332 54.3521V41.3956H39.1469V52.7609C39.1469 55.7159 40.0599 57.3071 42.3424 57.3071C44.739 57.3071 45.5379 55.7159 45.5379 51.7381V50.2606C45.5379 45.6008 45.0814 44.0096 41.5435 39.3499L35.3807 31.2805C31.158 25.8251 29.9027 21.7336 29.9027 15.2554V13.2096C29.9027 4.45833 34.3536 0.480469 42.1141 0.480469H43.9402C52.0431 0.480469 55.2386 4.00372 55.2386 11.7321V22.4155H45.652V12.9823C45.652 10.8229 45.1955 9.11811 42.7989 9.11811C40.4022 9.11811 39.9457 10.5956 39.9457 13.6642V14.9144C39.9457 18.5513 40.6305 20.5971 43.9402 24.8022L50.2171 32.8716C54.668 38.6679 56.0375 41.9639 56.0375 49.2377V51.2834C56.1516 60.944 52.0431 66.6266 43.3695 66.6266Z" fill="white"/>
<path d="M81.4867 1.04883V10.482H68.9329V27.53H78.7477V37.3042H68.9329V56.057H82.0574V65.9448H59.0039V1.04883H81.4867Z" fill="white"/>
<path d="M108.761 53.7839H101.571L100.202 65.9448H91.4141L99.4029 1.04883H111.158L119.603 65.9448H110.017L108.761 53.7839ZM107.62 44.1234L104.995 20.1426L102.484 44.1234H107.62Z" fill="white"/>
<path d="M131.015 65.9448H121.086V1.04883H137.064C143.683 1.04883 146.993 3.89016 146.993 11.0503V22.5293C146.993 27.9846 144.482 30.0304 142.656 30.826C144.824 31.7352 146.993 33.5536 146.993 37.8725V60.6031C146.993 63.2171 147.563 64.4673 147.906 65.3765V65.8311H138.091C137.634 65.1492 137.178 64.0127 137.178 60.4894V41.0548C137.178 38.2134 136.607 36.9632 133.526 36.9632H131.015V65.9448ZM131.015 27.7573H133.64C136.379 27.7573 137.178 26.0525 137.178 23.0975V14.0053C137.178 11.164 136.607 9.80012 133.64 9.80012H131.015V27.7573Z" fill="white"/>
<path d="M167.08 10.482V65.9448H157.265V10.482H148.934V1.04883H175.297V10.482H167.08Z" fill="white"/>
<path d="M202.003 53.7839H194.813L193.444 65.9448H184.656L192.645 1.04883H204.286L212.731 65.9448H203.145L202.003 53.7839ZM200.862 44.1234L198.237 20.1426L195.726 44.1234H200.862Z" fill="white"/>
<path d="M223.344 1.04883L231.789 35.8267V1.04883H240.805V65.9448H232.817L223.344 28.6666V65.9448H214.328V1.04883H223.344Z" fill="white"/>
<path d="M244.457 1.04883H259.636C268.081 1.04883 270.706 5.82226 270.706 13.5507V52.9883C270.706 60.9441 267.739 65.9448 259.636 65.9448H244.457V1.04883ZM254.386 56.5116H256.783C259.75 56.5116 260.663 54.9204 260.663 51.5108V14.9145C260.663 11.164 259.75 9.91378 257.239 9.91378H254.386V56.5116Z" fill="white"/>
<path d="M0 67.3086H15.1787C23.6241 67.3086 26.249 72.082 26.249 79.8105V119.248C26.249 127.204 23.2817 132.205 15.1787 132.205H0V67.3086ZM9.92896 122.658H12.3256C15.2929 122.658 16.2059 121.067 16.2059 117.657V81.1743C16.2059 77.4237 15.2929 76.1735 12.7821 76.1735H9.92896V122.658Z" fill="white"/>
<path d="M52.268 67.3086V76.6282H39.6V93.6761H49.5289V103.564H39.6V122.317H52.8386V132.091H29.7852V67.3086H52.268Z" fill="white"/>
<path d="M68.5883 132.773H66.6481C58.7734 132.773 54.5508 128.454 54.5508 120.498V107.542H64.3656V118.907C64.3656 121.862 65.2786 123.453 67.5611 123.453C69.9578 123.453 70.7567 121.862 70.7567 117.884V116.407C70.7567 111.747 70.3002 110.156 66.7623 105.496L60.4853 97.4266C56.2627 91.9713 55.0073 87.8797 55.0073 81.4015V79.3557C55.0073 70.7181 59.3441 66.7402 67.2188 66.7402H69.0448C77.1477 66.7402 80.3432 70.2635 80.3432 77.9919V88.6753H70.7567V79.3557C70.7567 77.1963 70.3002 75.4915 67.9035 75.4915C65.5069 75.4915 65.0504 76.969 65.0504 80.0377V81.1742C65.0504 84.8111 65.7351 86.8568 69.0448 91.062L75.3217 99.1314C79.7726 104.928 81.1421 108.224 81.1421 115.497V117.543C81.3704 127.204 77.2618 132.773 68.5883 132.773Z" fill="white"/>
<path d="M94.0383 67.3086H84.1094V132.205H94.0383V67.3086Z" fill="white"/>
<path d="M106.937 133C101.117 133 97.4648 127.886 97.4648 121.18V80.6063C97.4648 73.3325 100.318 66.627 109.676 66.627H111.616C122.23 66.627 123.486 73.5598 123.486 81.1746V87.7665H113.899V80.4926C113.899 77.6513 113.214 76.0602 110.703 76.0602C108.649 76.0602 107.622 77.6513 107.622 80.4926V118.453C107.622 121.521 108.877 123.113 110.818 123.113C113.328 123.113 114.47 121.408 114.47 118.907V102.655H110.019V92.7672H123.828V132.205H118.236C118.122 131.864 117.323 128.682 116.524 125.84C115.839 128 112.529 133.114 107.508 133.114H106.937V133Z" fill="white"/>
<path d="M136.152 67.3086L144.597 102.086V67.3086H153.613V132.091H145.624L136.152 94.8127V132.091H127.25V67.3086H136.152Z" fill="white"/>
<path d="M179.405 132.773H177.465C169.59 132.773 165.367 128.454 165.367 120.498V107.542H175.182V118.907C175.182 121.862 176.095 123.453 178.378 123.453C180.774 123.453 181.573 121.862 181.573 117.884V116.407C181.573 111.747 181.117 110.156 177.579 105.496L171.302 97.4266C167.079 91.9713 165.824 87.8797 165.824 81.4015V79.3557C165.824 70.7181 170.16 66.7402 178.035 66.7402H179.861C187.964 66.7402 191.16 70.2635 191.16 77.9919V88.6753H181.573V79.3557C181.573 77.1963 181.117 75.4915 178.72 75.4915C176.323 75.4915 175.867 76.969 175.867 80.0377V81.1742C175.867 84.8111 176.552 86.8568 179.861 91.062L186.138 99.1314C190.589 104.928 191.959 108.224 191.959 115.497V117.543C192.187 127.204 188.078 132.773 179.405 132.773Z" fill="white"/>
<path d="M211.247 118.907V103.905H220.948V118.907C220.948 125.84 218.666 132.886 209.079 132.886H206.911C196.982 132.886 194.699 125.726 194.699 119.248V79.6967C194.699 73.1048 197.552 66.7402 206.568 66.7402H208.851C219.693 66.7402 220.948 73.9004 220.948 80.265V91.8576H211.247V80.4923C211.247 77.6509 210.334 76.1734 207.938 76.1734C205.541 76.1734 204.856 77.5373 204.856 80.4923V119.021C204.856 121.862 205.769 123.453 208.052 123.453C210.334 123.34 211.247 121.521 211.247 118.907Z" fill="white"/>
<path d="M240.693 103.564H233.959V132.091H224.145V67.3086H233.959V93.2215H240.693V67.3086H250.622V132.091H240.693V103.564Z" fill="white"/>
<path d="M281.091 117.657C281.091 126.749 278.009 132.887 268.537 132.887H266.825C257.353 132.887 254.043 126.749 254.043 117.657V81.5155C254.043 72.5369 257.467 66.627 266.711 66.627H268.423C278.009 66.627 281.091 72.5369 281.091 81.4019V117.657ZM271.048 81.0609C271.048 77.6513 269.906 76.0602 267.624 76.0602C265.113 76.0602 264.086 77.765 264.086 81.0609V118.339C264.086 121.18 264.885 123.34 267.624 123.34C270.249 123.34 270.934 121.18 270.934 118.339V81.0609H271.048Z" fill="white"/>
<path d="M311.337 117.657C311.337 126.749 308.255 132.887 298.783 132.887H297.071C287.599 132.887 284.289 126.749 284.289 117.657V81.5155C284.289 72.5369 287.713 66.627 296.957 66.627H298.669C308.256 66.627 311.337 72.5369 311.337 81.4019V117.657ZM301.18 81.0609C301.18 77.6513 300.038 76.0602 297.756 76.0602C295.245 76.0602 294.218 77.765 294.218 81.0609V118.339C294.218 121.18 295.017 123.34 297.756 123.34C300.381 123.34 301.066 121.18 301.066 118.339V81.0609H301.18Z" fill="white"/>
<path d="M324.573 67.3086V122.089H336.671V132.091H314.645V67.3086H324.573Z" fill="white"/>
</g>
<defs>
<clipPath id="clip0_148_422">
<rect width="336.672" height="132.52" fill="white" transform="translate(0 0.480469)"/>
</clipPath>
</defs>
</svg>
