<svg width="297" height="498" viewBox="0 0 297 498" fill="none" xmlns="http://www.w3.org/2000/svg">
<path d="M60.5 117.5L104.207 48H192.5L236 118.5L221.5 142L296 261L280.5 285L296 309L280.5 333.5L296 356L281 380L296 403.5L251.5 474L236.5 450.5L221.5 474L234.5 496.5H61.5L75 475L60 450L45 474L1 403.5L16 380L1 356L16 333.5L0.5 309L16 285L0.5 261L75 142L60.5 117.5Z" fill="#CEC296"/>
<path d="M1 261L74.5 142.5L88.5 166L59.5 214L74.5 237.5L45 284.5L59.5 308L45 332.5L59.5 356L44 379L59.5 404L45 427.5L59.5 451L45 474.5L1 404L17.5 381L1 356L15 332.5L1 308L15 284.5L1 261Z" fill="#80512D"/>
<path d="M45.0741 427.331L30.3855 403.595L15.5625 427.389L45.0741 427.331Z" fill="#5B3308"/>
<path d="M30.3753 403.595L15.4635 427.389L0.578125 403.595H30.3753Z" fill="#80512D"/>
<path d="M60.0993 403.468L45.0742 427.331L30.3633 403.595L60.0993 403.468Z" fill="#80512D"/>
<path d="M45.0751 427.287L30.3971 451.125L15.5117 427.333L45.0751 427.287Z" fill="#80512D"/>
<path d="M30.4023 403.582L15.5214 379.79L0.609375 403.597L30.4023 403.582Z" fill="#5B3308"/>
<path d="M89.4426 118.432L74.5943 142.031L60.2031 118.164L89.4426 118.432Z" fill="#80512D"/>
<path d="M89.425 118.433L74.7269 94.7461L60.2031 118.4L89.425 118.433Z" fill="#5B3308"/>
<path d="M74.5462 189.542L59.6148 213.334L44.8203 189.542H74.5462Z" fill="#80512D"/>
<path d="M89.4259 213.334L74.545 189.542L59.625 213.334H89.4259Z" fill="#CEC296"/>
<path d="M119.052 213.347L104.245 189.547L89.4219 213.338L119.052 213.347Z" fill="#CEC296"/>
<path d="M59.6303 213.347L44.823 189.547L30 213.338L59.6303 213.347Z" fill="#5B3308"/>
<path d="M119.053 165.749L104.175 141.957L89.3516 165.749H119.053Z" fill="#CEC296"/>
<path d="M104.379 142.296L89.4421 118.433L74.5938 141.987L104.379 142.296Z" fill="#CEC296"/>
<path d="M148.83 213.349L134.077 189.581L119.055 213.349H148.83Z" fill="#CEC296"/>
<path d="M134.074 189.581L118.874 165.718L104.242 189.542L134.074 189.581Z" fill="#CEC296"/>
<path d="M104.259 189.531L89.3785 213.325L74.5195 189.531H104.259Z" fill="#E3E3E3"/>
<path d="M89.3963 165.762L74.5438 189.546L59.6602 165.718L89.3963 165.762Z" fill="#80512D"/>
<path d="M134.078 189.581L119.053 213.347L104.23 189.544L134.078 189.581Z" fill="#E3E3E3"/>
<path d="M133.942 237.138L119.057 213.347L104.141 237.143L133.942 237.138Z" fill="#CEC296"/>
<path d="M74.5128 237.138L59.6275 213.347L44.7109 237.143L74.5128 237.138Z" fill="#5B3308"/>
<path d="M104.251 237.138L89.3657 213.347L74.4492 237.143L104.251 237.138Z" fill="#CEC296"/>
<path d="M163.743 237.138L148.817 213.347L133.941 237.143L163.743 237.138Z" fill="#CEC296"/>
<path d="M44.8253 237.138L29.94 213.347L15.0234 237.143L44.8253 237.138Z" fill="#5B3308"/>
<path d="M133.911 237.143L119.043 260.943L104.145 237.143H133.911Z" fill="#E3E3E3"/>
<path d="M148.821 213.347L133.94 237.138L119.055 213.347H148.821Z" fill="#E3E3E3"/>
<path d="M118.941 165.751L104.249 189.543L89.3633 165.751H118.941Z" fill="#E3E3E3"/>
<path d="M119.054 213.348L104.142 237.144L89.3477 213.344L119.054 213.348Z" fill="#E3E3E3"/>
<path d="M59.624 213.348L44.712 237.144L29.918 213.344L59.624 213.348Z" fill="#80512D"/>
<path d="M119.067 260.951L104.115 237.142L89.2383 261.042L119.067 260.951Z" fill="#CEC296"/>
<path d="M119.04 260.944L104.202 284.576L89.2383 261.042L119.04 260.944Z" fill="#E3E3E3"/>
<path d="M119.173 308.522L104.201 284.574L89.3086 308.457L119.173 308.522Z" fill="#CEC296"/>
<path d="M119.102 308.449L104.236 332.268L89.3086 308.458L119.102 308.449Z" fill="#E3E3E3"/>
<path d="M89.2437 261.042L74.4608 237.139L59.6289 260.937L89.2437 261.042Z" fill="#CEC296"/>
<path d="M29.6499 261.042L15.0257 237.139L0.0351562 260.937L29.6499 261.042Z" fill="#5B3308"/>
<path d="M89.2402 261.042L74.4061 284.691L59.5898 260.901L89.2402 261.042Z" fill="#E3E3E3"/>
<path d="M29.6504 261.042L14.8163 284.691L0 260.901L29.6504 261.042Z" fill="#80512D"/>
<path d="M104.114 237.154L89.242 261.041L74.3789 237.143L104.114 237.154Z" fill="#E3E3E3"/>
<path d="M74.5023 237.143L59.637 260.943L44.7383 237.143H74.5023Z" fill="#80512D"/>
<path d="M59.6658 260.951L44.7137 237.142L29.6094 261.042L59.6658 260.951Z" fill="#5B3308"/>
<path d="M44.7067 237.154L29.6066 261.041L15.0234 237.143L44.7067 237.154Z" fill="#80512D"/>
<path d="M104.242 284.582L89.247 261.028L74.4062 284.691L104.242 284.582Z" fill="#CEC296"/>
<path d="M44.6478 284.698L29.6533 261.028L14.8125 284.691L44.6478 284.698Z" fill="#5B3308"/>
<path d="M59.6491 260.917L44.6345 284.713L29.6094 260.995L59.6491 260.917Z" fill="#80512D"/>
<path d="M59.567 308.51L44.6861 332.301L29.8008 308.51H59.567Z" fill="#80512D"/>
<path d="M74.418 284.693L59.5994 260.919L44.625 284.711L74.418 284.693Z" fill="#CEC296"/>
<path d="M163.674 237.139L148.845 260.93L133.91 237.139H163.674Z" fill="#E3E3E3"/>
<path d="M148.847 260.935L133.908 237.112L119.043 260.931L148.847 260.935Z" fill="#CEC296"/>
<path d="M148.843 260.931L133.928 284.722L119.043 260.931H148.843Z" fill="#E3E3E3"/>
<path d="M133.901 284.558L119.11 260.775L104.195 284.585L133.901 284.558Z" fill="#CEC296"/>
<path d="M89.3304 308.509L74.4094 284.687L59.5664 308.509H89.3304Z" fill="#CEC296"/>
<path d="M59.6972 308.509L44.6338 284.687L29.8281 308.509H59.6972Z" fill="#5B3308"/>
<path d="M89.3287 308.509L74.4478 332.298L59.5625 308.507L89.3287 308.509Z" fill="#E3E3E3"/>
<path d="M74.4431 332.301L59.5644 308.51L44.6523 332.317L74.4431 332.301Z" fill="#CEC296"/>
<path d="M44.6657 332.301L29.831 308.51L14.875 332.317L44.6657 332.301Z" fill="#5B3308"/>
<path d="M104.239 332.267L89.3139 308.462L74.4219 332.291L104.239 332.267Z" fill="#CEC296"/>
<path d="M104.24 332.266L89.666 355.83L74.3398 332.241L104.24 332.266Z" fill="#E3E3E3"/>
<path d="M59.5805 356.031L44.7019 379.823L29.8789 356.085L59.5805 356.031Z" fill="#80512D"/>
<path d="M29.9189 356.031L15.4683 380.046L0.457031 356.031H29.9189Z" fill="#80512D"/>
<path d="M29.8538 308.505L14.9752 332.299L0.0898438 308.505H29.8538Z" fill="#80512D"/>
<path d="M44.7317 332.24L29.8775 356.095L14.9922 332.24H44.7317Z" fill="#80512D"/>
<path d="M89.7077 355.829L74.7091 379.692L59.5781 356.086L89.7077 355.829Z" fill="#E3E3E3"/>
<path d="M29.8476 308.505L14.8036 284.714L0.0546875 308.523L29.8476 308.505Z" fill="#5B3308"/>
<path d="M44.7332 379.904L29.8751 356.076L15.4688 379.904H44.7332Z" fill="#5B3308"/>
<path d="M74.7279 379.692L59.5771 356.086L44.6094 379.922L74.7279 379.692Z" fill="#CEC296"/>
<path d="M104.206 284.574L89.3072 308.462L74.4062 284.69L104.206 284.574Z" fill="#E3E3E3"/>
<path d="M133.967 284.574L119.088 308.399L104.203 284.574H133.967Z" fill="#E3E3E3"/>
<path d="M74.4135 284.695L59.5638 308.509L44.6328 284.695H74.4135Z" fill="#E3E3E3"/>
<path d="M44.6346 284.695L29.8474 308.509L14.8047 284.695H44.6346Z" fill="#80512D"/>
<path d="M74.7287 379.675L59.8362 403.467L44.6758 379.879L74.7287 379.675Z" fill="#E3E3E3"/>
<path d="M44.7018 379.878L30.38 403.6L15.4688 379.878L44.7018 379.878Z" fill="#80512D"/>
<path d="M59.8349 403.468L44.6929 379.835L30.3672 403.6L59.8349 403.468Z" fill="#5B3308"/>
<path d="M59.5805 356.086L44.7019 332.294L29.8789 356.086H59.5805Z" fill="#5B3308"/>
<path d="M29.8697 356.086L14.991 332.294L0.484375 356.086H29.8697Z" fill="#5B3308"/>
<path d="M74.4165 332.294L59.5779 356.086L44.7305 332.294H74.4165Z" fill="#E3E3E3"/>
<path d="M119.083 70.96L104.291 95.0115L89.5 71.28L119.083 70.96Z" fill="#E3E3E3"/>
<path d="M133.644 94.7073L118.876 71.2363L104.293 94.7465L133.644 94.7073Z" fill="#CEC296"/>
<path d="M163.246 94.7204L148.482 71.2363L133.59 94.7115L163.246 94.7204Z" fill="#CEC296"/>
<path d="M148.573 71.1484L133.604 94.6996L118.789 71.1484H148.573Z" fill="#E3E3E3"/>
<path d="M148.344 118.473L133.598 94.7207L118.68 118.473H148.344Z" fill="#CEC296"/>
<path d="M163.247 94.7217L148.349 118.474L133.648 94.7218L163.247 94.7217Z" fill="#E3E3E3"/>
<path d="M163.183 142.236L148.334 118.471L133.383 142.327L163.183 142.236Z" fill="black"/>
<path d="M148.339 118.473L133.384 142.327L118.535 118.473H148.339Z" fill="#E3E3E3"/>
<path d="M163.166 142.202L148.306 165.954L133.348 142.207L163.166 142.202Z" fill="black"/>
<path d="M74.5493 189.546L59.6568 165.718L44.8164 189.546H74.5493Z" fill="#5B3308"/>
<path d="M163.4 189.592L148.867 213.389L134.07 189.592H163.4Z" fill="#E3E3E3"/>
<path d="M133.641 142.251L118.875 165.718L104.281 142.251H133.641Z" fill="#E3E3E3"/>
<path d="M104.328 94.7451L89.4982 118.493L74.7266 94.7451H104.328Z" fill="#E3E3E3"/>
<path d="M148.522 166.026L133.658 142.278L118.875 165.719L148.522 166.026Z" fill="#CEC296"/>
<path d="M118.803 118.477L104.291 94.7461L89.4414 118.433L118.803 118.477Z" fill="#FF6527"/>
<path d="M148.395 165.844L134.07 189.591L118.875 165.718L148.395 165.844Z" fill="#E3E3E3"/>
<path d="M118.835 118.503L104.309 142.251L89.4375 118.433L118.835 118.503Z" fill="#E3E3E3"/>
<path d="M163.428 189.591L148.396 165.844L134.07 189.591H163.428Z" fill="#CEC296"/>
<path d="M133.67 142.251L118.787 118.478L104.312 142.251H133.67Z" fill="#CEC296"/>
<path d="M104.292 94.7435L89.5325 71.2363L74.7188 94.7435H104.292Z" fill="#CEC296"/>
<path d="M133.573 94.7168L118.788 118.464L104.293 94.746L133.573 94.7168Z" fill="#E3E3E3"/>
<path d="M119.143 23.7519L104.18 0L89.3711 23.7474L119.143 23.7519Z" fill="#5B3308"/>
<path d="M119.141 23.749L104.356 47.5253L89.3633 23.749H119.141Z" fill="#80512D"/>
<path d="M163.871 47.4932L148.485 71.2811L134.133 47.4932H163.871Z" fill="#80512D"/>
<path d="M134.15 47.5273L118.873 71.2631L104.359 47.5273H134.15Z" fill="#80512D"/>
<path d="M148.483 71.2581L134.187 47.5107L118.875 71.2581H148.483Z" fill="#5B3308"/>
<path d="M118.877 71.2581L104.367 47.5107L89.4688 71.2737L118.877 71.2581Z" fill="#5B3308"/>
<path d="M133.616 284.722L148.48 308.472L163.289 284.722H133.616Z" fill="#E3E3E3"/>
<path d="M148.52 308.472L163.387 284.722L178.258 308.472H148.52Z" fill="#CEC296"/>
<path d="M118.762 308.472L133.629 284.722L148.5 308.472H118.762Z" fill="#CEC296"/>
<path d="M148.284 261.017L163.079 237.143L178.273 261.032L148.284 261.017Z" fill="#CEC296"/>
<path d="M148.411 261.03L163.278 284.777L178.176 261.014L148.411 261.03Z" fill="#E3E3E3"/>
<path d="M133.604 284.777L148.469 261.03L163.34 284.777H133.604Z" fill="#CEC296"/>
<path d="M148.466 308.485L163.333 332.232L178.23 308.469L148.466 308.485Z" fill="#E3E3E3"/>
<path d="M119.652 497.976L134.166 474.616L149.523 498L119.652 497.976Z" fill="#CEC296"/>
<path d="M89.9087 497.974L104 474L118 497.974H89.9087Z" fill="black"/>
<path d="M60.176 497.974L75.0517 474.228L89.9141 497.974H60.176Z" fill="black"/>
<path d="M75.0418 474.224L89.9086 497.974L104.887 474.224H75.0418Z" fill="black"/>
<path d="M134.167 474.615L149.461 497.944L164.27 474.197L134.167 474.615Z" fill="#E3E3E3"/>
<path d="M149.171 497.906L163.949 474.615L179.16 497.922L149.171 497.906Z" fill="#CEC296"/>
<path d="M59.8832 450.85L74.8212 474.615L89.6836 450.759L59.8832 450.85Z" fill="#E3E3E3"/>
<path d="M59.9099 450.856L74.7344 427.269L89.6836 450.759L59.9099 450.856Z" fill="#CEC296"/>
<path d="M59.7812 403.367L74.7393 427.271L89.6172 403.432L59.7812 403.367Z" fill="#E3E3E3"/>
<path d="M59.8524 403.44L74.7036 379.666L89.6172 403.432L59.8524 403.44Z" fill="#CEC296"/>
<path d="M89.6789 450.759L104.292 474.615L119.266 450.864L89.6789 450.759Z" fill="#E3E3E3"/>
<path d="M149.214 450.76L163.983 474.618L178.801 450.864L149.214 450.76Z" fill="#E3E3E3"/>
<path d="M89.6824 450.76L104.502 427.155L119.305 450.9L89.6824 450.76Z" fill="#CEC296"/>
<path d="M149.214 450.76L164.034 427.155L178.836 450.9L149.214 450.76Z" fill="#CEC296"/>
<path d="M74.5861 474.603L89.6833 450.753L104.293 474.614L74.5861 474.603Z" fill="#CEC296"/>
<path d="M104.29 474.614L119.256 450.858L134.164 474.614H104.29Z" fill="#CEC296"/>
<path d="M119.228 450.85L134.166 474.615L149.367 450.752L119.228 450.85Z" fill="#E3E3E3"/>
<path d="M134.169 474.615L149.233 450.752L163.949 474.614L134.169 474.615Z" fill="#CEC296"/>
<path d="M74.6969 427.264L89.6772 450.773L104.504 427.155L74.6969 427.264Z" fill="#E3E3E3"/>
<path d="M134.208 427.155L149.212 450.773L164.039 427.155L134.208 427.155Z" fill="#E3E3E3"/>
<path d="M119.244 450.885L134.19 427.133L149.234 450.753L119.244 450.885Z" fill="#CEC296"/>
<path d="M119.324 403.38L134.19 379.632L149.031 403.38H119.324Z" fill="#CEC296"/>
<path d="M104.489 427.152L119.294 450.882L134.254 427.134L104.489 427.152Z" fill="#E3E3E3"/>
<path d="M30.1303 450.866L45.055 474.645L59.9063 450.87L30.1303 450.866Z" fill="#80512D"/>
<path d="M30.1348 450.87L45.0745 427.286L59.9062 450.87H30.1348Z" fill="#5B3308"/>
<path d="M45.0642 427.287L59.9059 450.885L74.7422 427.261L45.0642 427.287Z" fill="#E3E3E3"/>
<path d="M89.5916 403.38L104.498 427.158L119.18 403.38H89.5916Z" fill="#E3E3E3"/>
<path d="M119.194 403.38L134.207 427.158L149.035 403.38H119.194Z" fill="#E3E3E3"/>
<path d="M89.5932 403.381L104.46 379.636L119.18 403.381L89.5932 403.381Z" fill="#CEC296"/>
<path d="M104.46 379.632L119.18 403.38L134.223 379.617L104.46 379.632Z" fill="#E3E3E3"/>
<path d="M134.214 379.632L149.03 403.38L163.977 379.617L134.214 379.632Z" fill="#E3E3E3"/>
<path d="M74.699 379.667L89.6103 403.428L104.488 379.643L74.699 379.667Z" fill="#E3E3E3"/>
<path d="M74.6987 379.669L89.6434 355.89L104.57 379.693L74.6987 379.669Z" fill="#CEC296"/>
<path d="M119.315 355.892L134.179 332.144L148.988 355.892H119.315Z" fill="#CEC296"/>
<path d="M149.023 355.892L163.574 332.144L178.383 355.892H149.023Z" fill="#CEC296"/>
<path d="M149.03 403.385L163.875 379.635L178.746 403.385H149.03Z" fill="#CEC296"/>
<path d="M134.148 379.64L148.988 355.892L163.859 379.64H134.148Z" fill="#CEC296"/>
<path d="M89.5767 355.892L104.441 332.144L119.312 355.892H89.5767Z" fill="#CEC296"/>
<path d="M149.016 403.385L164.02 427.133L178.781 403.368L149.016 403.385Z" fill="#E3E3E3"/>
<path d="M134.148 332.118L149.012 355.865L163.781 332.425L134.148 332.118Z" fill="#E3E3E3"/>
<path d="M104.505 332.118L119.316 355.892L134.27 332.1L104.505 332.118Z" fill="#E3E3E3"/>
<path d="M74.7325 427.271L89.6171 403.427L104.504 427.155L74.7325 427.271Z" fill="#CEC296"/>
<path d="M45.0743 427.286L59.8631 403.49L74.7344 427.27L45.0743 427.286Z" fill="#CEC296"/>
<path d="M104.493 427.149L119.329 403.38L134.211 427.149H104.493Z" fill="#CEC296"/>
<path d="M134.209 427.149L149.03 403.38L164.039 427.149H134.209Z" fill="#CEC296"/>
<path d="M89.639 355.89L104.504 379.638L119.312 355.89H89.639Z" fill="#E3E3E3"/>
<path d="M104.467 332.143L119.332 308.395L134.203 332.143H104.467Z" fill="#CEC296"/>
<path d="M134.182 332.145L148.873 308.337L163.824 332.489L134.182 332.145Z" fill="#CEC296"/>
<path d="M119.358 308.356L134.187 332.188L148.871 308.338L119.358 308.356Z" fill="#E3E3E3"/>
<path d="M119.315 355.892L134.179 379.64L148.988 355.892H119.315Z" fill="#E3E3E3"/>
<path d="M148.998 355.892L163.863 379.64L178.355 355.892H148.998Z" fill="#E3E3E3"/>
<path d="M104.49 379.64L119.315 355.892L134.148 379.64H104.49Z" fill="#CEC296"/>
<path d="M89.3477 213.344L74.4557 237.135L59.5703 213.344H89.3477Z" fill="#E3E3E3"/>
<path d="M104.251 189.543L89.3698 165.751L74.5469 189.543H104.251Z" fill="#CEC296"/>
<path d="M89.3568 165.762L74.5968 141.942L59.6602 165.718L89.3568 165.762Z" fill="#5B3308"/>
<path d="M104.292 142.208L89.3551 165.762L74.5938 141.963L104.292 142.208Z" fill="#E3E3E3"/>
<path d="M104.29 474.615L118 498L134.164 474.615H104.29Z" fill="#E3E3E3"/>
<path d="M295.5 261L222 142.5L208 166L237 214L222 237.5L251.5 284.5L237 308L251.5 332.5L237 356L252.5 379L237 404L251.5 427.5L237 451L251.5 474.5L295.5 404L279 381L295.5 356L281.5 332.5L295.5 308L281.5 284.5L295.5 261Z" fill="#80512D"/>
<path d="M251.637 427.331L266.325 403.595L281.148 427.389L251.637 427.331Z" fill="#5B3308"/>
<path d="M266.336 403.595L281.247 427.389L296.133 403.595H266.336Z" fill="#80512D"/>
<path d="M236.612 403.468L251.637 427.331L266.348 403.595L236.612 403.468Z" fill="#80512D"/>
<path d="M251.636 427.287L266.314 451.125L281.199 427.333L251.636 427.287Z" fill="#80512D"/>
<path d="M266.309 403.582L281.189 379.79L296.102 403.597L266.309 403.582Z" fill="#5B3308"/>
<path d="M207.268 118.432L222.117 142.031L236.508 118.164L207.268 118.432Z" fill="#80512D"/>
<path d="M207.286 118.433L221.984 94.7461L236.508 118.4L207.286 118.433Z" fill="#5B3308"/>
<path d="M222.165 189.542L237.096 213.334L251.891 189.542H222.165Z" fill="#80512D"/>
<path d="M207.285 213.334L222.166 189.542L237.086 213.334H207.285Z" fill="#CEC296"/>
<path d="M177.659 213.347L192.466 189.547L207.289 213.338L177.659 213.347Z" fill="#CEC296"/>
<path d="M237.081 213.347L251.888 189.547L266.711 213.338L237.081 213.347Z" fill="#5B3308"/>
<path d="M177.658 165.749L192.536 141.957L207.359 165.749H177.658Z" fill="#CEC296"/>
<path d="M192.332 142.296L207.269 118.433L222.117 141.987L192.332 142.296Z" fill="#CEC296"/>
<path d="M147.881 213.349L162.634 189.581L177.656 213.349H147.881Z" fill="#CEC296"/>
<path d="M162.637 189.581L177.837 165.718L192.469 189.542L162.637 189.581Z" fill="#CEC296"/>
<path d="M192.452 189.531L207.332 213.325L222.191 189.531H192.452Z" fill="#E3E3E3"/>
<path d="M207.315 165.762L222.167 189.546L237.051 165.718L207.315 165.762Z" fill="#80512D"/>
<path d="M162.633 189.581L177.658 213.347L192.48 189.544L162.633 189.581Z" fill="#E3E3E3"/>
<path d="M162.768 237.138L177.654 213.347L192.57 237.143L162.768 237.138Z" fill="#CEC296"/>
<path d="M222.198 237.138L237.083 213.347L252 237.143L222.198 237.138Z" fill="#5B3308"/>
<path d="M192.46 237.138L207.345 213.347L222.262 237.143L192.46 237.138Z" fill="#CEC296"/>
<path d="M132.968 237.138L147.894 213.347L162.77 237.143L132.968 237.138Z" fill="#CEC296"/>
<path d="M251.886 237.138L266.771 213.347L281.688 237.143L251.886 237.138Z" fill="#5B3308"/>
<path d="M162.8 237.143L177.668 260.943L192.566 237.143H162.8Z" fill="#E3E3E3"/>
<path d="M147.89 213.347L162.771 237.138L177.656 213.347H147.89Z" fill="#E3E3E3"/>
<path d="M177.77 165.751L192.462 189.543L207.348 165.751H177.77Z" fill="#E3E3E3"/>
<path d="M177.657 213.348L192.569 237.144L207.363 213.344L177.657 213.348Z" fill="#E3E3E3"/>
<path d="M237.087 213.348L251.999 237.144L266.793 213.344L237.087 213.348Z" fill="#80512D"/>
<path d="M177.644 260.951L192.596 237.142L207.473 261.042L177.644 260.951Z" fill="#CEC296"/>
<path d="M177.671 260.944L192.509 284.576L207.473 261.042L177.671 260.944Z" fill="#E3E3E3"/>
<path d="M177.538 308.522L192.51 284.574L207.402 308.457L177.538 308.522Z" fill="#CEC296"/>
<path d="M177.609 308.449L192.475 332.268L207.402 308.458L177.609 308.449Z" fill="#E3E3E3"/>
<path d="M207.467 261.042L222.25 237.139L237.082 260.937L207.467 261.042Z" fill="#CEC296"/>
<path d="M267.061 261.042L281.685 237.139L296.676 260.937L267.061 261.042Z" fill="#5B3308"/>
<path d="M207.471 261.042L222.305 284.691L237.121 260.901L207.471 261.042Z" fill="#E3E3E3"/>
<path d="M267.061 261.042L281.895 284.691L296.711 260.901L267.061 261.042Z" fill="#80512D"/>
<path d="M192.597 237.154L207.469 261.041L222.332 237.143L192.597 237.154Z" fill="#E3E3E3"/>
<path d="M222.209 237.143L237.074 260.943L251.973 237.143H222.209Z" fill="#80512D"/>
<path d="M237.045 260.951L251.997 237.142L267.102 261.042L237.045 260.951Z" fill="#5B3308"/>
<path d="M252.004 237.154L267.104 261.041L281.688 237.143L252.004 237.154Z" fill="#80512D"/>
<path d="M192.469 284.582L207.464 261.028L222.305 284.691L192.469 284.582Z" fill="#CEC296"/>
<path d="M252.063 284.698L267.058 261.028L281.898 284.691L252.063 284.698Z" fill="#5B3308"/>
<path d="M237.062 260.917L252.076 284.713L267.102 260.995L237.062 260.917Z" fill="#80512D"/>
<path d="M237.144 308.51L252.025 332.301L266.91 308.51H237.144Z" fill="#80512D"/>
<path d="M222.293 284.693L237.111 260.919L252.086 284.711L222.293 284.693Z" fill="#CEC296"/>
<path d="M133.037 237.139L147.866 260.93L162.801 237.139H133.037Z" fill="#E3E3E3"/>
<path d="M147.864 260.935L162.803 237.112L177.668 260.931L147.864 260.935Z" fill="#CEC296"/>
<path d="M147.868 260.931L162.783 284.722L177.668 260.931H147.868Z" fill="#E3E3E3"/>
<path d="M162.81 284.558L177.601 260.775L192.516 284.585L162.81 284.558Z" fill="#CEC296"/>
<path d="M207.381 308.509L222.302 284.687L237.145 308.509H207.381Z" fill="#CEC296"/>
<path d="M237.014 308.509L252.077 284.687L266.883 308.509H237.014Z" fill="#5B3308"/>
<path d="M207.382 308.509L222.263 332.298L237.148 308.507L207.382 308.509Z" fill="#E3E3E3"/>
<path d="M222.268 332.301L237.147 308.51L252.059 332.317L222.268 332.301Z" fill="#CEC296"/>
<path d="M252.045 332.301L266.88 308.51L281.836 332.317L252.045 332.301Z" fill="#5B3308"/>
<path d="M192.472 332.267L207.397 308.462L222.289 332.291L192.472 332.267Z" fill="#CEC296"/>
<path d="M192.471 332.266L207.045 355.83L222.371 332.241L192.471 332.266Z" fill="#E3E3E3"/>
<path d="M237.13 356.031L252.009 379.823L266.832 356.085L237.13 356.031Z" fill="#80512D"/>
<path d="M266.792 356.031L281.243 380.046L296.254 356.031H266.792Z" fill="#80512D"/>
<path d="M266.857 308.505L281.736 332.299L296.621 308.505H266.857Z" fill="#80512D"/>
<path d="M251.979 332.24L266.833 356.095L281.719 332.24H251.979Z" fill="#80512D"/>
<path d="M207.003 355.829L222.002 379.692L237.133 356.086L207.003 355.829Z" fill="#E3E3E3"/>
<path d="M266.863 308.505L281.907 284.714L296.656 308.523L266.863 308.505Z" fill="#5B3308"/>
<path d="M251.978 379.904L266.836 356.076L281.242 379.904H251.978Z" fill="#5B3308"/>
<path d="M221.983 379.692L237.134 356.086L252.102 379.922L221.983 379.692Z" fill="#CEC296"/>
<path d="M192.505 284.574L207.404 308.462L222.305 284.69L192.505 284.574Z" fill="#E3E3E3"/>
<path d="M162.744 284.574L177.622 308.399L192.508 284.574H162.744Z" fill="#E3E3E3"/>
<path d="M222.297 284.695L237.147 308.509L252.078 284.695H222.297Z" fill="#E3E3E3"/>
<path d="M252.076 284.695L266.863 308.509L281.906 284.695H252.076Z" fill="#80512D"/>
<path d="M207.003 355.891L222.31 332.296L237.133 356.088L207.003 355.891Z" fill="#CEC296"/>
<path d="M221.982 379.675L236.875 403.467L252.035 379.879L221.982 379.675Z" fill="#E3E3E3"/>
<path d="M252.009 379.878L266.331 403.6L281.242 379.878L252.009 379.878Z" fill="#80512D"/>
<path d="M236.876 403.468L252.018 379.835L266.344 403.6L236.876 403.468Z" fill="#5B3308"/>
<path d="M237.13 356.086L252.009 332.294L266.832 356.086H237.13Z" fill="#5B3308"/>
<path d="M266.841 356.086L281.72 332.294L296.227 356.086H266.841Z" fill="#5B3308"/>
<path d="M222.294 332.294L237.133 356.086L251.98 332.294H222.294Z" fill="#E3E3E3"/>
<path d="M177.627 70.96L192.419 95.0115L207.199 71.2L177.627 70.96Z" fill="#E3E3E3"/>
<path d="M163.067 94.7073L177.835 71.2363L192.418 94.7465L163.067 94.7073Z" fill="#CEC296"/>
<path d="M133.465 94.7204L148.229 71.2363L163.121 94.7115L133.465 94.7204Z" fill="#CEC296"/>
<path d="M148.137 71.1484L163.107 94.6996L177.922 71.1484H148.137Z" fill="#E3E3E3"/>
<path d="M148.367 118.473L163.113 94.7207L178.031 118.473H148.367Z" fill="#CEC296"/>
<path d="M133.464 94.7217L148.362 118.474L163.062 94.7218L133.464 94.7217Z" fill="#E3E3E3"/>
<path d="M133.528 142.236L148.377 118.471L163.328 142.327L133.528 142.236Z" fill="black"/>
<path d="M148.372 118.473L163.327 142.327L178.176 118.473H148.372Z" fill="#E3E3E3"/>
<path d="M133.545 142.202L148.404 165.954L163.363 142.207L133.545 142.202Z" fill="black"/>
<path d="M222.162 189.546L237.054 165.718L251.895 189.546H222.162Z" fill="#5B3308"/>
<path d="M133.311 189.592L147.844 213.389L162.641 189.592H133.311Z" fill="#E3E3E3"/>
<path d="M163.07 142.251L177.836 165.718L192.43 142.251H163.07Z" fill="#E3E3E3"/>
<path d="M192.383 94.7451L207.213 118.493L221.984 94.7451H192.383Z" fill="#E3E3E3"/>
<path d="M148.189 166.026L163.053 142.278L177.836 165.719L148.189 166.026Z" fill="#CEC296"/>
<path d="M177.908 118.477L192.42 94.7461L207.27 118.433L177.908 118.477Z" fill="#FF6527"/>
<path d="M148.316 165.844L162.641 189.591L177.836 165.718L148.316 165.844Z" fill="#E3E3E3"/>
<path d="M177.876 118.503L192.402 142.251L207.273 118.433L177.876 118.503Z" fill="#E3E3E3"/>
<path d="M133.283 189.591L148.315 165.844L162.641 189.591H133.283Z" fill="#CEC296"/>
<path d="M163.041 142.251L177.924 118.478L192.398 142.251H163.041Z" fill="#CEC296"/>
<path d="M192.418 94.7435L207.178 71.2363L221.992 94.7435H192.418Z" fill="#CEC296"/>
<path d="M163.138 94.7168L177.923 118.464L192.418 94.746L163.138 94.7168Z" fill="#E3E3E3"/>
<path d="M177.568 23.7519L192.531 0L207.34 23.7474L177.568 23.7519Z" fill="#5B3308"/>
<path d="M177.57 23.749L192.355 47.5253L207.348 23.749H177.57Z" fill="#80512D"/>
<path d="M132.84 47.4932L148.226 71.2811L162.578 47.4932H132.84Z" fill="#80512D"/>
<path d="M162.561 47.5273L177.837 71.2631L192.352 47.5273H162.561Z" fill="#80512D"/>
<path d="M148.228 71.2581L162.524 47.5107L177.836 71.2581H148.228Z" fill="#5B3308"/>
<path d="M177.834 71.2581L192.344 47.5107L207.242 71.2737L177.834 71.2581Z" fill="#5B3308"/>
<path d="M163.095 284.722L148.231 308.472L133.422 284.722H163.095Z" fill="#E3E3E3"/>
<path d="M148.191 308.472L133.324 284.722L118.453 308.472H148.191Z" fill="#CEC296"/>
<path d="M177.949 308.472L163.082 284.722L148.211 308.472H177.949Z" fill="#CEC296"/>
<path d="M148.427 261.017L133.631 237.143L118.438 261.032L148.427 261.017Z" fill="#CEC296"/>
<path d="M148.3 261.03L133.433 284.777L118.535 261.014L148.3 261.03Z" fill="#E3E3E3"/>
<path d="M163.107 284.777L148.242 261.03L133.371 284.777H163.107Z" fill="#CEC296"/>
<path d="M148.245 308.485L133.378 332.232L118.48 308.469L148.245 308.485Z" fill="#E3E3E3"/>
<path d="M177.059 497.976L162.545 474.616L147.188 498L177.059 497.976Z" fill="#CEC296"/>
<path d="M206.802 497.974L191.929 474.228L177.066 497.974H206.802Z" fill="black"/>
<path d="M236.535 497.974L221.659 474.228L206.797 497.974H236.535Z" fill="black"/>
<path d="M221.669 474.224L206.802 497.974L191.824 474.224H221.669Z" fill="black"/>
<path d="M162.544 474.615L147.25 497.944L132.441 474.197L162.544 474.615Z" fill="#E3E3E3"/>
<path d="M147.54 497.907L132.762 474.616L118 497.906L147.54 497.907Z" fill="#CEC296"/>
<path d="M236.828 450.85L221.89 474.615L207.027 450.759L236.828 450.85Z" fill="#E3E3E3"/>
<path d="M236.801 450.856L221.976 427.269L207.027 450.759L236.801 450.856Z" fill="#CEC296"/>
<path d="M236.93 403.367L221.972 427.271L207.094 403.432L236.93 403.367Z" fill="#E3E3E3"/>
<path d="M236.859 403.44L222.007 379.666L207.094 403.432L236.859 403.44Z" fill="#CEC296"/>
<path d="M207.032 450.759L192.419 474.615L177.445 450.864L207.032 450.759Z" fill="#E3E3E3"/>
<path d="M147.497 450.76L132.728 474.618L117.91 450.864L147.497 450.76Z" fill="#E3E3E3"/>
<path d="M207.029 450.76L192.209 427.155L177.406 450.9L207.029 450.76Z" fill="#CEC296"/>
<path d="M147.497 450.76L132.677 427.155L117.875 450.9L147.497 450.76Z" fill="#CEC296"/>
<path d="M222.125 474.603L207.028 450.753L192.418 474.614L222.125 474.603Z" fill="#CEC296"/>
<path d="M192.421 474.614L177.455 450.858L162.547 474.614H192.421Z" fill="#CEC296"/>
<path d="M177.482 450.85L162.544 474.615L147.344 450.752L177.482 450.85Z" fill="#E3E3E3"/>
<path d="M162.542 474.615L147.477 450.752L132.762 474.614L162.542 474.615Z" fill="#CEC296"/>
<path d="M222.014 427.264L207.034 450.773L192.207 427.155L222.014 427.264Z" fill="#E3E3E3"/>
<path d="M162.502 427.155L147.499 450.773L132.672 427.155L162.502 427.155Z" fill="#E3E3E3"/>
<path d="M177.467 450.885L162.52 427.133L147.477 450.753L177.467 450.885Z" fill="#CEC296"/>
<path d="M177.387 403.38L162.521 379.632L147.68 403.38H177.387Z" fill="#CEC296"/>
<path d="M192.222 427.152L177.417 450.882L162.457 427.134L192.222 427.152Z" fill="#E3E3E3"/>
<path d="M266.581 450.866L251.656 474.645L236.805 450.87L266.581 450.866Z" fill="#80512D"/>
<path d="M266.576 450.87L251.636 427.286L236.805 450.87H266.576Z" fill="#5B3308"/>
<path d="M251.647 427.287L236.805 450.885L221.969 427.261L251.647 427.287Z" fill="#E3E3E3"/>
<path d="M207.119 403.38L192.212 427.158L177.383 403.38H207.119Z" fill="#E3E3E3"/>
<path d="M177.517 403.38L162.504 427.158L147.676 403.38H177.517Z" fill="#E3E3E3"/>
<path d="M207.117 403.381L192.25 379.635L177.379 403.383L207.117 403.381Z" fill="#CEC296"/>
<path d="M192.251 379.632L177.386 403.38L162.488 379.617L192.251 379.632Z" fill="#E3E3E3"/>
<path d="M162.497 379.632L147.681 403.38L132.734 379.617L162.497 379.632Z" fill="#E3E3E3"/>
<path d="M222.012 379.667L207.101 403.428L192.223 379.643L222.012 379.667Z" fill="#E3E3E3"/>
<path d="M222.012 379.669L207.068 355.89L192.141 379.693L222.012 379.669Z" fill="#CEC296"/>
<path d="M177.396 355.892L162.532 332.144L147.723 355.892H177.396Z" fill="#CEC296"/>
<path d="M147.688 355.892L133.137 332.144L118.328 355.892H147.688Z" fill="#CEC296"/>
<path d="M147.68 403.385L132.835 379.635L119.188 403.385H147.68Z" fill="#CEC296"/>
<path d="M162.563 379.64L147.723 355.892L132.852 379.64H162.563Z" fill="#CEC296"/>
<path d="M207.134 355.892L192.27 332.144L177.398 355.892H207.134Z" fill="#CEC296"/>
<path d="M147.696 403.385L132.692 427.133L119.188 403.385H147.696Z" fill="#E3E3E3"/>
<path d="M162.563 332.118L147.699 355.865L132.93 332.425L162.563 332.118Z" fill="#E3E3E3"/>
<path d="M192.206 332.118L177.395 355.892L162.441 332.1L192.206 332.118Z" fill="#E3E3E3"/>
<path d="M221.978 427.271L207.094 403.427L192.207 427.155L221.978 427.271Z" fill="#CEC296"/>
<path d="M251.637 427.286L236.848 403.49L221.977 427.27L251.637 427.286Z" fill="#CEC296"/>
<path d="M192.218 427.149L177.382 403.38L162.5 427.149H192.218Z" fill="#CEC296"/>
<path d="M162.502 427.149L147.681 403.38L132.672 427.149H162.502Z" fill="#CEC296"/>
<path d="M207.072 355.89L192.207 379.638L177.398 355.89H207.072Z" fill="#E3E3E3"/>
<path d="M192.244 332.143L177.379 308.395L162.508 332.143H192.244Z" fill="#CEC296"/>
<path d="M162.529 332.145L147.838 308.337L132.887 332.489L162.529 332.145Z" fill="#CEC296"/>
<path d="M177.353 308.356L162.524 332.188L147.84 308.338L177.353 308.356Z" fill="#E3E3E3"/>
<path d="M177.396 355.892L162.532 379.64L147.723 355.892H177.396Z" fill="#E3E3E3"/>
<path d="M147.713 355.892L132.848 379.64L118.355 355.892H147.713Z" fill="#E3E3E3"/>
<path d="M192.22 379.64L177.396 355.892L162.562 379.64H192.22Z" fill="#CEC296"/>
<path d="M207.363 213.344L222.255 237.135L237.141 213.344H207.363Z" fill="#E3E3E3"/>
<path d="M192.46 189.543L207.341 165.751L222.164 189.543H192.46Z" fill="#CEC296"/>
<path d="M207.354 165.762L222.114 141.942L237.051 165.718L207.354 165.762Z" fill="#5B3308"/>
<path d="M192.419 142.208L207.356 165.762L222.117 141.963L192.419 142.208Z" fill="#E3E3E3"/>
<path d="M192.421 474.615L177.062 497.976L162.547 474.615H192.421Z" fill="#E3E3E3"/>
<rect x="75" y="475" width="29" height="23" fill="black"/>
<rect x="193" y="475" width="29" height="23" fill="black"/>
</svg>
