<svg width="387" height="357" viewBox="0 0 387 357" fill="none" xmlns="http://www.w3.org/2000/svg">
<path d="M75 47L89.5 71L0.5 214L74.5 333H134L104.5 285.5L134 238L119 214L178.5 119L133.5 47H75Z" fill="#80512D"/>
<path d="M254 48L208.5 118.5L223.3 142.4L208.5 166.5H178.5L104 285.5L134 333L118 356.5H268.5L253 333H223L238 309L223 285.5H253.5L297.5 356.5H327.5L283 285.5H312.5L357 356.5H386.5L312.5 237.5L327.3 214L297.5 166L327.5 119L283 48L268.5 71.5L254 48Z" fill="#A33001"/>
<path d="M386.556 356.51L371.737 332.69L356.902 356.501L386.556 356.51Z" fill="#A33001"/>
<path d="M327.084 356.51L312.265 332.69L297.43 356.501L327.084 356.51Z" fill="#A33001"/>
<path d="M371.753 332.676L356.86 356.489L341.965 332.676H371.753Z" fill="#FF6527"/>
<path d="M312.241 332.682L297.341 356.51L282.504 332.688L312.241 332.682Z" fill="#FF6527"/>
<path d="M357.189 309.037L342.292 285.227L327.363 309.042L357.189 309.037Z" fill="#A33001"/>
<path d="M357.179 309.042L342.301 332.862L327.391 309.042H357.179Z" fill="#FF6527"/>
<path d="M371.736 332.687L356.843 308.876L342.008 332.687H371.736Z" fill="#A33001"/>
<path d="M208.475 356.722L193.564 332.911L178.711 356.722H208.475Z" fill="#A33001"/>
<path d="M238.163 356.735L223.326 332.915L208.473 356.726L238.163 356.735Z" fill="#A33001"/>
<path d="M178.616 356.735L163.779 332.915L148.926 356.726L178.616 356.735Z" fill="#A33001"/>
<path d="M267.999 356.736L253.084 332.905L238.164 356.736H267.999Z" fill="#A33001"/>
<path d="M148.835 356.736L133.92 332.905L119 356.736H148.835Z" fill="#A33001"/>
<path d="M223.34 332.899L208.429 356.712L193.516 332.899H223.34Z" fill="#FF6527"/>
<path d="M253.081 332.905L238.162 356.734L223.309 332.912L253.081 332.905Z" fill="#FF6527"/>
<path d="M163.753 332.905L148.836 356.734L133.98 332.912L163.753 332.905Z" fill="#FF6527"/>
<path d="M193.494 332.96L178.592 356.867L163.699 332.949L193.494 332.96Z" fill="#FF6527"/>
<path d="M252.994 142.452L238.175 118.633L223.34 142.444L252.994 142.452Z" fill="#A33001"/>
<path d="M312.537 142.453L298.411 118.93L282.801 142.444L312.537 142.453Z" fill="#A33001"/>
<path d="M252.995 94.8156L239.146 71.1641L223.27 94.8156H252.995Z" fill="#A33001"/>
<path d="M282.791 142.455L267.801 118.624L252.992 142.455H282.791Z" fill="#A33001"/>
<path d="M267.901 118.628L253.011 94.8174L238.176 118.628H267.901Z" fill="black"/>
<path d="M238.186 118.617L223.294 142.43L208.398 118.617H238.186Z" fill="#FF6527"/>
<path d="M267.801 118.624L252.995 142.453L238.16 118.631L267.801 118.624Z" fill="#FF6527"/>
<path d="M298.409 118.929L282.79 142.453L267.801 118.62L298.409 118.929Z" fill="black"/>
<path d="M178.701 118.8L163.701 142.7L148.801 118.7L178.701 118.8Z" fill="#80512D"/>
<path d="M267.892 166.263L252.995 142.452L238.066 166.267L267.892 166.263Z" fill="#A33001"/>
<path d="M238.177 166.263L223.28 142.452L208.352 166.267L238.177 166.263Z" fill="#A33001"/>
<path d="M297.724 166.263L282.801 142.452L267.898 166.267L297.724 166.263Z" fill="#A33001"/>
<path d="M267.86 166.268L252.981 190.087L238.07 166.268H267.86Z" fill="#FF6527"/>
<path d="M282.801 142.452L267.889 166.263L252.992 142.452H282.801Z" fill="#FF6527"/>
<path d="M253.007 94.8174L238.175 118.628L223.277 94.8174H253.007Z" fill="#FF6527"/>
<path d="M252.996 142.454L238.072 166.269L223.266 142.449L252.996 142.454Z" fill="#FF6527"/>
<path d="M312.535 142.454L297.611 166.269L282.805 142.449L312.535 142.454Z" fill="#FF6527"/>
<path d="M253.009 190.094L238.045 166.266L223.156 190.186L253.009 190.094Z" fill="#A33001"/>
<path d="M252.982 190.088L238.132 213.738L223.156 190.186L252.982 190.088Z" fill="#FF6527"/>
<path d="M253.115 237.704L238.131 213.737L223.227 237.639L253.115 237.704Z" fill="#A33001"/>
<path d="M253.043 237.631L238.166 261.468L223.227 237.64L253.043 237.631Z" fill="#FF6527"/>
<path d="M312.557 190.074L297.667 213.885L282.77 190.074H312.557Z" fill="#FF6527"/>
<path d="M223.158 190.186L208.363 166.264L193.52 190.081L223.158 190.186Z" fill="#A33001"/>
<path d="M223.155 190.185L208.309 213.853L193.48 190.045L223.155 190.185Z" fill="#FF6527"/>
<path d="M238.048 166.279L223.164 190.185L208.289 166.268L238.048 166.279Z" fill="#FF6527"/>
<path d="M208.401 166.268L193.524 190.087L178.613 166.268H208.401Z" fill="#FF6527"/>
<path d="M297.651 166.264L282.81 190.074L267.863 166.264H297.651Z" fill="#FF6527"/>
<path d="M282.812 190.078L267.862 166.236L252.984 190.074L282.812 190.078Z" fill="#A33001"/>
<path d="M312.537 190.078L297.644 166.268L282.789 190.074L312.537 190.078Z" fill="#A33001"/>
<path d="M282.808 190.074L267.882 213.885L252.984 190.074H282.808Z" fill="#FF6527"/>
<path d="M327.448 213.883L312.557 237.696L297.66 213.883H327.448Z" fill="#FF6527"/>
<path d="M312.777 285.281L297.788 261.466L282.953 285.277L312.777 285.281Z" fill="#A33001"/>
<path d="M342.668 285.366L327.53 309.07L312.633 285.259L342.668 285.366Z" fill="#FF6527"/>
<path d="M267.851 213.72L253.047 189.918L238.121 213.747L267.851 213.72Z" fill="#A33001"/>
<path d="M327.433 213.88L312.629 189.918L297.703 213.747L327.433 213.88Z" fill="#A33001"/>
<path d="M238.166 261.468L223.228 237.644L208.324 261.492L238.166 261.468Z" fill="#A33001"/>
<path d="M238.166 261.466L223.195 285.308L208.242 261.441L238.166 261.466Z" fill="#FF6527"/>
<path d="M253.057 285.277L238.166 261.466L223.195 285.308L253.057 285.277Z" fill="#A33001"/>
<path d="M342.636 285.401L327.425 261.45L312.48 285.265L342.636 285.401Z" fill="#A33001"/>
<path d="M282.825 237.633L267.932 261.444L253.035 237.633H282.825Z" fill="#FF6527"/>
<path d="M267.96 261.469L253.06 285.277L238.172 261.469H267.96Z" fill="#FF6527"/>
<path d="M297.743 261.469L282.842 285.277L267.953 261.469H297.743Z" fill="#FF6527"/>
<path d="M327.536 261.469L312.634 285.277L297.746 261.469H327.536Z" fill="#FF6527"/>
<path d="M267.944 261.466L253.036 237.631L238.188 261.459L267.944 261.466Z" fill="#A33001"/>
<path d="M297.731 261.45L282.838 237.64L267.914 261.466L297.731 261.45Z" fill="#A33001"/>
<path d="M327.52 261.45L312.627 237.64L297.703 261.466L327.52 261.45Z" fill="#A33001"/>
<path d="M312.573 237.64L297.682 261.45L282.785 237.64H312.573Z" fill="#FF6527"/>
<path d="M282.854 285.282L267.961 261.469L252.957 285.282H282.854Z" fill="#A33001"/>
<path d="M223.257 285.307L208.366 309.117L193.469 285.307H223.257Z" fill="#FF6527"/>
<path d="M238.137 309.117L223.247 285.304L208.32 309.132L238.137 309.117Z" fill="#A33001"/>
<path d="M282.85 285.283L267.96 309.094L253.062 285.283H282.85Z" fill="#FF6527"/>
<path d="M297.763 309.079L282.87 332.892L267.973 309.079H297.763Z" fill="#FF6527"/>
<path d="M312.653 332.892L297.762 309.079L282.836 332.908L312.653 332.892Z" fill="#A33001"/>
<path d="M297.758 309.078L282.865 285.268L267.941 309.096L297.758 309.078Z" fill="#A33001"/>
<path d="M297.7 213.868L282.807 190.058L267.883 213.884L297.7 213.868Z" fill="#A33001"/>
<path d="M208.305 309.144L193.468 285.307L178.488 309.162L208.305 309.144Z" fill="#A33001"/>
<path d="M312.65 237.704L297.666 213.737L282.762 237.639L312.65 237.704Z" fill="#A33001"/>
<path d="M282.831 237.634L267.898 213.792L253.043 237.632L282.831 237.634Z" fill="#A33001"/>
<path d="M297.671 213.737L282.761 237.644L267.848 213.853L297.671 213.737Z" fill="#FF6527"/>
<path d="M267.917 213.737L253.026 237.581L238.129 213.737H267.917Z" fill="#FF6527"/>
<path d="M223.194 285.308L208.304 261.497L193.469 285.308H223.194Z" fill="#A33001"/>
<path d="M238.218 309.118L223.327 332.929L208.43 309.118H238.218Z" fill="#FF6527"/>
<path d="M208.343 309.118L193.452 332.929L178.555 309.118H208.343Z" fill="#FF6527"/>
<path d="M223.266 332.913L208.373 309.103L193.449 332.929L223.266 332.913Z" fill="#A33001"/>
<path d="M193.428 332.97L178.573 309.074L163.863 332.987L193.428 332.97Z" fill="#A33001"/>
<path d="M238.173 118.628L223.28 94.8174L208.445 118.628H238.173Z" fill="#A33001"/>
<path d="M268.334 71.6057L252.997 94.8215L239.145 71.0107L268.334 71.6057Z" fill="#FF6527"/>
<path d="M327.565 119.037L312.541 142.449L298.398 118.93L327.565 119.037Z" fill="#FF6527"/>
<path d="M297.759 71.5811L283.183 95.3917L268.348 71.5811H297.759Z" fill="#FF6527"/>
<path d="M312.662 95.4191L297.771 71.6084L282.977 95.1114L312.662 95.4191Z" fill="#A33001"/>
<path d="M283.372 95.0467L268.335 71.6064L252.855 94.6044L283.372 95.0467Z" fill="#A33001"/>
<path d="M312.737 95.2371L298.401 118.94L283.371 95.0469L312.737 95.2371Z" fill="#FF6527"/>
<path d="M283.372 95.0458L267.805 118.619L252.855 94.6035L283.372 95.0458Z" fill="#FF6527"/>
<path d="M327.593 118.94L312.703 95.2373L298.398 118.93L327.593 118.94Z" fill="black"/>
<path d="M298.408 118.929L283.371 95.0469L267.801 118.62L298.408 118.929Z" fill="#A33001"/>
<path d="M74.4738 142.511L59.581 118.7L44.7461 142.511H74.4738Z" fill="#5B3308"/>
<path d="M104.127 142.524L89.3075 118.704L74.4727 142.515L104.127 142.524Z" fill="#5B3308"/>
<path d="M163.673 142.524L148.854 118.704L134.004 142.515L163.673 142.524Z" fill="#5B3308"/>
<path d="M133.924 142.526L119.027 118.695L104.125 142.526H133.924Z" fill="#5B3308"/>
<path d="M193.476 237.767L178.585 213.954L163.75 237.767H193.476Z" fill="#A33001"/>
<path d="M223.288 237.767L208.397 213.954L193.562 237.767H223.288Z" fill="#A33001"/>
<path d="M89.3192 118.688L74.4263 142.501L59.5312 118.688H89.3192Z" fill="#80512D"/>
<path d="M119.026 118.695L104.124 142.524L89.2891 118.702L119.026 118.695Z" fill="#80512D"/>
<path d="M148.826 118.695L133.927 142.524L119.09 118.702L148.826 118.695Z" fill="#80512D"/>
<path d="M119.029 166.336L104.132 142.525L89.2031 166.341L119.029 166.336Z" fill="#5B3308"/>
<path d="M59.5485 166.336L44.6512 142.525L29.7227 166.341L59.5485 166.336Z" fill="#5B3308"/>
<path d="M89.3141 166.336L74.4168 142.525L59.4883 166.341L89.3141 166.336Z" fill="#5B3308"/>
<path d="M148.853 166.336L133.956 142.525L119.027 166.341L148.853 166.336Z" fill="#5B3308"/>
<path d="M118.997 166.34L104.118 190.159L89.207 166.34H118.997Z" fill="#80512D"/>
<path d="M133.915 142.525L119.022 166.336L104.125 142.525H133.915Z" fill="#80512D"/>
<path d="M104.128 142.525L89.2043 166.34L74.3984 142.521L104.128 142.525Z" fill="#80512D"/>
<path d="M163.801 142.521L148.747 166.34L133.941 142.521H163.801Z" fill="#80512D"/>
<path d="M104.142 190.165L89.1774 166.337L74.2891 190.257L104.142 190.165Z" fill="#5B3308"/>
<path d="M104.115 190.159L89.2644 213.809L74.2891 190.257L104.115 190.159Z" fill="#80512D"/>
<path d="M104.248 237.776L89.2634 213.81L74.3594 237.712L104.248 237.776Z" fill="#5B3308"/>
<path d="M104.176 237.702L89.299 261.54L74.3594 237.711L104.176 237.702Z" fill="#80512D"/>
<path d="M74.2948 190.257L59.5 166.335L44.6562 190.152L74.2948 190.257Z" fill="#5B3308"/>
<path d="M74.2914 190.258L59.4454 213.926L44.6172 190.117L74.2914 190.258Z" fill="#80512D"/>
<path d="M89.1769 166.351L74.293 190.258L59.418 166.34L89.1769 166.351Z" fill="#80512D"/>
<path d="M59.5379 166.34L44.6607 190.159L29.75 166.34H59.5379Z" fill="#80512D"/>
<path d="M44.6885 190.165L29.7243 166.337L14.8359 190.257L44.6885 190.165Z" fill="#5B3308"/>
<path d="M89.3046 213.816L74.298 190.244L59.4453 213.926L89.3046 213.816Z" fill="#5B3308"/>
<path d="M29.7247 213.95L14.851 190.244L0 213.9L29.7247 213.95Z" fill="#5B3308"/>
<path d="M44.6709 190.133L29.6978 213.948L14.8477 190.25L44.6709 190.133Z" fill="#80512D"/>
<path d="M44.5909 237.763L29.6981 261.573L14.8008 237.763H44.5909Z" fill="#80512D"/>
<path d="M59.4575 213.928L44.6271 190.135L29.6406 213.945L59.4575 213.928Z" fill="#5B3308"/>
<path d="M148.784 166.335L133.942 190.146L118.996 166.335H148.784Z" fill="#80512D"/>
<path d="M133.945 190.151L118.994 166.31L104.117 190.147L133.945 190.151Z" fill="#5B3308"/>
<path d="M193.531 190.151L178.58 166.31L163.703 190.147L193.531 190.151Z" fill="#A33001"/>
<path d="M133.941 190.146L119.014 213.957L104.117 190.146H133.941Z" fill="#80512D"/>
<path d="M193.527 190.146L178.6 213.957L163.703 190.146H193.527Z" fill="#FF6527"/>
<path d="M178.585 213.954L163.694 237.767L148.797 213.954H178.585Z" fill="#FF6527"/>
<path d="M208.36 213.954L193.468 237.767L178.57 213.954H208.36Z" fill="#FF6527"/>
<path d="M238.165 213.954L223.272 237.767L208.375 213.954H238.165Z" fill="#FF6527"/>
<path d="M163.913 285.352L148.925 261.537L134.09 285.348L163.913 285.352Z" fill="#A33001"/>
<path d="M163.993 285.34L148.897 309.151L134 285.34H163.993Z" fill="#FF6527"/>
<path d="M193.801 285.438L178.663 309.142L163.766 285.331L193.801 285.438Z" fill="#FF6527"/>
<path d="M118.984 213.792L104.18 189.99L89.2539 213.819L118.984 213.792Z" fill="#5B3308"/>
<path d="M178.57 213.792L163.766 189.99L148.84 213.819L178.57 213.792Z" fill="#A33001"/>
<path d="M74.3778 237.763L59.4448 213.921L44.5898 237.763H74.3778Z" fill="#5B3308"/>
<path d="M44.7254 237.763L29.6747 213.921L14.9375 237.763H44.7254Z" fill="#5B3308"/>
<path d="M74.3761 237.763L59.4832 261.571L44.5859 237.761L74.3761 237.763Z" fill="#80512D"/>
<path d="M59.4826 261.573L44.592 237.763L29.668 261.589L59.4826 261.573Z" fill="#5B3308"/>
<path d="M89.3024 261.541L74.3649 237.717L59.4609 261.565L89.3024 261.541Z" fill="#5B3308"/>
<path d="M89.2989 261.538L74.328 285.38L59.375 261.514L89.2989 261.538Z" fill="#80512D"/>
<path d="M104.194 285.348L89.3029 261.537L74.332 285.379L104.194 285.348Z" fill="#5B3308"/>
<path d="M208.593 261.536L193.771 285.474L178.551 261.521L208.593 261.536Z" fill="#FF6527"/>
<path d="M193.773 285.473L178.561 261.521L163.617 285.337L193.773 285.473Z" fill="#A33001"/>
<path d="M133.958 237.705L119.065 261.516L104.168 237.705H133.958Z" fill="#80512D"/>
<path d="M119.093 261.54L104.193 285.349L89.3047 261.54H119.093Z" fill="#80512D"/>
<path d="M148.88 261.54L133.978 285.349L119.09 261.54H148.88Z" fill="#FF6527"/>
<path d="M178.669 261.54L163.767 285.349L148.879 261.54H178.669Z" fill="#FF6527"/>
<path d="M119.077 261.537L104.169 237.702L89.3203 261.531L119.077 261.537Z" fill="#5B3308"/>
<path d="M148.864 261.522L133.971 237.711L119.047 261.537L148.864 261.522Z" fill="#A33001"/>
<path d="M178.657 261.522L163.764 237.711L148.84 261.537L178.657 261.522Z" fill="#A33001"/>
<path d="M208.465 261.522L193.572 237.711L178.648 261.537L208.465 261.522Z" fill="#A33001"/>
<path d="M163.71 237.711L148.819 261.522L133.922 237.711H163.71Z" fill="#FF6527"/>
<path d="M193.491 237.711L178.6 261.522L163.703 237.711H193.491Z" fill="#FF6527"/>
<path d="M223.3 237.711L208.409 261.522L193.512 237.711H223.3Z" fill="#FF6527"/>
<path d="M133.987 285.353L119.094 261.54L104.09 285.353H133.987Z" fill="#A33001"/>
<path d="M104.19 285.349L89.2723 309.188L74.375 285.375L104.19 285.349Z" fill="#80512D"/>
<path d="M74.3934 285.378L59.5028 309.189L44.6055 285.378H74.3934Z" fill="#80512D"/>
<path d="M89.2739 309.188L74.3833 285.375L59.457 309.204L89.2739 309.188Z" fill="#5B3308"/>
<path d="M133.983 285.355L119.093 309.166L104.195 285.355H133.983Z" fill="#FF6527"/>
<path d="M119.076 309.159L104.186 285.349L89.2617 309.177L119.076 309.159Z" fill="#5B3308"/>
<path d="M178.879 309.336L163.788 332.957L148.891 309.146L178.879 309.336Z" fill="#FF6527"/>
<path d="M148.9 309.15L134.007 332.963L119.109 309.15H148.9Z" fill="#FF6527"/>
<path d="M163.786 332.963L148.895 309.15L133.969 332.979L163.786 332.963Z" fill="#A33001"/>
<path d="M134.036 332.963L119.145 309.15L104.219 332.979L134.036 332.963Z" fill="#5B3308"/>
<path d="M178.665 309.305L163.763 285.331L148.895 309.151L178.665 309.305Z" fill="#A33001"/>
<path d="M148.891 309.151L133.998 285.34L119.074 309.168L148.891 309.151Z" fill="#A33001"/>
<path d="M208.411 213.941L193.518 190.13L178.594 213.956L208.411 213.941Z" fill="#A33001"/>
<path d="M238.223 213.941L223.33 190.13L208.406 213.956L238.223 213.941Z" fill="#A33001"/>
<path d="M89.2689 213.81L74.3582 237.716L59.4453 213.926L89.2689 213.81Z" fill="#80512D"/>
<path d="M163.783 237.776L148.799 213.81L133.895 237.712L163.783 237.776Z" fill="#A33001"/>
<path d="M133.964 237.705L119.031 213.863L104.176 237.703L133.964 237.705Z" fill="#5B3308"/>
<path d="M119.05 213.81L104.159 237.654L89.2617 213.81H119.05Z" fill="#80512D"/>
<path d="M59.4498 213.93L44.5881 237.763L29.6797 213.93H59.4498Z" fill="#80512D"/>
<path d="M29.6747 213.93L14.9241 237.763L0.015625 213.93H29.6747Z" fill="#80512D"/>
<path d="M74.331 285.381L59.4403 261.57L44.6055 285.381H74.331Z" fill="#5B3308"/>
<path d="M119.122 309.156L104.274 332.985L89.332 309.156H119.122Z" fill="#80512D"/>
<path d="M89.3504 309.191L74.4598 333.002L59.5625 309.191H89.3504Z" fill="#80512D"/>
<path d="M104.278 332.986L89.385 309.175L74.4609 333.001L104.278 332.986Z" fill="#5B3308"/>
<path d="M59.456 261.567L44.6055 285.378L29.7461 261.567H59.456Z" fill="#80512D"/>
<path d="M74.3989 142.521L59.495 166.331L44.5977 142.521H74.3989Z" fill="#80512D"/>
<path d="M134.104 47.2247L119.195 71.0827L104.305 47.2002L134.104 47.2247Z" fill="#80512D"/>
<path d="M104.303 47.2247L89.3947 71.0827L74.5039 47.2002L104.303 47.2247Z" fill="#80512D"/>
<path d="M149.002 71.0515L134.143 47.2002L119.203 71.0827L149.002 71.0515Z" fill="#5B3308"/>
<path d="M149.002 71.083L134.093 94.9655L119.203 71.1098L149.002 71.083Z" fill="#80512D"/>
<path d="M119.206 71.083L104.309 94.9655L89.4062 71.083H119.206Z" fill="#80512D"/>
<path d="M134.104 94.9499L119.222 71.083L104.305 94.9655L134.104 94.9499Z" fill="#5B3308"/>
<path d="M163.901 94.9476L149.018 71.083L134.102 94.9655L163.901 94.9476Z" fill="#5B3308"/>
<path d="M178.548 118.778L163.794 94.9648L149.004 118.793L178.548 118.778Z" fill="#5B3308"/>
<path d="M104.303 94.9477L89.4749 71.083L74.5039 94.9655L104.303 94.9477Z" fill="#5B3308"/>
<path d="M119.206 71.0827L104.278 47.2002L89.4062 71.0827H119.206Z" fill="#5B3308"/>
<path d="M163.901 94.9648L149.048 118.847L134.102 94.9648H163.901Z" fill="#80512D"/>
<path d="M134.104 94.9648L119.208 118.847L104.305 94.9648H134.104Z" fill="#80512D"/>
<path d="M149.002 118.832L134.118 94.9648L119.203 118.847L149.002 118.832Z" fill="#5B3308"/>
<path d="M104.303 94.9648L89.4069 118.847L74.5039 94.9648H104.303Z" fill="#80512D"/>
<path d="M119.206 118.832L104.322 94.9648L89.4062 118.847L119.206 118.832Z" fill="#5B3308"/>
<path d="M89.4009 118.83L74.4282 94.9648L59.6016 118.847L89.4009 118.83Z" fill="#5B3308"/>
<path d="M253.551 50.1175V20.9277" stroke="black" stroke-width="3"/>
<path d="M282.73 51.2508V20.9277" stroke="black" stroke-width="3"/>
<path d="M268.334 71.6061L253.701 47.2812L239.145 71.1638L268.334 71.6061Z" fill="#A33001"/>
<path d="M268.487 0L253.597 23.8107L238.699 0H268.487Z" fill="#80512D"/>
<path d="M297.784 71.5812L282.893 47.7705L268.375 71.5812H297.784Z" fill="#A33001"/>
<path d="M297.688 0.0380859L282.784 23.8488L267.887 0.0380859H297.688Z" fill="#80512D"/>
</svg>
