<svg width="179" height="285" viewBox="0 0 179 285" fill="none" xmlns="http://www.w3.org/2000/svg">
<path d="M89.5 1L0.5 142.4L89.5 283L179 143.5L89.5 1Z" fill="#FF2741"/>
<path d="M74.6208 71.1772L59.7815 47.4521L45 71.1772H74.6208Z" fill="#FF2741"/>
<path d="M104.169 71.191L89.4035 47.457L74.5938 71.1821L104.169 71.191Z" fill="#FF2741"/>
<path d="M104.169 23.7251L89.3323 0L74.5508 23.7251H104.169Z" fill="#A40014"/>
<path d="M133.86 71.1933L119.016 47.4482L104.168 71.1933H133.86Z" fill="#FF2741"/>
<path d="M119.017 47.4517L104.18 23.7266L89.3984 47.4517H119.017Z" fill="#FF2741"/>
<path d="M89.4191 47.4414L74.6117 71.1687L59.7383 47.4414H89.4191Z" fill="#A40014"/>
<path d="M119.02 47.4482L104.172 71.1911L89.3906 47.4549L119.02 47.4482Z" fill="#A40014"/>
<path d="M119.012 94.9284L104.168 71.1904L89.293 94.92L119.012 94.9284Z" fill="#A40014"/>
<path d="M59.7498 94.9155L44.9061 71.1904L30.0312 94.92L59.7498 94.9155Z" fill="#FF2741"/>
<path d="M89.41 94.9157L74.6185 71.1699L59.6914 94.9202L89.41 94.9157Z" fill="#A40014"/>
<path d="M148.732 94.9155L133.888 71.1904L119 94.92L148.732 94.9155Z" fill="#FF2741"/>
<path d="M118.984 94.9209L104.158 118.655L89.3008 94.9209H118.984Z" fill="#A40014"/>
<path d="M133.851 71.1904L119.002 94.9155L104.168 71.1904H133.851Z" fill="#A40014"/>
<path d="M104.186 23.7266L89.4062 47.4517L74.5625 23.7266H104.186Z" fill="#A40014"/>
<path d="M104.168 71.1916L89.2978 94.9211L74.6094 71.1797L104.168 71.1916Z" fill="#FF2741"/>
<path d="M104.187 118.662L89.3015 94.9189L74.4414 118.753L104.187 118.662Z" fill="#FF2741"/>
<path d="M104.16 118.654L89.3629 142.219L74.4414 118.752L104.16 118.654Z" fill="#FF2741"/>
<path d="M104.289 166.1L89.3582 142.22L74.5078 166.036L104.289 166.1Z" fill="#FF2741"/>
<path d="M104.218 166.027L89.3938 189.779L74.5078 166.036L104.218 166.027Z" fill="#FF2741"/>
<path d="M163.521 118.642L148.684 142.367L133.84 118.642H163.521Z" fill="#A40014"/>
<path d="M74.4382 118.752L59.6967 94.916L44.9062 118.648L74.4382 118.752Z" fill="#A40014"/>
<path d="M74.4425 118.752L59.6499 142.335L44.875 118.612L74.4425 118.752Z" fill="#A40014"/>
<path d="M89.2976 94.9111L74.4387 118.752L59.6172 94.9205L89.2976 94.9111Z" fill="#A40014"/>
<path d="M59.7433 94.9209L44.9196 118.655L30.0625 94.9209H59.7433Z" fill="#A40014"/>
<path d="M44.9444 118.662L30.0341 94.9189L15.1992 118.753L44.9444 118.662Z" fill="#FF2741"/>
<path d="M89.4003 142.227L74.4477 118.739L59.6484 142.336L89.4003 142.227Z" fill="#FF2741"/>
<path d="M30.0462 142.411L15.2125 118.739L0.441406 142.336L30.0462 142.411Z" fill="#FF2741"/>
<path d="M44.9271 118.627L30.0078 142.356L15.1641 118.631L44.9271 118.627Z" fill="#A40014"/>
<path d="M44.8471 166.087L30.0078 189.812L15.1641 166.087H44.8471Z" fill="#FF2741"/>
<path d="M59.6661 142.337L44.889 118.63L30.0117 142.337H59.6661Z" fill="#A40014"/>
<path d="M148.661 94.916L133.873 118.641L118.98 94.916H148.661Z" fill="#A40014"/>
<path d="M133.881 118.645L118.984 94.8887L104.16 118.64L133.881 118.645Z" fill="#A40014"/>
<path d="M163.5 118.646L148.661 94.9209L133.859 118.642L163.5 118.646Z" fill="#FF2741"/>
<path d="M133.877 118.642L119.004 142.367L104.16 118.642H133.877Z" fill="#A40014"/>
<path d="M178.122 142.339L163.527 166.091L148.684 142.277L178.122 142.339Z" fill="#FF2741"/>
<path d="M118.975 142.322L104.154 118.617L89.3516 142.229L118.975 142.322Z" fill="#FF2741"/>
<path d="M178.081 142.332L163.33 118.616L148.73 142.278L178.081 142.332Z" fill="#FF2741"/>
<path d="M74.5285 166.086L59.6492 142.33L44.8477 166.086H74.5285Z" fill="#A40014"/>
<path d="M44.9738 166.086L30.0945 142.33L15.293 166.086H44.9738Z" fill="#A40014"/>
<path d="M74.5307 166.087L59.6914 189.81L44.8477 166.085L74.5307 166.087Z" fill="#A40014"/>
<path d="M59.6879 189.812L44.8509 166.087L29.9805 189.828L59.6879 189.812Z" fill="#A40014"/>
<path d="M89.3943 189.778L74.5106 166.04L59.6602 189.803L89.3943 189.778Z" fill="#A40014"/>
<path d="M89.3945 189.776L74.4774 213.533L59.5781 189.752L89.3945 189.776Z" fill="#A40014"/>
<path d="M104.231 213.502L89.3936 189.777L74.4766 213.534L104.231 213.502Z" fill="#FF2741"/>
<path d="M133.894 166.03L119.055 189.755L104.211 166.03H133.894Z" fill="#A40014"/>
<path d="M119.078 189.778L104.232 213.501L89.3906 189.778H119.078Z" fill="#A40014"/>
<path d="M148.761 189.778L133.913 213.501L119.078 189.778H148.761Z" fill="#FF2741"/>
<path d="M119.077 189.777L104.209 166.027L89.3906 189.787L119.077 189.777Z" fill="#A40014"/>
<path d="M148.741 189.761L133.838 166.036L119.031 189.777L148.741 189.761Z" fill="#A40014"/>
<path d="M163.542 166.036L148.705 189.761L133.82 166.036H163.542Z" fill="#FF2741"/>
<path d="M133.915 213.506L119.075 189.778L104.125 213.506H133.915Z" fill="#A40014"/>
<path d="M104.231 213.501L89.3672 237.255L74.5234 213.528L104.231 213.501Z" fill="#FF2741"/>
<path d="M104.232 260.939L89.3687 284.693L74.5703 260.939H104.232Z" fill="#A40014"/>
<path d="M74.5441 213.53L59.707 237.255L44.8633 213.53H74.5441Z" fill="#FF2741"/>
<path d="M89.366 237.256L74.5289 213.528L59.6562 237.271L89.366 237.256Z" fill="#A40014"/>
<path d="M133.915 213.508L119.078 237.233L104.234 213.508H133.915Z" fill="#FF2741"/>
<path d="M119.067 237.226L104.23 213.501L89.3594 237.244L119.067 237.226Z" fill="#A40014"/>
<path d="M148.71 142.35L133.87 118.625L119 142.366L148.71 142.35Z" fill="#A40014"/>
<path d="M89.3648 142.22L74.5077 166.04L59.6484 142.335L89.3648 142.22Z" fill="#FF2741"/>
<path d="M163.614 166.1L148.684 142.22L133.82 166.036L163.614 166.1Z" fill="#A40014"/>
<path d="M133.9 166.03L119.02 142.273L104.219 166.027L133.9 166.03Z" fill="#A40014"/>
<path d="M148.685 142.22L133.828 166.04L118.969 142.335L148.685 142.22Z" fill="#A40014"/>
<path d="M118.985 142.322L104.203 166L89.3594 142.22L118.985 142.322Z" fill="#FF2741"/>
<path d="M59.6552 142.34L44.847 166.087L29.9922 142.34H59.6552Z" fill="#A40014"/>
<path d="M30.046 142.411L15.2884 166.087L0.433594 142.331L30.046 142.411Z" fill="#FF2741"/>
<path d="M74.4819 213.533L59.6448 189.808L44.8633 213.533H74.4819Z" fill="#A40014"/>
<path d="M119.113 237.225L104.223 260.939L89.4297 237.225H119.113Z" fill="#FF2741"/>
<path d="M89.4425 237.258L74.6055 260.983L59.7617 237.258H89.4425Z" fill="#FF2741"/>
<path d="M104.226 260.939L89.4798 237.243L74.6094 260.984L104.226 260.939Z" fill="#A40014"/>
<path d="M59.6538 189.805L44.8568 213.53L30.0508 189.805H59.6538Z" fill="#FF2741"/>
<path d="M74.6105 71.1699L59.6992 94.9114L44.8555 71.1863L74.6105 71.1699Z" fill="#A40014"/>
<path d="M89.3982 47.4517L74.5589 23.7266L59.7773 47.4517H89.3982Z" fill="#FF2741"/>
<path d="M89 95L74.6 71.1494L45 71.4998L59.5 94.9998H30L45 119H15.5L30 142.5L15.5 166H45L30 190H59.5L45 213.5H74.5L89.5 190L59.5 142.5L89 95Z" fill="#A40014"/>
<path d="M89.5 94.9998L103.9 71.1494L133.5 71.4998L119 94.9998H148.5L133.5 119H163L148.5 142.5L163 166H133.5L148.5 190H119L133.5 213.5H104L89 190L119 142.5L89.5 94.9998Z" fill="#A40014"/>
<path d="M3 139.5L0.5 142.5L2.5 145.5H28L30 142.5L28 139.5H3Z" fill="#FF2741"/>
<path d="M151.499 141L148.75 142.3L151.999 147H176.499L178.999 143.5L176.499 141H151.499Z" fill="#FF2741"/>
<path d="M77.5 20.5L74.5 23.7L77 27.5L101.5 28L104 24L101.5 19.5L77.5 20.5Z" fill="#A40014"/>
<path d="M77.4992 68L74.6992 71.2L76.9992 75L100.999 76L104.199 71L101.499 67L77.4992 68Z" fill="#FF2741"/>
<path d="M77.7525 210L74.5 213.5L77.261 217L100.854 218L104.2 213.5L101 209L77.7525 210Z" fill="#FF2741"/>
<path d="M77.5008 258L74.6523 261L77.5008 264.5H101.501L104.201 261L101.501 257L77.5008 258Z" fill="#A40014"/>
</svg>
