<svg width="179" height="285" viewBox="0 0 179 285" fill="none" xmlns="http://www.w3.org/2000/svg">
<path d="M89.0664 1L0.0664062 142.4L89.0664 283L178.566 143.5L89.0664 1Z" fill="#A40014"/>
<path d="M74.1872 71.1772L59.3479 47.4521L44.5664 71.1772H74.1872Z" fill="#A40014"/>
<path d="M103.736 71.191L88.9699 47.457L74.1602 71.1821L103.736 71.191Z" fill="#A40014"/>
<path d="M103.736 23.7251L88.8987 0L74.1172 23.7251H103.736Z" fill="#FF2741"/>
<path d="M133.426 71.1933L118.583 47.4482L103.734 71.1933H133.426Z" fill="#A40014"/>
<path d="M118.583 47.4517L103.746 23.7266L88.9648 47.4517H118.583Z" fill="#A40014"/>
<path d="M88.9855 47.4414L74.1781 71.1687L59.3047 47.4414H88.9855Z" fill="#FF2741"/>
<path d="M118.587 47.4482L103.739 71.1911L88.957 47.4549L118.587 47.4482Z" fill="#FF2741"/>
<path d="M118.578 94.9284L103.734 71.1904L88.8594 94.92L118.578 94.9284Z" fill="#FF2741"/>
<path d="M59.3162 94.9155L44.4725 71.1904L29.5977 94.92L59.3162 94.9155Z" fill="#A40014"/>
<path d="M88.9764 94.9157L74.1849 71.1699L59.2578 94.9202L88.9764 94.9157Z" fill="#FF2741"/>
<path d="M148.298 94.9155L133.454 71.1904L118.566 94.92L148.298 94.9155Z" fill="#A40014"/>
<path d="M118.55 94.9209L103.724 118.655L88.8672 94.9209H118.55Z" fill="#FF2741"/>
<path d="M133.417 71.1904L118.568 94.9155L103.734 71.1904H133.417Z" fill="#FF2741"/>
<path d="M103.752 23.7266L88.9726 47.4517L74.1289 23.7266H103.752Z" fill="#FF2741"/>
<path d="M103.735 71.1916L88.8642 94.9211L74.1758 71.1797L103.735 71.1916Z" fill="#A40014"/>
<path d="M103.753 118.662L88.8679 94.9189L74.0078 118.753L103.753 118.662Z" fill="#A40014"/>
<path d="M103.726 118.654L88.9293 142.219L74.0078 118.752L103.726 118.654Z" fill="#A40014"/>
<path d="M103.855 166.1L88.9246 142.22L74.0742 166.036L103.855 166.1Z" fill="#A40014"/>
<path d="M103.784 166.027L88.9602 189.779L74.0742 166.036L103.784 166.027Z" fill="#A40014"/>
<path d="M163.087 118.642L148.25 142.367L133.406 118.642H163.087Z" fill="#FF2741"/>
<path d="M74.0046 118.752L59.2631 94.916L44.4727 118.648L74.0046 118.752Z" fill="#FF2741"/>
<path d="M74.0089 118.752L59.2163 142.335L44.4414 118.612L74.0089 118.752Z" fill="#FF2741"/>
<path d="M88.864 94.9111L74.0051 118.752L59.1836 94.9205L88.864 94.9111Z" fill="#FF2741"/>
<path d="M59.3097 94.9209L44.486 118.655L29.6289 94.9209H59.3097Z" fill="#FF2741"/>
<path d="M44.5108 118.662L29.6005 94.9189L14.7656 118.753L44.5108 118.662Z" fill="#A40014"/>
<path d="M88.9667 142.227L74.0141 118.739L59.2148 142.336L88.9667 142.227Z" fill="#A40014"/>
<path d="M29.6126 142.411L14.7789 118.739L0.0078125 142.336L29.6126 142.411Z" fill="#A40014"/>
<path d="M44.4935 118.627L29.5742 142.356L14.7305 118.631L44.4935 118.627Z" fill="#FF2741"/>
<path d="M44.4135 166.087L29.5742 189.812L14.7305 166.087H44.4135Z" fill="#A40014"/>
<path d="M59.2325 142.337L44.4554 118.63L29.5781 142.337H59.2325Z" fill="#FF2741"/>
<path d="M148.228 94.916L133.439 118.641L118.547 94.916H148.228Z" fill="#FF2741"/>
<path d="M133.447 118.645L118.55 94.8887L103.727 118.64L133.447 118.645Z" fill="#FF2741"/>
<path d="M163.067 118.646L148.227 94.9209L133.426 118.642L163.067 118.646Z" fill="#A40014"/>
<path d="M133.443 118.642L118.57 142.367L103.727 118.642H133.443Z" fill="#FF2741"/>
<path d="M177.688 142.339L163.094 166.091L148.25 142.277L177.688 142.339Z" fill="#A40014"/>
<path d="M118.541 142.322L103.72 118.617L88.918 142.229L118.541 142.322Z" fill="#A40014"/>
<path d="M177.647 142.332L162.897 118.616L148.297 142.278L177.647 142.332Z" fill="#A40014"/>
<path d="M74.0949 166.086L59.2156 142.33L44.4141 166.086H74.0949Z" fill="#FF2741"/>
<path d="M44.5402 166.086L29.6609 142.33L14.8594 166.086H44.5402Z" fill="#FF2741"/>
<path d="M74.0971 166.087L59.2578 189.81L44.4141 166.085L74.0971 166.087Z" fill="#FF2741"/>
<path d="M59.2543 189.812L44.4173 166.087L29.5469 189.828L59.2543 189.812Z" fill="#FF2741"/>
<path d="M88.9607 189.778L74.077 166.04L59.2266 189.803L88.9607 189.778Z" fill="#FF2741"/>
<path d="M88.9609 189.776L74.0438 213.533L59.1445 189.752L88.9609 189.776Z" fill="#FF2741"/>
<path d="M103.797 213.502L88.96 189.777L74.043 213.534L103.797 213.502Z" fill="#A40014"/>
<path d="M133.46 166.03L118.621 189.755L103.777 166.03H133.46Z" fill="#FF2741"/>
<path d="M118.644 189.778L103.798 213.501L88.957 189.778H118.644Z" fill="#FF2741"/>
<path d="M148.328 189.778L133.479 213.501L118.645 189.778H148.328Z" fill="#A40014"/>
<path d="M118.643 189.777L103.775 166.027L88.957 189.787L118.643 189.777Z" fill="#FF2741"/>
<path d="M148.307 189.761L133.405 166.036L118.598 189.777L148.307 189.761Z" fill="#FF2741"/>
<path d="M163.108 166.036L148.271 189.761L133.387 166.036H163.108Z" fill="#A40014"/>
<path d="M133.481 213.506L118.642 189.778L103.691 213.506H133.481Z" fill="#FF2741"/>
<path d="M103.797 213.501L88.9336 237.255L74.0898 213.528L103.797 213.501Z" fill="#A40014"/>
<path d="M103.799 260.939L88.9352 284.693L74.1367 260.939H103.799Z" fill="#FF2741"/>
<path d="M74.1105 213.53L59.2734 237.255L44.4297 213.53H74.1105Z" fill="#A40014"/>
<path d="M88.9324 237.256L74.0953 213.528L59.2227 237.271L88.9324 237.256Z" fill="#FF2741"/>
<path d="M133.482 213.508L118.645 237.233L103.801 213.508H133.482Z" fill="#A40014"/>
<path d="M118.633 237.226L103.796 213.501L88.9258 237.244L118.633 237.226Z" fill="#FF2741"/>
<path d="M148.276 142.35L133.437 118.625L118.566 142.366L148.276 142.35Z" fill="#FF2741"/>
<path d="M88.9312 142.22L74.0741 166.04L59.2148 142.335L88.9312 142.22Z" fill="#A40014"/>
<path d="M163.18 166.1L148.25 142.22L133.387 166.036L163.18 166.1Z" fill="#FF2741"/>
<path d="M133.466 166.03L118.587 142.273L103.785 166.027L133.466 166.03Z" fill="#FF2741"/>
<path d="M148.251 142.22L133.394 166.04L118.535 142.335L148.251 142.22Z" fill="#FF2741"/>
<path d="M118.551 142.322L103.77 166L88.9258 142.22L118.551 142.322Z" fill="#A40014"/>
<path d="M59.2216 142.34L44.4134 166.087L29.5586 142.34H59.2216Z" fill="#FF2741"/>
<path d="M29.6124 142.411L14.8548 166.087L0 142.331L29.6124 142.411Z" fill="#A40014"/>
<path d="M74.0483 213.533L59.2112 189.808L44.4297 213.533H74.0483Z" fill="#FF2741"/>
<path d="M118.679 237.225L103.79 260.939L88.9961 237.225H118.679Z" fill="#A40014"/>
<path d="M89.0089 237.258L74.1719 260.983L59.3281 237.258H89.0089Z" fill="#A40014"/>
<path d="M103.792 260.939L89.0462 237.243L74.1758 260.984L103.792 260.939Z" fill="#FF2741"/>
<path d="M59.2203 189.805L44.4232 213.53L29.6172 189.805H59.2203Z" fill="#A40014"/>
<path d="M74.1769 71.1699L59.2656 94.9114L44.4219 71.1863L74.1769 71.1699Z" fill="#FF2741"/>
<path d="M88.9646 47.4517L74.1253 23.7266L59.3438 47.4517H88.9646Z" fill="#A40014"/>
<path d="M88.5664 95L74.1664 71.1494L44.5664 71.4998L59.0664 94.9998H29.5664L44.5664 119H15.0664L29.5664 142.5L15.0664 166H44.5664L29.5664 190H59.0664L44.5664 213.5H74.0664L89.0664 190L59.0664 142.5L88.5664 95Z" fill="#FF2741"/>
<path d="M89.0664 94.9998L103.466 71.1494L133.066 71.4998L118.566 94.9998H148.066L133.066 119H162.566L148.066 142.5L162.566 166H133.066L148.066 190H118.566L133.066 213.5H103.566L88.5664 190L118.566 142.5L89.0664 94.9998Z" fill="#FF2741"/>
<path d="M2.56641 139.5L0.0664062 142.5L2.06641 145.5H27.5664L29.5664 142.5L27.5664 139.5H2.56641Z" fill="#A40014"/>
<path d="M151.066 141L148.316 142.3L151.566 147H176.066L178.566 143.5L176.066 141H151.066Z" fill="#A40014"/>
<path d="M77.0664 20.5L74.0664 23.7L76.5664 27.5L101.066 28L103.566 24L101.066 19.5L77.0664 20.5Z" fill="#FF2741"/>
<path d="M77.0656 68L74.2656 71.2L76.5656 75L100.566 76L103.766 71L101.066 67L77.0656 68Z" fill="#A40014"/>
<path d="M77.3189 210L74.0664 213.5L76.8274 217L100.421 218L103.766 213.5L100.566 209L77.3189 210Z" fill="#A40014"/>
<path d="M77.0672 258L74.2188 261L77.0672 264.5H101.067L103.767 261L101.067 257L77.0672 258Z" fill="#FF2741"/>
</svg>
