<svg width="202" height="322" viewBox="0 0 202 322" fill="none" xmlns="http://www.w3.org/2000/svg">
<path d="M84.1123 80.4685L67.336 53.6465L50.625 80.4685H84.1123Z" fill="#A40014"/>
<path d="M117.518 80.4844L100.825 53.6523L84.082 80.4744L117.518 80.4844Z" fill="#A40014"/>
<path d="M117.516 26.822L100.742 0L84.0312 26.822H117.516Z" fill="#FF2741"/>
<path d="M151.087 80.4862L134.306 53.6416L117.52 80.4862H151.087Z" fill="#A40014"/>
<path d="M134.305 53.6462L117.531 26.8242L100.82 53.6462H134.305Z" fill="#A40014"/>
<path d="M100.84 53.6338L84.1 80.4583L67.2852 53.6338H100.84Z" fill="#FF2741"/>
<path d="M134.31 53.6416L117.524 80.4837L100.812 53.6491L134.31 53.6416Z" fill="#FF2741"/>
<path d="M134.301 107.32L117.52 80.4834L100.703 107.31L134.301 107.32Z" fill="#FF2741"/>
<path d="M67.301 107.305L50.5196 80.4834L33.7031 107.31L67.301 107.305Z" fill="#A40014"/>
<path d="M100.832 107.305L84.11 80.46L67.2344 107.31L100.832 107.305Z" fill="#FF2741"/>
<path d="M167.902 107.305L151.12 80.4834L134.289 107.31L167.902 107.305Z" fill="#A40014"/>
<path d="M134.269 107.311L117.507 134.143L100.711 107.311H134.269Z" fill="#FF2741"/>
<path d="M151.077 80.4834L134.29 107.305L117.52 80.4834H151.077Z" fill="#FF2741"/>
<path d="M117.537 26.8242L100.828 53.6462L84.0469 26.8242H117.537Z" fill="#FF2741"/>
<path d="M117.519 80.4842L100.707 107.311L84.1016 80.4707L117.519 80.4842Z" fill="#A40014"/>
<path d="M117.538 134.151L100.71 107.309L83.9102 134.254L117.538 134.151Z" fill="#A40014"/>
<path d="M117.508 134.143L100.779 160.784L83.9102 134.253L117.508 134.143Z" fill="#A40014"/>
<path d="M117.653 187.782L100.773 160.784L83.9844 187.709L117.653 187.782Z" fill="#A40014"/>
<path d="M117.572 187.699L100.813 214.551L83.9844 187.709L117.572 187.699Z" fill="#A40014"/>
<path d="M184.618 134.128L167.844 160.95L151.062 134.128H184.618Z" fill="#FF2741"/>
<path d="M83.9103 134.253L67.2445 107.306L50.5234 134.135L83.9103 134.253Z" fill="#FF2741"/>
<path d="M83.9114 134.253L67.1879 160.914L50.4844 134.095L83.9114 134.253Z" fill="#FF2741"/>
<path d="M100.707 107.3L83.9086 134.253L67.1523 107.31L100.707 107.3Z" fill="#FF2741"/>
<path d="M67.2934 107.311L50.5347 134.143L33.7383 107.311H67.2934Z" fill="#FF2741"/>
<path d="M50.5655 134.151L33.7088 107.309L16.9375 134.254L50.5655 134.151Z" fill="#A40014"/>
<path d="M100.823 160.792L83.9186 134.238L67.1875 160.915L100.823 160.792Z" fill="#A40014"/>
<path d="M33.7192 161L16.9492 134.238L0.25 160.915L33.7192 161Z" fill="#A40014"/>
<path d="M50.5426 134.112L33.6759 160.939L16.8945 134.117L50.5426 134.112Z" fill="#FF2741"/>
<path d="M50.4522 187.767L33.6759 214.589L16.8945 187.767H50.4522Z" fill="#A40014"/>
<path d="M67.205 160.917L50.499 134.115L33.6797 160.917H67.205Z" fill="#FF2741"/>
<path d="M167.821 107.306L151.102 134.128L134.266 107.306H167.821Z" fill="#FF2741"/>
<path d="M151.108 134.133L134.267 107.275L117.508 134.128L151.108 134.133Z" fill="#FF2741"/>
<path d="M184.596 134.133L167.82 107.311L151.086 134.128L184.596 134.133Z" fill="#A40014"/>
<path d="M151.103 134.128L134.289 160.95L117.508 134.128H151.103Z" fill="#FF2741"/>
<path d="M201.124 160.919L184.625 187.772L167.844 160.85L201.124 160.919Z" fill="#A40014"/>
<path d="M134.255 160.9L117.5 134.101L100.766 160.795L134.255 160.9Z" fill="#A40014"/>
<path d="M201.08 160.912L184.404 134.1L167.898 160.85L201.08 160.912Z" fill="#A40014"/>
<path d="M84.0083 187.766L67.1867 160.909L50.4531 187.766H84.0083Z" fill="#FF2741"/>
<path d="M50.5981 187.766L33.7766 160.909L17.043 187.766H50.5981Z" fill="#FF2741"/>
<path d="M84.0108 187.767L67.2345 214.587L50.4531 187.765L84.0108 187.767Z" fill="#FF2741"/>
<path d="M67.2298 214.589L50.456 187.767L33.6445 214.606L67.2298 214.589Z" fill="#FF2741"/>
<path d="M100.815 214.551L83.9881 187.714L67.1992 214.579L100.815 214.551Z" fill="#FF2741"/>
<path d="M100.818 214.548L83.9535 241.405L67.1094 214.521L100.818 214.548Z" fill="#FF2741"/>
<path d="M117.587 241.371L100.813 214.549L83.9492 241.406L117.587 241.371Z" fill="#A40014"/>
<path d="M151.124 187.702L134.348 214.524L117.566 187.702H151.124Z" fill="#FF2741"/>
<path d="M134.375 214.551L117.591 241.37L100.812 214.551H134.375Z" fill="#FF2741"/>
<path d="M167.933 214.551L151.146 241.37L134.375 214.551H167.933Z" fill="#A40014"/>
<path d="M134.37 214.549L117.561 187.699L100.809 214.56L134.37 214.549Z" fill="#FF2741"/>
<path d="M167.908 214.531L151.06 187.709L134.32 214.549L167.908 214.531Z" fill="#FF2741"/>
<path d="M184.64 187.709L167.866 214.531L151.039 187.709H184.64Z" fill="#A40014"/>
<path d="M151.151 241.375L134.375 214.551L117.473 241.375H151.151Z" fill="#FF2741"/>
<path d="M117.589 241.37L100.785 268.225L84.0039 241.4L117.589 241.37Z" fill="#A40014"/>
<path d="M117.589 295L100.785 321.855L84.0039 295.03L117.589 295Z" fill="#FF2741"/>
<path d="M84.0239 241.403L67.2501 268.225L50.4688 241.403H84.0239Z" fill="#A40014"/>
<path d="M100.783 268.226L84.0093 241.401L67.1953 268.243L100.783 268.226Z" fill="#FF2741"/>
<path d="M151.149 241.378L134.375 268.2L117.594 241.378H151.149Z" fill="#A40014"/>
<path d="M134.363 268.192L117.589 241.37L100.777 268.212L134.363 268.192Z" fill="#FF2741"/>
<path d="M167.877 160.932L151.101 134.11L134.289 160.95L167.877 160.932Z" fill="#FF2741"/>
<path d="M100.783 160.784L83.9864 187.714L67.1875 160.915L100.783 160.784Z" fill="#A40014"/>
<path d="M184.722 187.782L167.843 160.784L151.039 187.709L184.722 187.782Z" fill="#FF2741"/>
<path d="M151.129 187.702L134.308 160.845L117.574 187.699L151.129 187.702Z" fill="#FF2741"/>
<path d="M167.845 160.784L151.049 187.714L134.25 160.915L167.845 160.784Z" fill="#FF2741"/>
<path d="M134.27 160.9L117.559 187.644L100.777 160.784L134.27 160.9Z" fill="#A40014"/>
<path d="M67.1952 160.92L50.4541 187.767L33.6602 160.92H67.1952Z" fill="#FF2741"/>
<path d="M33.72 161L17.0361 187.767L0.242188 160.91L33.72 161Z" fill="#A40014"/>
<path d="M83.9536 241.406L67.1798 214.584L50.4688 241.406H83.9536Z" fill="#FF2741"/>
<path d="M134.413 268.19L117.58 295L100.855 268.19H134.413Z" fill="#A40014"/>
<path d="M100.872 268.228L84.0977 295.05L67.3164 268.228H100.872Z" fill="#A40014"/>
<path d="M117.58 295L100.909 268.211L84.0977 295.051L117.58 295Z" fill="#FF2741"/>
<path d="M67.1938 214.581L50.4652 241.403L33.7266 214.581H67.1938Z" fill="#A40014"/>
<path d="M84.1 80.46L67.2423 107.3L50.4609 80.4785L84.1 80.46Z" fill="#FF2741"/>
<path d="M100.823 53.6462L84.047 26.8242L67.3359 53.6462H100.823Z" fill="#A40014"/>
</svg>
