<svg width="418" height="315" viewBox="0 0 418 315" fill="none" xmlns="http://www.w3.org/2000/svg">
<path d="M387 171L343 242.5L387.5 314H417L372 242L417 171H387Z" fill="#1C35C6"/>
<path d="M45 242L0 170.5H29.9L74.5 242L30 313.5H0.5L45 242Z" fill="#1C35C6"/>
<path d="M119 171L75 242L119.216 314H298L343 242.5L298.339 171H119Z" fill="#1C35C6"/>
<path d="M194.597 146.247L222.219 97.1898L208.262 74.1236H178.844L148.758 27.9077L163.467 2H222.219L268.435 74.1236L221.133 147.064" stroke="#007BED" stroke-width="3"/>
<path d="M313.188 242.448L298.244 218.549L283.355 242.448H313.188Z" fill="#1C35C6"/>
<path d="M343.109 242.448L328.165 218.549L313.277 242.448H343.109Z" fill="#1C35C6"/>
<path d="M238.44 170.764L223.507 194.669L208.543 170.764H238.44Z" fill="#1C35C6"/>
<path d="M223.534 194.676L208.516 170.762L193.574 194.768L223.534 194.676Z" fill="#007BED"/>
<path d="M223.507 194.669L208.603 218.404L193.574 194.768L223.507 194.669Z" fill="#007BED"/>
<path d="M223.64 242.456L208.602 218.404L193.645 242.392L223.64 242.456Z" fill="#007BED"/>
<path d="M223.568 242.382L208.638 266.305L193.645 242.391L223.568 242.382Z" fill="#007BED"/>
<path d="M283.297 194.655L268.353 218.551L253.402 194.655H283.297Z" fill="#007BED"/>
<path d="M193.573 194.767L178.725 170.759L163.828 194.662L193.573 194.767Z" fill="#1C35C6"/>
<path d="M133.717 194.767L118.87 170.759L103.973 194.662L133.717 194.767Z" fill="#1C35C6"/>
<path d="M193.574 194.768L178.674 218.521L163.793 194.627L193.574 194.768Z" fill="#1C35C6"/>
<path d="M133.714 194.768L118.815 218.521L103.934 194.627L133.714 194.768Z" fill="#007BED"/>
<path d="M208.514 170.775L193.577 194.768L178.648 170.764L208.514 170.775Z" fill="#1C35C6"/>
<path d="M178.777 170.764L163.847 194.669L148.883 170.764H178.777Z" fill="#007BED"/>
<path d="M163.87 194.676L148.852 170.762L133.91 194.768L163.87 194.676Z" fill="#1C35C6"/>
<path d="M148.846 170.775L133.909 194.768L118.98 170.764L148.846 170.775Z" fill="#007BED"/>
<path d="M208.642 218.411L193.582 194.754L178.676 218.521L208.642 218.411Z" fill="#1C35C6"/>
<path d="M148.787 218.411L133.726 194.754L118.82 218.521L148.787 218.411Z" fill="#1C35C6"/>
<path d="M163.849 194.643L148.822 218.543L133.871 194.647L163.849 194.643Z" fill="#007BED"/>
<path d="M163.768 242.444L148.822 266.34L133.871 242.444H163.768Z" fill="#007BED"/>
<path d="M178.689 218.524L163.806 194.646L148.766 218.542L178.689 218.524Z" fill="#1C35C6"/>
<path d="M118.83 218.524L103.946 194.646L88.9062 218.542L118.83 218.524Z" fill="#1C35C6"/>
<path d="M268.331 170.759L253.436 194.655L238.438 170.759H268.331Z" fill="#007BED"/>
<path d="M253.443 194.66L238.438 170.733L223.508 194.656L253.443 194.66Z" fill="#1C35C6"/>
<path d="M313.24 194.66L298.235 170.733L283.305 194.656L313.24 194.66Z" fill="#1C35C6"/>
<path d="M298.229 170.759L283.283 194.655L268.332 170.759H298.229Z" fill="#007BED"/>
<path d="M283.28 194.66L268.334 170.764L253.426 194.656L283.28 194.66Z" fill="#1C35C6"/>
<path d="M253.438 194.655L238.459 218.551L223.508 194.655H253.438Z" fill="#1C35C6"/>
<path d="M313.235 194.655L298.255 218.551L283.305 194.655H313.235Z" fill="#007BED"/>
<path d="M298.246 218.549L283.302 242.448L268.352 218.549H298.246Z" fill="#007BED"/>
<path d="M328.12 218.549L313.173 242.448L298.223 218.549H328.12Z" fill="#007BED"/>
<path d="M283.516 290.204L268.474 266.304L253.586 290.2L283.516 290.204Z" fill="#1C35C6"/>
<path d="M283.593 290.19L268.443 314.086L253.492 290.19H283.593Z" fill="#007BED"/>
<path d="M313.514 290.289L298.322 314.078L283.371 290.182L313.514 290.289Z" fill="#007BED"/>
<path d="M238.43 218.386L223.574 194.499L208.594 218.412L238.43 218.386Z" fill="#1C35C6"/>
<path d="M298.227 218.386L283.37 194.499L268.391 218.412L298.227 218.386Z" fill="#1C35C6"/>
<path d="M193.664 242.443L178.678 218.516L163.77 242.443H193.664Z" fill="#1C35C6"/>
<path d="M163.902 242.443L148.916 218.516L134.008 242.443H163.902Z" fill="#1C35C6"/>
<path d="M193.663 242.443L178.716 266.337L163.766 242.441L193.663 242.443Z" fill="#1C35C6"/>
<path d="M178.714 266.34L163.771 242.444L148.793 266.356L178.714 266.34Z" fill="#1C35C6"/>
<path d="M148.8 266.34L133.856 242.444L118.879 266.356L148.8 266.34Z" fill="#1C35C6"/>
<path d="M208.635 266.306L193.645 242.397L178.688 266.331L208.635 266.306Z" fill="#1C35C6"/>
<path d="M208.637 266.303L193.612 290.231L178.605 266.279L208.637 266.303Z" fill="#1C35C6"/>
<path d="M163.781 290.229L148.837 314.125L133.949 290.229H163.781Z" fill="#007BED"/>
<path d="M133.915 290.229L119.22 314L104.398 290.229H133.915Z" fill="#007BED"/>
<path d="M104.231 242.328L89.6029 266.224L74.7148 242.328H104.231Z" fill="#1C35C6"/>
<path d="M133.926 242.439L118.982 266.337L104.031 242.439H133.926Z" fill="#007BED"/>
<path d="M148.866 266.333L133.947 290.23L118.996 266.333H148.866Z" fill="#007BED"/>
<path d="M223.582 290.2L208.638 266.304L193.613 290.231L223.582 290.2Z" fill="#007BED"/>
<path d="M328.361 266.301L313.486 290.325L298.211 266.286L328.361 266.301Z" fill="#007BED"/>
<path d="M313.479 290.326L298.213 266.289L283.215 290.189L313.479 290.326Z" fill="#1C35C6"/>
<path d="M253.46 242.385L238.514 266.281L223.562 242.385H253.46Z" fill="#1C35C6"/>
<path d="M238.535 266.307L223.582 290.2L208.641 266.307H238.535Z" fill="#1C35C6"/>
<path d="M268.432 266.307L253.477 290.2L238.535 266.307H268.432Z" fill="#007BED"/>
<path d="M298.334 266.307L283.379 290.2L268.438 266.307H298.334Z" fill="#007BED"/>
<path d="M238.52 266.303L223.558 242.382L208.656 266.296L238.52 266.303Z" fill="#1C35C6"/>
<path d="M268.416 266.288L253.47 242.392L238.492 266.304L268.416 266.288Z" fill="#1C35C6"/>
<path d="M298.314 266.288L283.368 242.392L268.391 266.304L298.314 266.288Z" fill="#1C35C6"/>
<path d="M328.232 266.288L313.286 242.392L298.309 266.304L328.232 266.288Z" fill="#1C35C6"/>
<path d="M283.317 242.392L268.373 266.288L253.422 242.392H283.317Z" fill="#007BED"/>
<path d="M313.199 242.392L298.255 266.288L283.305 242.392H313.199Z" fill="#007BED"/>
<path d="M343.121 242.392L328.177 266.288L313.227 242.392H343.121Z" fill="#1C35C6"/>
<path d="M253.481 290.205L238.535 266.307L223.477 290.205H253.481Z" fill="#1C35C6"/>
<path d="M223.582 290.2L208.611 314.125L193.66 290.227L223.582 290.2Z" fill="#007BED"/>
<path d="M193.672 290.229L178.728 314.125L163.777 290.229H193.672Z" fill="#1C35C6"/>
<path d="M208.61 314.125L193.667 290.227L178.688 314.141L208.61 314.125Z" fill="#1C35C6"/>
<path d="M253.485 290.206L238.541 314.102L223.59 290.206H253.485Z" fill="#1C35C6"/>
<path d="M238.527 314.096L223.583 290.2L208.605 314.114L238.527 314.096Z" fill="#1C35C6"/>
<path d="M298.322 314.241L283.367 290.182L268.445 314.087L298.322 314.241Z" fill="#1C35C6"/>
<path d="M268.447 314.086L253.501 290.19L238.523 314.104L268.447 314.086Z" fill="#1C35C6"/>
<path d="M268.381 218.537L253.435 194.641L238.457 218.552L268.381 218.537Z" fill="#1C35C6"/>
<path d="M328.178 218.537L313.231 194.641L298.254 218.552L328.178 218.537Z" fill="#1C35C6"/>
<path d="M133.924 242.439L118.978 218.542L104 242.456L133.924 242.439Z" fill="#1C35C6"/>
<path d="M148.874 314.151L133.93 290.255L119.5 314L148.874 314.151Z" fill="#1C35C6"/>
<path d="M119.19 266.251L104.246 242.354L89.3984 265.942L119.19 266.251Z" fill="#1C35C6"/>
<path d="M178.67 314.151L163.78 290.229L148.746 314.169L178.67 314.151Z" fill="#1C35C6"/>
<path d="M208.606 218.404L193.642 242.396L178.676 218.52L208.606 218.404Z" fill="#1C35C6"/>
<path d="M283.39 242.456L268.352 218.404L253.395 242.392L283.39 242.456Z" fill="#1C35C6"/>
<path d="M253.465 242.386L238.479 218.458L223.57 242.384L253.465 242.386Z" fill="#1C35C6"/>
<path d="M268.356 218.404L253.392 242.396L238.426 218.52L268.356 218.404Z" fill="#007BED"/>
<path d="M238.5 218.404L223.556 242.333L208.605 218.404H238.5Z" fill="#1C35C6"/>
<path d="M178.685 218.524L163.77 242.443L148.809 218.524H178.685Z" fill="#007BED"/>
<path d="M148.912 218.524L133.997 242.443L119.035 218.524H148.912Z" fill="#007BED"/>
<path d="M118.924 218.524L104.009 242.443L89.0469 218.524H118.924Z" fill="#007BED"/>
<path d="M193.609 290.232L178.665 266.335L163.777 290.232H193.609Z" fill="#1C35C6"/>
<path d="M163.781 290.23L148.837 266.333L133.949 290.23H163.781Z" fill="#1C35C6"/>
<path d="M119.027 266.333L104.423 290.23L89.4727 266.333H119.027Z" fill="#007BED"/>
<path d="M133.944 290.23L119 266.333L104.43 290.23H133.944Z" fill="#1C35C6"/>
<path d="M104.26 242.328L89.3164 218.432L74.7461 242.328H104.26Z" fill="#1C35C6"/>
<path d="M401.991 194.767L387.143 170.759L372.246 194.662L401.991 194.767Z" fill="#1C35C6"/>
<path d="M401.988 194.768L387.088 218.521L372.207 194.627L401.988 194.768Z" fill="#007BED"/>
<path d="M416.882 170.841L401.983 194.594L387.102 170.7L416.882 170.841Z" fill="#007BED"/>
<path d="M387.107 218.524L372.224 194.646L357.184 218.542L387.107 218.524Z" fill="#1C35C6"/>
<path d="M402.188 290.229L387.56 314.125L372.672 290.229H402.188Z" fill="#007BED"/>
<path d="M372.501 242.328L357.872 266.224L342.984 242.328H372.501Z" fill="#1C35C6"/>
<path d="M417.141 314.151L402.197 290.255L387.5 314L417.141 314.151Z" fill="#1C35C6"/>
<path d="M387.456 266.251L372.5 242.3L357.664 265.942L387.456 266.251Z" fill="#1C35C6"/>
<path d="M387.187 218.524L372.001 242L357.172 218.524H387.187Z" fill="#007BED"/>
<path d="M387.305 266.333L372.701 290.23L357.75 266.333H387.305Z" fill="#007BED"/>
<path d="M402.217 290.23L387.273 266.333L372.703 290.23H402.217Z" fill="#1C35C6"/>
<path d="M372.526 242.328L357.19 218.5L343.012 242.328H372.526Z" fill="#1C35C6"/>
<path d="M178.687 266.333L163.784 290.23L148.871 266.333H178.687Z" fill="#007BED"/>
<path d="M223.42 146.341L208.483 170.333L193.555 146.33L223.42 146.341Z" fill="#474747"/>
<path d="M74.7735 242.115L59.8295 218.216L44.9414 242.115H74.7735Z" fill="#1C35C6"/>
<path d="M44.9076 194.327L29.9032 170.4L14.9727 194.323L44.9076 194.327Z" fill="#1C35C6"/>
<path d="M29.8969 170.427L14.9507 194.323L0 170.427H29.8969Z" fill="#007BED"/>
<path d="M44.9031 194.323L29.9234 218.219L14.9727 194.323H44.9031Z" fill="#007BED"/>
<path d="M59.7914 218.216L44.8452 242.115L29.8945 218.216H59.7914Z" fill="#007BED"/>
<path d="M45.1821 289.956L29.9897 313.744L15.0391 289.848L45.1821 289.956Z" fill="#007BED"/>
<path d="M60.0248 265.967L45.1501 289.991L29.875 265.952L60.0248 265.967Z" fill="#007BED"/>
<path d="M45.1584 289.992L29.8922 265.955L14.8945 289.855L45.1584 289.992Z" fill="#1C35C6"/>
<path d="M59.9081 265.954L44.9619 242.058L29.9844 265.97L59.9081 265.954Z" fill="#1C35C6"/>
<path d="M74.7853 242.058L59.8413 265.954L44.8906 242.058H74.7853Z" fill="#1C35C6"/>
<path d="M29.994 313.908L15.0388 289.848L0.117188 313.753L29.994 313.908Z" fill="#1C35C6"/>
<path d="M59.8495 218.203L44.9033 194.307L29.9258 218.218L59.8495 218.203Z" fill="#1C35C6"/>
<path d="M196.002 191.5L193.602 194.7L196.002 198.5H221.002L223.502 194.5L221.502 191.5H196.002Z" fill="#007BED"/>
<path d="M196.001 239L193.648 242.4L196.001 246H221.001L223.501 242.5L221.501 239H196.001Z" fill="#007BED"/>
<path d="M196.001 287L193.648 290.4L196.001 294H221.001L223.6 290.2L221.501 287H196.001Z" fill="#007BED"/>
</svg>
