<svg width="418" height="315" viewBox="0 0 418 315" fill="none" xmlns="http://www.w3.org/2000/svg">
<path d="M195.597 146.247L223.219 97.1898L209.262 74.1236H179.844L149.758 27.9077L164.467 2H223.219L269.435 74.1236L222.133 147.064" stroke="#A842F9" stroke-width="3"/>
<path d="M224.42 146.34L209.483 170.333L194.555 146.329L224.42 146.34Z" fill="#474747"/>
<path d="M118.5 170.5L298 170L343 242.28L387 170H417.5L372.42 242.25L417.12 314.15H387L343.03 242.53L298.5 314.5L119.202 314L74.8537 242.795L30.5 314H0L44.5 242.561L0 170H30.5L74.7957 242.227L118.5 170.5Z" fill="#63179F"/>
<mask id="mask0_454_17960" style="mask-type:alpha" maskUnits="userSpaceOnUse" x="81" y="159" width="281" height="118">
<path d="M112.045 212.922L113.718 201.575L83.2429 197.054L81.5697 208.401L112.045 212.922Z" fill="white"/>
<path d="M124.336 238.19C128.111 244.484 135.151 248.458 145.476 249.99C155.427 251.466 163.65 250.01 169.895 245.584C176.14 241.159 179.87 234.831 181.102 226.477C181.874 221.24 181.149 216.673 179.195 212.688C177.116 208.684 173.858 205.78 169.564 203.869C172.466 203.153 175.087 201.757 177.122 200.021C180.48 197.078 182.616 192.936 183.407 187.574C184.51 180.092 182.868 173.987 178.605 169.278C174.342 164.568 167.777 161.683 158.945 160.373C147.625 158.694 139.182 161.647 133.652 168.981C130.359 173.207 128.306 178.509 127.35 184.993L138.048 186.58C139.013 181.754 140.454 178.018 142.351 175.496C145.929 171.057 151.254 169.426 158.593 170.514C162.698 171.123 166.14 172.781 168.776 175.592C171.536 178.423 172.657 182.029 172.014 186.394C171.149 192.254 168.198 195.894 163.264 197.456C160.45 198.44 156.999 198.565 152.894 197.956L150.407 197.587C149.554 197.333 148.684 197.204 147.582 196.913L146.167 206.515C146.913 206.625 147.659 206.736 148.424 206.722L150.663 207.054C157.131 208.014 162.047 210.017 165.43 212.94C168.688 215.844 169.928 220.36 169.046 226.345C168.329 231.208 165.999 234.94 162.056 237.541C158.114 240.142 153.291 240.955 147.569 240.107C140.105 239 135.355 235.874 133.156 230.961C131.925 228.102 131.518 223.965 131.866 218.155L120.422 216.458C119.227 224.563 120.455 231.753 124.336 238.19Z" fill="white"/>
<path d="M251.486 188.497C247.765 178.389 240.36 172.576 229.165 170.916C216.601 169.052 207.044 174.388 200.244 186.886C196.708 193.624 194.089 201.9 192.618 211.876C190.743 224.594 191.35 235.133 194.582 243.385C198.358 253.119 205.39 258.876 215.839 260.426C227.407 262.142 236.55 257.892 243.305 247.426C248.052 240.23 251.228 230.762 252.993 218.792C254.832 206.323 254.294 196.177 251.486 188.497ZM231.865 244.837C227.877 249.47 222.907 251.281 217.309 250.451C210.219 249.399 205.85 244.546 204.079 235.874C203.022 230.111 203.075 222.856 204.38 214.002C206.127 202.157 209.068 193.419 212.936 187.876C216.822 182.209 221.866 179.899 228.334 180.859C235.3 181.892 239.567 185.71 241.099 192.563C242.524 199.273 242.573 207.562 241.102 217.538C239.08 231.254 235.959 240.348 231.865 244.837Z" fill="white"/>
<path d="M285.455 270.752L347.238 188.811L340.521 187.814L278.738 269.755L285.455 270.752ZM303.446 190.98C299.967 186.132 295.285 183.399 289.315 182.513C283.468 181.646 278.199 182.903 273.469 186.534C268.757 190.04 265.907 194.714 265.043 200.574C264.178 206.435 265.558 211.736 269.056 216.46C272.535 221.308 277.217 224.041 283.063 224.908C289.034 225.794 294.304 224.537 299.034 220.906C303.745 217.4 306.595 212.726 307.46 206.866C308.324 201.005 306.945 195.704 303.446 190.98ZM293.839 213.892C290.984 216.017 287.815 216.821 284.332 216.305C280.849 215.788 278.172 214.117 276.052 211.254C273.932 208.391 273.235 205.357 273.75 201.866C274.265 198.374 275.826 195.548 278.663 193.548C281.518 191.423 284.545 190.725 288.028 191.241C291.51 191.758 294.33 193.323 296.45 196.186C298.446 199.03 299.267 202.083 298.752 205.574C298.237 209.065 296.571 211.749 293.839 213.892ZM356.814 241.963C353.316 237.24 348.653 234.382 342.807 233.515C336.836 232.629 331.548 234.011 326.836 237.517C322.125 241.023 319.275 245.697 318.41 251.558C317.546 257.418 318.925 262.719 322.423 267.443C325.922 272.167 330.585 275.025 336.555 275.91C342.402 276.777 347.69 275.395 352.401 271.889C357.113 268.383 359.963 263.709 360.827 257.849C361.691 251.988 360.312 246.687 356.814 241.963ZM347.207 264.876C344.352 267 341.183 267.804 337.824 267.306C334.341 266.79 331.54 265.1 329.42 262.237C327.299 259.374 326.603 256.34 327.118 252.849C327.633 249.358 329.175 246.656 332.03 244.531C334.886 242.406 338.055 241.602 341.538 242.119C344.897 242.617 347.698 244.306 349.818 247.169C351.814 250.014 352.635 253.066 352.12 256.557C351.605 260.049 349.938 262.732 347.207 264.876Z" fill="white"/>
</mask>
<g mask="url(#mask0_454_17960)">
<path d="M118.5 170.5L298 170L343 242.28L387 170H417.5L372.42 242.25L417.12 314.15H387L343.03 242.53L298.5 314.5L119.202 314L74.8537 242.795L30.5 314H0L44.5 242.561L0 170H30.5L74.7957 242.227L118.5 170.5Z" fill="white"/>
</g>
</svg>
