<svg width="359" height="270" viewBox="0 0 359 270" fill="none" xmlns="http://www.w3.org/2000/svg">
<path d="M168.089 125.707L191.777 83.6348L179.808 63.8533H154.579L128.777 24.2184L141.392 2H191.777L231.412 63.8533L190.846 126.407" stroke="#A842F9" stroke-width="3"/>
<path d="M192.808 125.787L179.998 146.363L167.195 125.777L192.808 125.787Z" fill="#474747"/>
<path d="M101.969 146.506L255.909 146.077L294.501 208.065L332.235 146.077H358.392L319.731 208.039L358.066 269.7H332.235L294.526 208.279L256.337 270L102.571 269.572L64.5383 208.506L26.5006 269.572H0.34375L38.507 208.305L0.34375 146.077H26.5006L64.4886 208.019L101.969 146.506Z" fill="#63179F"/>
<mask id="mask0_469_14" style="mask-type:alpha" maskUnits="userSpaceOnUse" x="118" y="139" width="179" height="75">
<path d="M138.269 173.546L139.335 166.315L119.917 163.435L118.851 170.665L138.269 173.546Z" fill="white"/>
<path d="M146.101 189.646C148.506 193.656 152.992 196.189 159.571 197.165C165.911 198.105 171.151 197.177 175.13 194.358C179.11 191.538 181.486 187.506 182.271 182.183C182.763 178.846 182.301 175.936 181.056 173.397C179.731 170.846 177.655 168.995 174.919 167.777C176.768 167.321 178.438 166.432 179.735 165.325C181.875 163.451 183.236 160.811 183.74 157.394C184.443 152.627 183.396 148.737 180.68 145.736C177.964 142.735 173.78 140.897 168.153 140.062C160.94 138.993 155.56 140.874 152.037 145.547C149.939 148.24 148.631 151.619 148.021 155.75L154.838 156.761C155.453 153.686 156.371 151.305 157.58 149.698C159.86 146.87 163.253 145.831 167.929 146.524C170.545 146.912 172.738 147.968 174.417 149.76C176.176 151.564 176.89 153.862 176.48 156.642C175.929 160.377 174.049 162.696 170.905 163.691C169.112 164.318 166.913 164.398 164.298 164.01L162.713 163.775C162.169 163.613 161.615 163.531 160.913 163.345L160.011 169.463C160.486 169.534 160.962 169.604 161.449 169.595L162.876 169.807C166.997 170.418 170.13 171.695 172.285 173.557C174.361 175.408 175.152 178.285 174.589 182.099C174.132 185.198 172.648 187.575 170.136 189.233C167.623 190.89 164.55 191.408 160.904 190.867C156.149 190.162 153.122 188.17 151.721 185.04C150.936 183.219 150.677 180.582 150.899 176.88L143.607 175.799C142.846 180.963 143.628 185.544 146.101 189.646Z" fill="white"/>
<path d="M227.119 157.983C224.748 151.542 220.029 147.838 212.896 146.78C204.891 145.593 198.801 148.992 194.468 156.956C192.215 161.25 190.547 166.523 189.609 172.879C188.414 180.983 188.801 187.698 190.86 192.956C193.266 199.159 197.747 202.827 204.405 203.815C211.776 204.908 217.602 202.2 221.906 195.531C224.931 190.946 226.954 184.913 228.079 177.286C229.25 169.341 228.908 162.876 227.119 157.983ZM214.617 193.882C212.076 196.833 208.909 197.988 205.342 197.459C200.824 196.788 198.04 193.696 196.912 188.17C196.238 184.498 196.272 179.875 197.104 174.234C198.217 166.686 200.091 161.119 202.555 157.587C205.032 153.976 208.245 152.504 212.367 153.116C216.805 153.774 219.524 156.207 220.5 160.573C221.409 164.849 221.44 170.131 220.502 176.487C219.214 185.227 217.225 191.021 214.617 193.882Z" fill="white"/>
<path d="M248.763 210.394L288.13 158.183L283.85 157.548L244.483 209.759L248.763 210.394ZM260.227 159.565C258.01 156.475 255.027 154.734 251.222 154.17C247.497 153.617 244.139 154.418 241.126 156.732C238.123 158.966 236.307 161.944 235.757 165.678C235.206 169.412 236.085 172.79 238.314 175.8C240.531 178.889 243.514 180.631 247.239 181.183C251.044 181.748 254.401 180.947 257.415 178.633C260.417 176.399 262.233 173.421 262.784 169.687C263.335 165.953 262.456 162.575 260.227 159.565ZM254.106 174.164C252.286 175.518 250.267 176.03 248.047 175.701C245.828 175.372 244.122 174.307 242.772 172.483C241.421 170.659 240.977 168.726 241.305 166.501C241.633 164.276 242.627 162.475 244.435 161.201C246.255 159.847 248.183 159.402 250.402 159.731C252.622 160.06 254.418 161.058 255.769 162.882C257.041 164.694 257.564 166.639 257.236 168.864C256.908 171.088 255.846 172.798 254.106 174.164ZM294.232 192.05C292.003 189.041 289.032 187.22 285.307 186.667C281.502 186.103 278.133 186.983 275.131 189.217C272.129 191.451 270.312 194.43 269.762 198.164C269.211 201.898 270.09 205.276 272.319 208.286C274.548 211.296 277.519 213.117 281.323 213.681C285.049 214.233 288.418 213.353 291.42 211.119C294.422 208.885 296.238 205.907 296.789 202.173C297.34 198.438 296.461 195.06 294.232 192.05ZM288.111 206.65C286.291 208.004 284.272 208.516 282.132 208.199C279.913 207.869 278.127 206.793 276.777 204.969C275.426 203.145 274.982 201.211 275.31 198.987C275.638 196.762 276.621 195.04 278.44 193.687C280.26 192.333 282.279 191.82 284.498 192.149C286.638 192.467 288.423 193.543 289.774 195.368C291.046 197.18 291.569 199.125 291.241 201.35C290.913 203.574 289.851 205.284 288.111 206.65Z" fill="white"/>
</mask>
<g mask="url(#mask0_469_14)">
<path d="M101.969 146.505L255.909 146.076L294.501 208.064L332.235 146.076H358.392L319.731 208.038L358.066 269.699H332.235L294.526 208.278L256.337 269.999L102.571 269.571L64.5383 208.505L26.5006 269.571H0.34375L38.507 208.304L0.34375 146.076H26.5006L64.4886 208.018L101.969 146.505Z" fill="white"/>
</g>
</svg>
