<svg width="256" height="334" viewBox="0 0 256 334" fill="none" xmlns="http://www.w3.org/2000/svg">
<path d="M45 167.201L0.5 238.501L44.5 309.501H104L119 333.001L133.793 309.501H193L237.5 238.3L193 167.2L45 167.201Z" fill="#4FDB15"/>
<mask id="mask0_248_119" style="mask-type:alpha" maskUnits="userSpaceOnUse" x="104" y="0" width="152" height="128">
<path fill-rule="evenodd" clip-rule="evenodd" d="M206.913 0.200195H239.352L256 24.349L223.077 73.4227H164.418L128.964 127.2L126.457 125.551L162.8 70.4237H221.475L252.37 24.3719L237.774 3.19922H208.554L194.012 25.86H165.938L146.097 57.6815L131.248 81.495L116.4 105.309L106.548 121.109L104 119.523L112.863 105.309L127.088 82.4947L141.313 59.6808L164.271 22.861H192.371L206.913 0.200195Z" fill="#4FDB15"/>
</mask>
<g mask="url(#mask0_248_119)">
<path d="M158.891 52.2002C152.891 54.6002 140.391 59.2002 134.891 61.2002L112.391 20.7002L280.391 -24.2998L264.891 84.7002L138.391 134.7L88.8906 120.7L108.391 99.2002L125.891 105.7L150.391 66.2002L229.391 27.2002L224.391 15.2002L158.891 52.2002Z" fill="#4FDB15"/>
</g>
<path d="M222.827 262.091L207.979 238.347L193.188 262.091H222.827Z" fill="#039322"/>
<path d="M148.591 190.866L133.737 167.124L118.852 190.87L148.591 190.866Z" fill="#039322"/>
<path d="M134.064 167.152L119.209 143.41L104.324 167.156L134.064 167.152Z" fill="#474747"/>
<path d="M207.962 190.866L193.108 167.124L178.223 190.87L207.962 190.866Z" fill="#039322"/>
<path d="M89.2902 190.866L74.4361 167.124L59.5508 190.87L89.2902 190.866Z" fill="#039322"/>
<path d="M118.97 190.866L104.116 167.124L89.2305 190.87L118.97 190.866Z" fill="#039322"/>
<path d="M178.337 190.866L163.483 167.124L148.598 190.87L178.337 190.866Z" fill="#039322"/>
<path d="M59.6613 190.866L44.8071 167.124L29.9219 190.87L59.6613 190.866Z" fill="#039322"/>
<path d="M148.559 190.87L133.723 214.621L118.855 190.87H148.559Z" fill="#4FDB15"/>
<path d="M163.442 167.124L148.592 190.866L133.738 167.124H163.442Z" fill="#4FDB15"/>
<path d="M133.738 167.125L118.857 190.871L104.094 167.12L133.738 167.125Z" fill="#4FDB15"/>
<path d="M119.206 143.411L104.326 167.157L89.5625 143.406L119.206 143.411Z" fill="#474747"/>
<path d="M148.515 143.411L133.634 167.157L118.871 143.406L148.515 143.411Z" fill="#474747"/>
<path d="M193.109 167.125L178.228 190.871L163.465 167.12L193.109 167.125Z" fill="#4FDB15"/>
<path d="M74.4329 167.125L59.5521 190.871L44.7891 167.12L74.4329 167.125Z" fill="#4FDB15"/>
<path d="M133.754 214.628L118.834 190.868L103.988 214.719L133.754 214.628Z" fill="#4FDB15"/>
<path d="M133.728 214.621L118.92 238.203L103.988 214.719L133.728 214.621Z" fill="#4FDB15"/>
<path d="M133.86 262.1L118.919 238.203L104.059 262.036L133.86 262.1Z" fill="#4FDB15"/>
<path d="M133.789 262.026L118.955 285.795L104.059 262.035L133.789 262.026Z" fill="#4FDB15"/>
<path d="M193.127 214.607L178.28 238.349L163.426 214.607H193.127Z" fill="#4FDB15"/>
<path d="M103.986 214.719L89.2344 190.866L74.4336 214.615L103.986 214.719Z" fill="#039322"/>
<path d="M44.5136 214.719L29.7617 190.866L14.9609 214.615L44.5136 214.719Z" fill="#039322"/>
<path d="M103.987 214.719L89.1837 238.319L74.3984 214.579L103.987 214.719Z" fill="#4FDB15"/>
<path d="M44.518 214.719L29.7149 238.319L14.9297 214.579L44.518 214.719Z" fill="#4FDB15"/>
<path d="M118.829 190.881L103.988 214.719L89.1562 190.87L118.829 190.881Z" fill="#4FDB15"/>
<path d="M89.2798 190.87L74.4456 214.621L59.5781 190.87H89.2798Z" fill="#4FDB15"/>
<path d="M74.4732 214.628L59.5523 190.868L44.707 214.719L74.4732 214.628Z" fill="#039322"/>
<path d="M59.5478 190.881L44.7069 214.719L29.875 190.87L59.5478 190.881Z" fill="#4FDB15"/>
<path d="M118.956 238.209L103.993 214.705L89.1836 238.318L118.956 238.209Z" fill="#039322"/>
<path d="M59.4876 238.209L44.5245 214.705L29.7148 238.318L59.4876 238.209Z" fill="#039322"/>
<path d="M74.4558 214.594L59.526 238.34L44.6719 214.598L74.4558 214.594Z" fill="#4FDB15"/>
<path d="M74.3758 262.087L59.526 285.829L44.6719 262.087H74.3758Z" fill="#4FDB15"/>
<path d="M89.1993 238.321L74.4118 214.597L59.4688 238.338L89.1993 238.321Z" fill="#039322"/>
<path d="M29.7306 238.321L14.9431 214.597L0 238.338L29.7306 238.321Z" fill="#039322"/>
<path d="M178.264 190.866L163.466 214.608L148.562 190.866H178.264Z" fill="#4FDB15"/>
<path d="M163.468 214.613L148.561 190.84L133.727 214.608L163.468 214.613Z" fill="#039322"/>
<path d="M222.878 214.613L207.971 190.84L193.137 214.608L222.878 214.613Z" fill="#039322"/>
<path d="M207.962 190.866L193.112 214.608L178.258 190.866H207.962Z" fill="#4FDB15"/>
<path d="M193.111 214.612L178.261 190.87L163.449 214.607L193.111 214.612Z" fill="#039322"/>
<path d="M163.464 214.607L148.581 238.349L133.727 214.607H163.464Z" fill="#4FDB15"/>
<path d="M222.874 214.607L207.991 238.349L193.137 214.607H222.874Z" fill="#4FDB15"/>
<path d="M207.983 238.347L193.135 262.091L178.281 238.347H207.983Z" fill="#4FDB15"/>
<path d="M237.665 238.347L222.815 262.091L207.961 238.347H237.665Z" fill="#4FDB15"/>
<path d="M193.351 309.54L178.405 285.794L163.613 309.536L193.351 309.54Z" fill="#039322"/>
<path d="M148.558 238.185L133.797 214.452L118.914 238.212L148.558 238.185Z" fill="#039322"/>
<path d="M207.964 238.185L193.203 214.452L178.32 238.212L207.964 238.185Z" fill="#039322"/>
<path d="M104.077 262.087L89.1869 238.314L74.375 262.087H104.077Z" fill="#039322"/>
<path d="M74.5063 262.087L59.6166 238.314L44.8047 262.087H74.5063Z" fill="#039322"/>
<path d="M104.079 262.086L89.2292 285.826L74.375 262.084L104.079 262.086Z" fill="#4FDB15"/>
<path d="M89.2244 285.829L74.3769 262.087L59.4961 285.844L89.2244 285.829Z" fill="#039322"/>
<path d="M59.5018 285.829L44.6543 262.087L29.7734 285.844L59.5018 285.829Z" fill="#039322"/>
<path d="M118.954 285.795L104.06 262.04L89.1992 285.82L118.954 285.795Z" fill="#039322"/>
<path d="M118.954 285.793L104.027 309.566L89.1172 285.769L118.954 285.793Z" fill="#4FDB15"/>
<path d="M44.7251 262.083L29.8776 285.827L15.0234 262.083H44.7251Z" fill="#4FDB15"/>
<path d="M59.5678 285.821L44.7448 309.563L29.8906 285.821H59.5678Z" fill="#4FDB15"/>
<path d="M133.802 309.536L118.955 285.794L104.027 309.567L133.802 309.536Z" fill="#4FDB15"/>
<path d="M163.485 262.029L148.635 285.771L133.781 262.029H163.485Z" fill="#4FDB15"/>
<path d="M148.655 285.795L133.798 309.534L118.953 285.795H148.655Z" fill="#4FDB15"/>
<path d="M178.36 285.795L163.502 309.534L148.656 285.795H178.36Z" fill="#4FDB15"/>
<path d="M208.067 285.795L193.209 309.534L178.363 285.795H208.067Z" fill="#4FDB15"/>
<path d="M148.639 285.793L133.774 262.026L118.969 285.786L148.639 285.793Z" fill="#039322"/>
<path d="M178.348 285.778L163.498 262.036L148.617 285.793L178.348 285.778Z" fill="#039322"/>
<path d="M208.051 285.778L193.201 262.036L178.32 285.793L208.051 285.778Z" fill="#039322"/>
<path d="M193.147 262.036L178.299 285.778L163.445 262.036H193.147Z" fill="#4FDB15"/>
<path d="M222.838 262.036L207.991 285.778L193.137 262.036H222.838Z" fill="#4FDB15"/>
<path d="M163.506 309.539L148.656 285.795L133.695 309.539H163.506Z" fill="#039322"/>
<path d="M133.803 309.535L118.928 333.306L104.074 309.562L133.803 309.535Z" fill="#4FDB15"/>
<path d="M178.313 238.334L163.463 214.592L148.582 238.349L178.313 238.334Z" fill="#039322"/>
<path d="M237.723 238.334L222.873 214.592L207.992 238.349L237.723 238.334Z" fill="#039322"/>
<path d="M44.7227 262.083L29.873 238.341L14.9922 262.1L44.7227 262.083Z" fill="#039322"/>
<path d="M118.921 238.203L104.053 262.04L89.1836 238.319L118.921 238.203Z" fill="#4FDB15"/>
<path d="M193.22 262.1L178.279 238.203L163.418 262.036L193.22 262.1Z" fill="#039322"/>
<path d="M163.491 262.03L148.601 238.257L133.789 262.027L163.491 262.03Z" fill="#039322"/>
<path d="M178.284 238.203L163.417 262.04L148.547 238.319L178.284 238.203Z" fill="#4FDB15"/>
<path d="M148.624 238.203L133.776 261.978L118.922 238.203H148.624Z" fill="#4FDB15"/>
<path d="M89.1956 238.322L74.377 262.086L59.5117 238.322H89.1956Z" fill="#4FDB15"/>
<path d="M59.6136 238.322L44.795 262.086L29.9297 238.322H59.6136Z" fill="#4FDB15"/>
<path d="M29.8128 238.322L14.9942 262.086L0.128906 238.322H29.8128Z" fill="#4FDB15"/>
<path d="M104.026 309.566L89.1786 285.824L74.3867 309.566H104.026Z" fill="#039322"/>
<path d="M74.3894 309.563L59.5419 285.821L44.75 309.563H74.3894Z" fill="#039322"/>
<path d="M89.1903 285.821L74.3828 309.563L59.5664 285.821H89.1903Z" fill="#4FDB15"/>
<path d="M104.094 167.12L89.2331 190.862L74.3789 167.12H104.094Z" fill="#4FDB15"/>
<path d="M134 119.662L118.943 143.409L104 119.662H134Z" fill="#474747"/>
<rect x="104" y="144" width="30" height="23" fill="#474747"/>
</svg>
