<svg width="256" height="334" viewBox="0 0 256 334" fill="none" xmlns="http://www.w3.org/2000/svg">
<path d="M45 167.001L0.5 238.301L44.5 309.301H104L119 332.801L133.793 309.301H193L237.5 238.1L193 167L45 167.001Z" fill="#039322"/>
<mask id="mask0_314_417" style="mask-type:alpha" maskUnits="userSpaceOnUse" x="104" y="0" width="152" height="127">
<path fill-rule="evenodd" clip-rule="evenodd" d="M206.913 0H239.352L256 24.1488L223.077 73.2225H164.418L128.964 127L126.457 125.351L162.8 70.2235H221.475L252.37 24.1717L237.774 2.99902H208.554L194.012 25.6598H165.938L146.097 57.4813L131.248 81.2948L116.4 105.108L106.548 120.909L104 119.323L112.863 105.108L127.088 82.2945L141.313 59.4806L164.271 22.6608H192.371L206.913 0Z" fill="#4FDB15"/>
</mask>
<g mask="url(#mask0_314_417)">
<path d="M158.891 52C152.891 54.4 140.391 59 134.891 61L112.391 20.5L280.391 -24.5L264.891 84.5L138.391 134.5L88.8906 120.5L108.391 99L125.891 105.5L150.391 66L229.391 27L224.391 15L158.891 52Z" fill="#4FDB15"/>
</g>
<path d="M222.827 261.891L207.979 238.147L193.188 261.891H222.827Z" fill="#4FDB15"/>
<path d="M148.591 190.666L133.737 166.924L118.852 190.671L148.591 190.666Z" fill="#4FDB15"/>
<path d="M134.064 166.952L119.209 143.21L104.324 166.956L134.064 166.952Z" fill="#474747"/>
<path d="M207.962 190.666L193.108 166.924L178.223 190.671L207.962 190.666Z" fill="#4FDB15"/>
<path d="M89.2902 190.666L74.4361 166.924L59.5508 190.671L89.2902 190.666Z" fill="#4FDB15"/>
<path d="M118.97 190.666L104.116 166.924L89.2305 190.671L118.97 190.666Z" fill="#4FDB15"/>
<path d="M178.337 190.666L163.483 166.924L148.598 190.671L178.337 190.666Z" fill="#4FDB15"/>
<path d="M59.6613 190.666L44.8071 166.924L29.9219 190.671L59.6613 190.666Z" fill="#4FDB15"/>
<path d="M148.559 190.67L133.723 214.421L118.855 190.67H148.559Z" fill="#039322"/>
<path d="M163.442 166.924L148.592 190.666L133.738 166.924H163.442Z" fill="#039322"/>
<path d="M133.738 166.925L118.857 190.671L104.094 166.92L133.738 166.925Z" fill="#039322"/>
<path d="M119.206 143.21L104.326 166.957L89.5625 143.206L119.206 143.21Z" fill="#474747"/>
<path d="M148.515 143.21L133.634 166.957L118.871 143.206L148.515 143.21Z" fill="#474747"/>
<path d="M193.109 166.925L178.228 190.671L163.465 166.92L193.109 166.925Z" fill="#039322"/>
<path d="M74.4329 166.925L59.5521 190.671L44.7891 166.92L74.4329 166.925Z" fill="#039322"/>
<path d="M133.754 214.428L118.834 190.668L103.988 214.519L133.754 214.428Z" fill="#039322"/>
<path d="M133.728 214.421L118.92 238.003L103.988 214.519L133.728 214.421Z" fill="#039322"/>
<path d="M133.86 261.901L118.919 238.003L104.059 261.836L133.86 261.901Z" fill="#039322"/>
<path d="M133.789 261.827L118.955 285.595L104.059 261.836L133.789 261.827Z" fill="#039322"/>
<path d="M193.127 214.408L178.28 238.149L163.426 214.408H193.127Z" fill="#039322"/>
<path d="M103.986 214.519L89.2344 190.667L74.4336 214.415L103.986 214.519Z" fill="#4FDB15"/>
<path d="M44.5136 214.519L29.7617 190.667L14.9609 214.415L44.5136 214.519Z" fill="#4FDB15"/>
<path d="M103.987 214.519L89.1837 238.118L74.3984 214.379L103.987 214.519Z" fill="#039322"/>
<path d="M44.518 214.519L29.7149 238.118L14.9297 214.379L44.518 214.519Z" fill="#039322"/>
<path d="M118.829 190.682L103.988 214.519L89.1562 190.67L118.829 190.682Z" fill="#039322"/>
<path d="M89.2798 190.67L74.4456 214.421L59.5781 190.67H89.2798Z" fill="#039322"/>
<path d="M74.4732 214.428L59.5523 190.668L44.707 214.519L74.4732 214.428Z" fill="#4FDB15"/>
<path d="M59.5478 190.682L44.7069 214.519L29.875 190.67L59.5478 190.682Z" fill="#039322"/>
<path d="M118.956 238.009L103.993 214.505L89.1836 238.118L118.956 238.009Z" fill="#4FDB15"/>
<path d="M59.4876 238.009L44.5245 214.505L29.7148 238.118L59.4876 238.009Z" fill="#4FDB15"/>
<path d="M74.4558 214.395L59.526 238.141L44.6719 214.399L74.4558 214.395Z" fill="#039322"/>
<path d="M74.3758 261.887L59.526 285.629L44.6719 261.887H74.3758Z" fill="#039322"/>
<path d="M89.1993 238.121L74.4118 214.397L59.4688 238.139L89.1993 238.121Z" fill="#4FDB15"/>
<path d="M29.7306 238.121L14.9431 214.397L0 238.139L29.7306 238.121Z" fill="#4FDB15"/>
<path d="M178.264 190.667L163.466 214.408L148.562 190.667H178.264Z" fill="#039322"/>
<path d="M163.468 214.413L148.561 190.64L133.727 214.408L163.468 214.413Z" fill="#4FDB15"/>
<path d="M222.878 214.413L207.971 190.64L193.137 214.408L222.878 214.413Z" fill="#4FDB15"/>
<path d="M207.962 190.667L193.112 214.408L178.258 190.667H207.962Z" fill="#039322"/>
<path d="M193.111 214.412L178.261 190.67L163.449 214.408L193.111 214.412Z" fill="#4FDB15"/>
<path d="M163.464 214.408L148.581 238.149L133.727 214.408H163.464Z" fill="#039322"/>
<path d="M222.874 214.408L207.991 238.149L193.137 214.408H222.874Z" fill="#039322"/>
<path d="M207.983 238.147L193.135 261.891L178.281 238.147H207.983Z" fill="#039322"/>
<path d="M237.665 238.147L222.815 261.891L207.961 238.147H237.665Z" fill="#039322"/>
<path d="M193.351 309.34L178.405 285.594L163.613 309.336L193.351 309.34Z" fill="#4FDB15"/>
<path d="M148.558 237.985L133.797 214.252L118.914 238.012L148.558 237.985Z" fill="#4FDB15"/>
<path d="M207.964 237.985L193.203 214.252L178.32 238.012L207.964 237.985Z" fill="#4FDB15"/>
<path d="M104.077 261.887L89.1869 238.114L74.375 261.887H104.077Z" fill="#4FDB15"/>
<path d="M74.5063 261.887L59.6166 238.114L44.8047 261.887H74.5063Z" fill="#4FDB15"/>
<path d="M104.079 261.887L89.2292 285.626L74.375 261.884L104.079 261.887Z" fill="#039322"/>
<path d="M89.2244 285.629L74.3769 261.887L59.4961 285.645L89.2244 285.629Z" fill="#4FDB15"/>
<path d="M59.5018 285.629L44.6543 261.887L29.7734 285.645L59.5018 285.629Z" fill="#4FDB15"/>
<path d="M118.954 285.595L104.06 261.84L89.1992 285.62L118.954 285.595Z" fill="#4FDB15"/>
<path d="M118.954 285.593L104.027 309.366L89.1172 285.569L118.954 285.593Z" fill="#039322"/>
<path d="M44.7251 261.883L29.8776 285.627L15.0234 261.883H44.7251Z" fill="#039322"/>
<path d="M59.5678 285.622L44.7448 309.363L29.8906 285.622H59.5678Z" fill="#039322"/>
<path d="M133.802 309.336L118.955 285.594L104.027 309.367L133.802 309.336Z" fill="#039322"/>
<path d="M163.485 261.83L148.635 285.571L133.781 261.83H163.485Z" fill="#039322"/>
<path d="M148.655 285.595L133.798 309.334L118.953 285.595H148.655Z" fill="#039322"/>
<path d="M178.36 285.595L163.502 309.334L148.656 285.595H178.36Z" fill="#039322"/>
<path d="M208.067 285.595L193.209 309.334L178.363 285.595H208.067Z" fill="#039322"/>
<path d="M148.639 285.593L133.774 261.827L118.969 285.586L148.639 285.593Z" fill="#4FDB15"/>
<path d="M178.348 285.578L163.498 261.836L148.617 285.594L178.348 285.578Z" fill="#4FDB15"/>
<path d="M208.051 285.578L193.201 261.836L178.32 285.594L208.051 285.578Z" fill="#4FDB15"/>
<path d="M193.147 261.836L178.299 285.578L163.445 261.836H193.147Z" fill="#039322"/>
<path d="M222.838 261.836L207.991 285.578L193.137 261.836H222.838Z" fill="#039322"/>
<path d="M163.506 309.339L148.656 285.595L133.695 309.339H163.506Z" fill="#4FDB15"/>
<path d="M133.803 309.335L118.928 333.106L104.074 309.362L133.803 309.335Z" fill="#039322"/>
<path d="M178.313 238.134L163.463 214.393L148.582 238.15L178.313 238.134Z" fill="#4FDB15"/>
<path d="M237.723 238.134L222.873 214.393L207.992 238.15L237.723 238.134Z" fill="#4FDB15"/>
<path d="M44.7227 261.883L29.873 238.141L14.9922 261.901L44.7227 261.883Z" fill="#4FDB15"/>
<path d="M118.921 238.003L104.053 261.841L89.1836 238.119L118.921 238.003Z" fill="#039322"/>
<path d="M193.22 261.901L178.279 238.003L163.418 261.836L193.22 261.901Z" fill="#4FDB15"/>
<path d="M163.491 261.83L148.601 238.057L133.789 261.828L163.491 261.83Z" fill="#4FDB15"/>
<path d="M178.284 238.003L163.417 261.841L148.547 238.119L178.284 238.003Z" fill="#039322"/>
<path d="M148.624 238.003L133.776 261.779L118.922 238.003H148.624Z" fill="#039322"/>
<path d="M89.1956 238.123L74.377 261.887L59.5117 238.123H89.1956Z" fill="#039322"/>
<path d="M59.6136 238.123L44.795 261.887L29.9297 238.123H59.6136Z" fill="#039322"/>
<path d="M29.8128 238.123L14.9942 261.887L0.128906 238.123H29.8128Z" fill="#039322"/>
<path d="M104.026 309.366L89.1786 285.625L74.3867 309.366H104.026Z" fill="#4FDB15"/>
<path d="M74.3894 309.363L59.5419 285.622L44.75 309.363H74.3894Z" fill="#4FDB15"/>
<path d="M89.1903 285.622L74.3828 309.363L59.5664 285.622H89.1903Z" fill="#039322"/>
<path d="M104.094 166.92L89.2331 190.662L74.3789 166.92H104.094Z" fill="#039322"/>
<path d="M134 119.462L118.943 143.209L104 119.462H134Z" fill="#474747"/>
<rect x="104" y="143.8" width="30" height="23" fill="#474747"/>
<path d="M110 223.5L93.5 196.5L119 191L145.5 195L126.5 225.5L110 223.5Z" fill="#039322"/>
<path d="M110 271.5L93.5 244.5L119 239L145.5 243L126.5 273.5L110 271.5Z" fill="#039322"/>
<path d="M110 318.5L93.5 291.5L119 286L145.5 290L126.5 320.5L110 318.5Z" fill="#039322"/>
</svg>
