<svg width="179" height="312" viewBox="0 0 179 312" fill="none" xmlns="http://www.w3.org/2000/svg">
<path d="M59.3389 169.5L89.5 121.5L119 169.5H177.733L148.5 216.5L178.5 264.5L119 263.5L89.5 311L59.5 264H0.5L30 216.5L0.5 169.5H59.3389Z" fill="#007DA4"/>
<path d="M59.608 169.028L44.7498 192.77L29.8555 169.028H59.608Z" fill="#25CBFD"/>
<path d="M74.458 192.77L59.6083 169.028L44.8164 192.77H74.458Z" fill="#007DA4"/>
<path d="M104.025 192.784L89.2489 169.033L74.457 192.775L104.025 192.784Z" fill="#25CBFD"/>
<path d="M163.392 192.784L148.616 169.033L133.824 192.775L163.392 192.784Z" fill="#007DA4"/>
<path d="M44.7245 192.784L29.9482 169.033L15.1562 192.775L44.7245 192.784Z" fill="#007DA4"/>
<path d="M104.022 145.285L89.1747 121.543L74.3828 145.285H104.022Z" fill="#007DA4"/>
<path d="M133.736 192.785L118.882 169.023L104.023 192.785H133.736Z" fill="#007DA4"/>
<path d="M118.882 169.029L104 145L89.2422 169.029H118.882Z" fill="#25CBFD"/>
<path d="M89.2602 169.018L74.4105 192.762L59.5586 169.018H89.2602Z" fill="#007DA4"/>
<path d="M118.885 169.023L104.026 192.783L89.2344 169.03L118.885 169.023Z" fill="#007DA4"/>
<path d="M148.596 169.023L133.739 192.783L118.945 169.03L148.596 169.023Z" fill="#25CBFD"/>
<path d="M178.092 169.023L163.236 192.783L148.441 169.03L178.092 169.023Z" fill="#007DA4"/>
<path d="M30 169.031L15.15 192.783L0.269531 169.03L30 169.031Z" fill="#007DA4"/>
<path d="M118.876 216.526L104.022 192.784L89.1367 216.53L118.876 216.526Z" fill="#25CBFD"/>
<path d="M59.5754 216.526L44.7212 192.784L29.8359 216.53L59.5754 216.526Z" fill="#007DA4"/>
<path d="M89.2551 216.526L74.4009 192.784L59.5156 216.53L89.2551 216.526Z" fill="#25CBFD"/>
<path d="M148.622 216.526L133.768 192.784L118.883 216.53L148.622 216.526Z" fill="#007DA4"/>
<path d="M118.845 216.529L104.008 240.28L89.1406 216.529H118.845Z" fill="#25CBFD"/>
<path d="M133.727 192.784L118.878 216.526L104.023 192.784H133.727Z" fill="#25CBFD"/>
<path d="M104.038 145.287L89.2487 169.029L74.3945 145.287H104.038Z" fill="#007DA4"/>
<path d="M104.023 192.784L89.1419 216.53L74.3789 192.779L104.023 192.784Z" fill="#25CBFD"/>
<path d="M163.394 192.784L148.513 216.53L133.75 192.779L163.394 192.784Z" fill="#25CBFD"/>
<path d="M44.7181 192.784L29.8372 216.53L15.0742 192.779L44.7181 192.784Z" fill="#25CBFD"/>
<path d="M104.036 240.287L89.1148 216.527L74.2695 240.378L104.036 240.287Z" fill="#25CBFD"/>
<path d="M104.009 240.281L89.2015 263.863L74.2695 240.379L104.009 240.281Z" fill="#25CBFD"/>
<path d="M104.145 287.759L89.2045 263.861L74.3438 287.694L104.145 287.759Z" fill="#007DA4"/>
<path d="M104.074 287.687L89.2401 311.455L74.3438 287.695L104.074 287.687Z" fill="#007DA4"/>
<path d="M163.413 240.267L148.565 264.008L133.711 240.267H163.413Z" fill="#007DA4"/>
<path d="M74.2715 240.378L59.5195 216.525L44.7188 240.274L74.2715 240.378Z" fill="#25CBFD"/>
<path d="M74.268 240.378L59.4649 263.978L44.6797 240.238L74.268 240.378Z" fill="#007DA4"/>
<path d="M89.1142 216.54L74.2733 240.378L59.4414 216.529L89.1142 216.54Z" fill="#25CBFD"/>
<path d="M59.5649 216.529L44.7308 240.28L29.8633 216.529H59.5649Z" fill="#007DA4"/>
<path d="M44.7583 240.287L29.8375 216.527L14.9922 240.378L44.7583 240.287Z" fill="#25CBFD"/>
<path d="M89.2415 263.868L74.2783 240.364L59.4688 263.977L89.2415 263.868Z" fill="#007DA4"/>
<path d="M44.7409 240.255L29.8112 264.001L15 240.35L44.7409 240.255Z" fill="#007DA4"/>
<path d="M59.4884 263.98L44.7009 240.256L29.7578 263.998L59.4884 263.98Z" fill="#25CBFD"/>
<path d="M148.549 216.525L133.751 240.267L118.848 216.525H148.549Z" fill="#007DA4"/>
<path d="M133.753 240.272L118.846 216.499L104.012 240.267L133.753 240.272Z" fill="#25CBFD"/>
<path d="M163.396 240.271L148.546 216.529L133.734 240.267L163.396 240.271Z" fill="#25CBFD"/>
<path d="M133.749 240.267L118.866 264.008L104.012 240.267H133.749Z" fill="#007DA4"/>
<path d="M118.843 263.844L104.082 240.111L89.1992 263.871L118.843 263.844Z" fill="#007DA4"/>
<path d="M178.249 263.844L163.489 240.111L148.605 263.871L178.249 263.844Z" fill="#007DA4"/>
<path d="M148.598 263.994L133.748 240.252L118.867 264.009L148.598 263.994Z" fill="#25CBFD"/>
<path d="M89.206 263.861L74.3385 287.699L59.4688 263.977L89.206 263.861Z" fill="#25CBFD"/>
<path d="M118.905 263.861L104.057 287.636L89.2031 263.861H118.905Z" fill="#25CBFD"/>
<path d="M74.383 192.779L59.5221 216.521L44.668 192.779H74.383Z" fill="#25CBFD"/>
<path d="M89.2471 169.029L74.3974 145.287L59.6055 169.029H89.2471Z" fill="#25CBFD"/>
<path d="M104.038 97.8232L89.2487 121.565L74.3945 97.8232H104.038Z" fill="#474747"/>
<path d="M59.5 216.5L53 193H75L77.5 188L102 189.5L104 193H109L122.5 211L119 216.5L120 218.5L109 240H104L99 248H79.5L74 240L53 232.5L59.5 216.5Z" fill="#25CBFD"/>
<mask id="mask0_298_504" style="mask-type:alpha" maskUnits="userSpaceOnUse" x="42" y="0" width="64" height="102">
<path fill-rule="evenodd" clip-rule="evenodd" d="M75.2913 0.987305L105.881 51.1134L90.2154 74.4406L104.238 97.1167L101.686 98.6945L86.6467 74.3736L102.319 51.036L73.6232 4.01279L47.7337 4.40296L60.9911 26.5476L47.5588 51.0075L79.3616 99.6589L76.8505 101.3L44.0625 51.1418L57.5331 26.612L42.4883 1.48167L75.2913 0.987305Z" fill="#25CBFD"/>
</mask>
<g mask="url(#mask0_298_504)">
<path d="M115.5 31.5C107.5 31.1 83.5 25.3333 72.5 22.5L79.5 77.5C77.1667 82.5 73.9 91.6 79.5 88C85.1 84.4 91.1667 79.5 93.5 77.5L115.5 101.5L65.5 109.5L36 95L21.5 -8.5L75.5 -22L115.5 31.5Z" fill="#25CBFD"/>
<path d="M80 97.7998H74.5L78 104L80 101.3V97.7998Z" fill="#474747"/>
<path d="M104 97.7998H99.5L102 100.5L104 97.7998Z" fill="#474747"/>
</g>
</svg>
