<svg width="119" height="239" viewBox="0 0 119 239" fill="none" xmlns="http://www.w3.org/2000/svg">
<path d="M89.1173 143.565L74.2831 167.334L59.3867 143.574L89.1173 143.565Z" fill="#007BED"/>
<path d="M59.4031 143.626L44.5534 167.366L29.6992 143.624L59.4031 143.626Z" fill="#007BED"/>
<path d="M44.5525 167.367L29.7051 143.625L14.8242 167.382L44.5525 167.367Z" fill="#1C35C6"/>
<path d="M74.2824 167.334L59.3882 143.579L44.5273 167.359L74.2824 167.334Z" fill="#1C35C6"/>
<path d="M74.2787 167.331L59.3511 191.104L44.4414 167.307L74.2787 167.331Z" fill="#1C35C6"/>
<path d="M29.7136 191.102L14.8661 214.843L0.0742188 191.102H29.7136Z" fill="#007BED"/>
<path d="M89.1266 191.074L74.2791 167.332L59.3516 191.105L89.1266 191.074Z" fill="#1C35C6"/>
<path d="M103.983 167.335L89.1265 191.075L74.2812 167.335H103.983Z" fill="#007BED"/>
<path d="M103.967 167.332L89.1021 143.565L74.2969 167.325L103.967 167.332Z" fill="#1C35C6"/>
<path d="M118.834 191.079L103.984 167.335L89.0234 191.079H118.834Z" fill="#1C35C6"/>
<path d="M89.1268 191.074L74.2526 214.845L59.3984 191.101L89.1268 191.074Z" fill="#007BED"/>
<path d="M59.4126 191.102L44.5651 214.843L29.7109 191.102H59.4126Z" fill="#007BED"/>
<path d="M74.254 214.845L59.4065 191.101L44.5234 214.86L74.254 214.845Z" fill="#1C35C6"/>
<path d="M118.838 191.08L103.991 214.822L89.1367 191.08H118.838Z" fill="#007BED"/>
<path d="M103.978 214.816L89.1308 191.074L74.25 214.834L103.978 214.816Z" fill="#1C35C6"/>
<path d="M44.5079 214.87L29.7138 191.102L14.7773 214.888L44.5079 214.87Z" fill="#1C35C6"/>
<path d="M59.3503 191.105L44.5029 167.363L29.7109 191.105H59.3503Z" fill="#1C35C6"/>
<path d="M104.02 214.813L89.215 238.573L74.3164 214.813H104.02Z" fill="#007BED"/>
<path d="M74.3306 214.847L59.4831 238.588L44.6289 214.847H74.3306Z" fill="#1C35C6"/>
<path d="M89.2149 238.572L74.3652 214.83L59.4844 238.587L89.2149 238.572Z" fill="#1C35C6"/>
<path d="M44.5415 214.847L29.694 238.588L14.8398 214.847H44.5415Z" fill="#007BED"/>
<path d="M59.4259 238.572L44.5762 214.83L29.6953 238.587L59.4259 238.572Z" fill="#1C35C6"/>
<path d="M29.7136 191.102L14.8661 167.36L0.0742188 191.102H29.7136Z" fill="#1C35C6"/>
<path d="M44.5223 167.36L29.7148 191.102L14.8984 167.36H44.5223Z" fill="#007BED"/>
<path d="M49.1157 123.644L14.5195 72.7446L58.0291 2H88.2533L103.282 25.8848L58.0291 96.3261L72.9751 120.406" stroke="#007BED" stroke-width="3"/>
<path d="M74.2489 119.741L59.3814 143.579L44.5117 119.857L74.2489 119.741Z" fill="#474747"/>
</svg>
