<svg width="107" height="266" viewBox="0 0 107 266" fill="none" xmlns="http://www.w3.org/2000/svg">
<path fill-rule="evenodd" clip-rule="evenodd" d="M58.5189 0.5H90.1007L106.158 24.9439L90.1303 51.0347H61.9377L75.0545 74.1526L58.8614 99.2284L56.3412 97.601L71.5482 74.0522L56.7863 48.0347H88.4524L102.604 24.9979L88.482 3.5H60.2052L32.1862 49.5486L46.5866 74.0833L32.7115 98.9704L30.0912 97.5096L43.1305 74.1216L28.6914 49.5208L58.5189 0.5Z" fill="#4FDB15"/>
<path d="M30 145.5L0.5 193L45 265L90 193.5L60 145.5H30Z" fill="#039322"/>
<path d="M32.9935 190.067L30.1016 193.267L32.9935 197H57.3603L60.1016 193.267L57.3603 189L32.9935 190.067Z" fill="#4FDB15"/>
<path d="M60 193H30V217H60V193Z" fill="#4FDB15"/>
<path d="M60 145.3H30V169.3H60V145.3Z" fill="#4FDB15"/>
<path d="M60.0041 97.4053L45.0132 121.376L30.0156 97.4053H60.0041Z" fill="#474747"/>
<path d="M75.008 121.374L60.0171 145.347L45.0195 121.374H75.008Z" fill="#474747"/>
<path d="M60.2315 193.254L45.1 169.278L30 193.254H60.2315Z" fill="#4FDB15"/>
<path d="M60.3122 193.24L45.1148 217.211L30.1172 193.24H60.3122Z" fill="#4FDB15"/>
<path d="M60.1 241.199L45.1148 265.238L30.1172 241.199H60.1Z" fill="#039322"/>
<path d="M90.3197 193.339L75.3 217.4L60.082 193.231L90.3197 193.339Z" fill="#039322"/>
<path d="M90.2885 193.375L74.9744 169.263L59.9297 193.238L90.2885 193.375Z" fill="#4FDB15"/>
<path d="M45.0962 169.28L30.0941 193.249L15.1055 169.28H45.0962Z" fill="#039322"/>
<path d="M75.0884 169.28L60.0863 193.249L45.0977 169.28H75.0884Z" fill="#039322"/>
<path d="M45.125 169.278L30.091 145.291L15.0664 169.278H45.125Z" fill="#4FDB15"/>
<path d="M75.0763 169.262L60 145.291L45.0586 169.278L75.0763 169.262Z" fill="#4FDB15"/>
<path d="M60.0237 145.291L45.1 169.262L30.0352 145.291H60.0237Z" fill="#4FDB15"/>
<path d="M30.0985 193.254L15.1054 169.28L0 193.254H30.0985Z" fill="#4FDB15"/>
<path d="M30.1018 193.256L15.1109 217.227L0.113281 193.256H30.1018Z" fill="#039322"/>
<path d="M75.296 217.398L60.1031 241.178L45.1055 217.207L75.296 217.398Z" fill="#039322"/>
<path d="M45.1118 217.211L30.1187 241.184L15.1211 217.211H45.1118Z" fill="#039322"/>
<path d="M60.1036 241.184L45.1127 217.211L30.0859 241.2L60.1036 241.184Z" fill="#4FDB15"/>
<path d="M75.3 217.4L60.0778 193.231L45.1094 217.212L75.3 217.4Z" fill="#4FDB15"/>
<path d="M45.1154 217.211L30.1222 193.24L15.0977 217.229L45.1154 217.211Z" fill="#4FDB15"/>
<path d="M60.1012 145.356L45.0161 121.228L30.0117 145.291L60.1012 145.356Z" fill="#474747"/>
<path d="M45 121.344L30.0094 145.295L14.9961 121.344H45Z" fill="#474747"/>
<path d="M60 122H30V145H60V122Z" fill="#474747"/>
</svg>
